<?xml version="1.0" encoding="UTF-8"?>
<svg width="14px" height="14px" viewBox="0 0 14 14" version="1.1" xmlns="http://www.w3.org/2000/svg" xmlns:xlink="http://www.w3.org/1999/xlink">
    <!-- Generator: Sketch 53.2 (72643) - https://sketchapp.com -->
    <title>形状</title>
    <desc>Created with Sketch.</desc>
    <g id="页面-1" stroke="none" stroke-width="1" fill="none" fill-rule="evenodd">
        <g id="修改" transform="translate(-1299.000000, -106.000000)" fill="#FDBA29" fill-rule="nonzero">
            <g id="分组-2" transform="translate(1219.000000, 55.000000)">
                <g id="积分-(2)" transform="translate(80.000057, 51.437681)">
                    <path d="M6.5,0 C2.925,0 0,2.925 0,6.5 C0,10.075 2.925,13 6.5,13 C10.075,13 13,10.075 13,6.5 C13,2.925 10.075,0 6.5,0 Z M10.0425,5.8175 L8.84,7.4425 C8.8075,7.475 8.775,7.54 8.8075,7.605 L8.905,9.6525 C8.905,9.815 8.7425,9.9125 8.6125,9.8475 L6.6625,9.1975 C6.5975,9.165 6.565,9.165 6.5,9.1975 L4.55,9.9125 C4.3875,9.9775 4.2575,9.8475 4.2575,9.7175 L4.29,7.67 C4.29,7.605 4.2575,7.5725 4.225,7.5075 L2.9575,5.915 C2.86,5.785 2.925,5.6225 3.0875,5.59 L5.0375,5.005 C5.1025,5.005 5.135,4.94 5.1675,4.9075 L6.305,3.2175 C6.37,3.12 6.5325,3.0875 6.63,3.185 C6.6625,3.185 6.6625,3.2175 6.6625,3.2175 L7.8325,4.9075 C7.865,4.94 7.8975,4.9725 7.9625,5.005 L9.9125,5.5575 C10.075,5.525 10.14,5.6875 10.0425,5.8175 Z" id="形状"></path>
                </g>
            </g>
        </g>
    </g>
</svg>