<?xml version="1.0" standalone="no"?><!DOCTYPE svg PUBLIC "-//W3C//DTD SVG 1.1//EN" "http://www.w3.org/Graphics/SVG/1.1/DTD/svg11.dtd" ><svg xmlns="http://www.w3.org/2000/svg"><metadata></metadata><defs><font id="Futura BQ:Version 1.00" horiz-adv-x="1104"><font-face font-family="Futura BQ" font-weight="500" font-stretch="normal" units-per-em="1000" panose-1="0 0 0 0 0 0 0 0 0 0" ascent="926" descent="-262" x-height="0" bbox="-216 -262 1057 926" underline-thickness="50" underline-position="-150" unicode-range="U+0000-fb02" /><missing-glyph horiz-adv-x="271"  /><glyph glyph-name=".null" unicode="" d="" /><glyph glyph-name="nonmarkingreturn" unicode="" d="" /><glyph glyph-name="space" unicode=" " d="" /><glyph glyph-name="exclam" unicode="!" d="M192 706 l0 -546 l-97 0 l0 546 l97 0 ZM98 9 q-17 17 -17 43 q0 25 18 43 q18 17 43 17 q25 0 42 -18 q18 -18 18 -43 q-1 -25 -18 -43 q-18 -17 -43 -17 q-25 0 -43 18 Z" /><glyph glyph-name="quotedbl" unicode="&quot;" d="M280 434 l-39 245 q-3 21 0 32 q9 38 53 38 q39 0 48 -31 q3 -10 1 -27 l-40 -257 l-23 0 ZM92 434 l-39 245 q-2 21 0 32 q9 38 54 38 q38 0 47 -31 q3 -13 2 -27 l-41 -257 l-23 0 Z" /><glyph glyph-name="numbersign" unicode="#" d="M337 0 l33 229 l-111 0 l-33 -229 l-81 0 l35 229 l-139 0 l0 77 l149 0 l16 108 l-142 0 l0 77 l152 0 l31 214 l80 0 l-31 -214 l110 0 l32 214 l78 0 l-30 -214 l138 0 l0 -77 l-148 0 l-16 -108 l139 0 l0 -77 l-150 0 l-33 -229 l-79 0 ZM396 414 l-111 0 l-16 -108 l112 0 l15 108 Z" /><glyph glyph-name="dollar" unicode="$" d="M243 344 q-52 20 -84 39 q-82 49 -82 139 q0 112 100 166 q21 11 68 23 l0 98 l66 0 l1 -97 q67 -16 94 -36 q27 -19 67 -78 l-82 -44 q-17 25 -22 30 q-19 23 -60 42 l0 -201 q104 -45 139 -89 q40 -49 40 -119 q0 -135 -106 -193 q-6 -3 -77 -27 l0 -104 l-63 0 l0 104 q-100 11 -152 80 q-29 37 -54 113 l91 22 q23 -77 55 -105 q23 -18 61 -28 l0 265 ZM247 625 q-36 -21 -46 -32 q-23 -25 -23 -59 q0 -18 9 -36 q13 -25 60 -50 l0 177 ZM303 87 q34 8 53 29 q36 40 35 88 q0 26 -10 49 q-17 36 -78 70 l0 -236 Z" /><glyph glyph-name="percent" unicode="%" d="M22 509 q9 119 71 172 q35 30 87 30 q68 0 109 -57 q41 -58 41 -162 q0 -140 -72 -203 q-36 -32 -83 -32 q-73 0 -115 69 q-46 76 -38 183 ZM84 498 q0 -120 46 -162 q22 -19 44 -19 q19 0 38 11 q55 35 55 169 q0 65 -19 107 q-25 50 -69 50 q-15 0 -30 -8 q-60 -30 -65 -148 ZM700 705 l-490 -705 l-76 0 l486 705 l80 0 ZM500 231 q5 126 76 186 q38 32 80 32 q57 0 98 -46 q53 -58 53 -181 q0 -131 -64 -193 q-40 -37 -91 -37 q-71 0 -115 70 q-42 65 -37 169 ZM564 222 q0 -115 46 -155 q20 -17 43 -17 q37 0 62 40 q30 49 30 140 q0 80 -28 122 q-23 37 -63 37 q-26 -2 -46 -22 q-46 -42 -44 -145 Z" /><glyph glyph-name="ampersand" unicode="&amp;" d="M458 227 l85 90 l61 -70 l-87 -92 l125 -158 l-122 0 l-73 90 q-28 -26 -42 -37 q-74 -62 -163 -62 q-73 0 -125 41 q-87 67 -87 163 q0 36 15 71 q27 65 147 137 q-69 88 -69 152 q0 66 50 110 q47 41 113 41 q63 0 112 -37 q55 -41 55 -111 q0 -32 -17 -66 q-23 -43 -106 -104 l128 -158 ZM250 329 q-91 -49 -113 -100 q-9 -18 -9 -40 q0 -20 9 -40 q35 -71 113 -71 q57 0 137 80 l-137 171 ZM278 454 q51 40 49 39 q35 35 35 66 q0 30 -23 48 q-22 17 -53 17 q-35 0 -54 -26 q-13 -19 -13 -40 q0 -38 59 -104 Z" /><glyph glyph-name="quotesingle" unicode="&#39;" d="M92 434 l-39 245 q-2 21 0 32 q9 38 54 38 q38 0 47 -31 q3 -13 2 -27 l-41 -257 l-23 0 Z" /><glyph glyph-name="parenleft" unicode="(" d="M192 693 q-26 -70 -38 -105 q-10 -32 -26 -96 q-31 -157 -31 -245 q0 -32 7 -146 q12 -76 20 -113 q7 -32 20 -77 l44 -123 l-58 -28 l-18 46 q-29 80 -49 187 q-20 104 -24 194 q-4 87 6 182 q16 112 41 206 l52 143 l54 -25 Z" /><glyph glyph-name="parenright" unicode=")" d="M71 718 q39 -109 65 -216 q18 -93 25 -178 q3 -46 3 -93 q0 -48 -5 -106 q-10 -72 -16 -108 q-7 -38 -18 -83 q-16 -54 -28 -91 l-33 -83 l-56 23 q26 60 40 102 q56 168 56 342 l-3 82 q-11 111 -36 225 q-19 74 -55 154 l61 30 Z" /><glyph glyph-name="asterisk" unicode="*" d="M140 593 l0 113 l54 0 l0 -117 l97 54 l27 -44 l-93 -55 l96 -55 l-27 -48 l-102 57 l0 -111 l-51 0 l0 109 l-98 -55 l-28 46 l100 58 l-103 55 l30 50 l98 -57 Z" /><glyph glyph-name="plus" unicode="+" d="M292 0 l0 251 l-249 0 l0 80 l249 0 l0 249 l80 0 l0 -249 l252 0 l0 -80 l-252 0 l0 -251 l-80 0 Z" /><glyph glyph-name="comma" unicode="," d="M205 94 l-165 -231 l-61 36 l140 248 l86 -53 Z" /><glyph glyph-name="hyphen" unicode="-" d="M235 264 l0 -64 l-198 0 l0 64 l198 0 Z" /><glyph glyph-name="period" unicode="." d="M59 9 q-18 17 -18 43 q0 25 18 43 q18 17 43 17 q25 0 43 -18 q17 -18 17 -43 q0 -25 -18 -43 q-18 -17 -43 -17 q-25 0 -42 18 Z" /><glyph glyph-name="slash" unicode="/" d="M278 623 l-198 -624 l-74 0 l198 624 l74 0 Z" /><glyph glyph-name="zero" unicode="0" d="M24 353 q0 33 3 64 q15 155 98 238 q61 61 145 61 q110 0 179 -95 q68 -91 68 -242 q0 -152 -49 -250 q-71 -142 -202 -142 q-75 0 -134 53 q-108 94 -108 313 ZM120 327 q4 -158 67 -219 q38 -34 80 -34 q47 0 83 40 q70 74 70 257 q0 131 -46 199 q-39 58 -101 58 q-65 -3 -106 -67 q-50 -79 -47 -234 Z" /><glyph glyph-name="one" unicode="1" d="M326 705 l0 -705 l-101 0 l0 609 l-121 0 l52 96 l170 0 Z" /><glyph glyph-name="two" unicode="2" d="M36 505 q6 58 21 90 q55 122 203 122 q43 0 83 -14 q134 -50 134 -193 q0 -20 -6 -53 q-11 -44 -54 -111 q-64 -84 -98 -125 q-36 -44 -110 -130 l268 0 l0 -92 l-462 0 l63 75 q18 21 49 60 l48 60 q134 167 180 239 q21 51 21 80 q0 33 -22 63 q-40 50 -98 50 q-50 0 -84 -35 q-26 -26 -38 -86 l-98 0 Z" /><glyph glyph-name="three" unicode="3" d="M233 414 q39 1 54 5 q74 19 74 98 q0 27 -11 50 q-27 58 -97 58 q-38 0 -66 -23 q-25 -22 -41 -74 l-100 0 q11 88 56 130 q60 58 148 58 q94 -2 155 -57 q56 -52 56 -135 q0 -63 -35 -110 q-11 -14 -47 -46 l40 -26 q55 -44 55 -138 q0 -42 -16 -84 q-52 -132 -206 -132 q-46 0 -76 10 q-84 22 -121 98 q-15 32 -26 89 l104 -1 q5 -26 13 -44 q31 -60 103 -60 q52 0 88 32 q39 36 39 93 q0 88 -79 116 q-18 6 -65 9 l1 84 Z" /><glyph glyph-name="four" unicode="4" d="M431 185 l77 0 l0 -82 l-81 0 l0 -105 l-97 0 l0 104 l-328 0 l429 649 l0 -566 ZM160 183 l171 0 l5 273 l-176 -273 Z" /><glyph glyph-name="five" unicode="5" d="M191 707 l271 0 l0 -88 l-206 0 l-39 -145 q32 2 47 2 q72 0 126 -39 q94 -68 94 -190 q0 -105 -72 -180 q-77 -77 -185 -77 q-44 0 -85 13 q-70 22 -139 106 l66 60 q5 -5 13 -15 l12 -16 q54 -63 131 -63 q31 0 60 12 q46 18 75 59 q29 42 29 91 q0 33 -13 60 q-42 98 -144 98 q-31 0 -52 -9 q-40 -13 -104 -65 l115 386 Z" /><glyph glyph-name="six" unicode="6" d="M373 705 l-158 -242 q40 8 66 8 q82 0 146 -51 q88 -69 88 -182 q0 -91 -60 -160 q-75 -87 -188 -87 q-51 0 -100 20 q-67 28 -107 90 q-40 61 -40 134 q0 37 9 74 q17 65 91 180 l145 216 l108 0 ZM117 253 q-3 -33 7 -62 q36 -106 143 -104 q33 0 60 12 q91 39 91 138 q0 34 -16 65 q-42 85 -135 85 q-58 0 -101 -38 q-44 -39 -49 -96 Z" /><glyph glyph-name="seven" unicode="7" d="M50 612 l0 93 l516 0 l-446 -718 l-78 51 l355 574 l-347 0 Z" /><glyph glyph-name="eight" unicode="8" d="M151 373 q-25 16 -38 29 q-44 47 -44 116 q0 41 17 78 q53 122 186 122 q80 -1 135 -50 q67 -55 67 -150 q0 -74 -42 -115 q-16 -15 -54 -36 q32 -15 42 -24 q62 -49 62 -141 q0 -49 -17 -83 q-52 -127 -196 -127 q-45 0 -85 16 q-131 53 -131 196 q0 36 10 65 q16 52 88 104 ZM150 227 q-5 -29 3 -59 q25 -85 114 -85 q28 0 52 12 q68 32 68 108 q0 50 -35 85 q-35 35 -85 35 q-21 0 -44 -8 q-60 -22 -73 -88 ZM164 536 q-10 -48 20 -87 q31 -42 83 -42 q20 0 41 8 q74 29 74 102 q0 45 -33 77 q-32 32 -76 32 q-26 0 -46 -9 q-53 -23 -63 -81 Z" /><glyph glyph-name="nine" unicode="9" d="M125 28 l169 240 q-114 -4 -167 33 q-94 65 -94 182 q0 47 19 91 q29 66 89 104 q59 38 130 38 q78 0 140 -46 q97 -70 97 -185 q0 -48 -40 -128 l-267 -382 l-76 53 ZM133 496 q-4 -31 7 -62 q34 -93 129 -93 q57 0 99 41 q42 41 42 98 q0 29 -12 55 q-36 82 -127 82 q-52 0 -91 -34 q-41 -35 -47 -87 Z" /><glyph glyph-name="colon" unicode=":" d="M101 9 q-17 17 -17 43 q0 25 18 43 q17 17 43 17 q25 0 42 -18 q18 -18 18 -43 q-1 -25 -18 -43 q-18 -17 -43 -17 q-25 0 -43 18 ZM101 295 q-17 17 -17 42 q0 25 18 43 q17 17 43 17 q25 0 42 -18 q18 -17 18 -42 q-1 -25 -18 -43 q-18 -17 -43 -17 q-25 0 -43 18 Z" /><glyph glyph-name="semicolon" unicode=";" d="M197 94 l-165 -232 l-59 38 l139 246 l85 -52 ZM132 290 q-17 17 -17 43 q0 25 18 42 q18 18 43 18 q25 -1 42 -18 q18 -18 18 -43 q0 -25 -18 -43 q-18 -17 -43 -17 q-25 0 -43 18 Z" /><glyph glyph-name="less" unicode="&lt;" d="M0 310 l0 86 l667 313 l0 -86 l-567 -270 l567 -270 l0 -86 l-667 313 Z" /><glyph glyph-name="equal" unicode="=" d="M0 162 l0 78 l667 0 l0 -78 l-667 0 ZM0 342 l0 79 l667 0 l0 -79 l-667 0 Z" /><glyph glyph-name="greater" unicode="&gt;" d="M0 83 l567 270 l-567 270 l0 86 l667 -313 l0 -86 l-667 -313 l0 86 Z" /><glyph glyph-name="question" unicode="?" d="M401 335 q-8 -48 -17 -72 q-41 -92 -145 -92 q-30 0 -58 11 q-91 41 -91 141 q0 31 12 58 q22 46 82 73 q19 8 41 16 q47 16 61 25 q35 23 35 60 q-4 21 -6 25 q-21 45 -72 45 q-40 0 -62 -38 q-14 -22 -11 -73 l-95 0 q0 89 31 133 q48 69 139 69 q34 0 66 -13 q102 -38 102 -151 q0 -59 -36 -103 q-36 -41 -112 -64 q-40 -12 -51 -19 q-29 -18 -29 -49 q0 -7 4 -19 q13 -32 51 -32 q17 0 33 10 q25 17 34 60 l94 -1 ZM204 9 q-17 17 -17 43 q0 25 18 43 q18 17 43 17 q25 0 42 -18 q18 -18 18 -43 q-1 -25 -18 -43 q-18 -17 -43 -17 q-25 0 -43 18 Z" /><glyph glyph-name="at" unicode="@" d="M580 495 l68 0 l-33 -150 q-29 -143 -28 -171 q0 -44 30 -44 q25 0 59 34 q93 99 93 257 q0 63 -21 108 q-57 129 -224 129 q-81 0 -158 -36 q-109 -52 -175 -160 q-66 -106 -66 -227 q0 -76 26 -133 q38 -85 125 -130 q78 -41 176 -41 q143 0 269 90 q27 19 66 56 l32 -41 q-38 -39 -80 -67 q-135 -93 -286 -93 q-137 0 -243 71 q-44 30 -74 72 q-67 88 -67 216 q0 162 97 292 q138 185 365 185 q107 0 181 -51 q115 -77 115 -237 q0 -31 -4 -59 q-22 -148 -104 -233 q-62 -62 -124 -62 q-58 0 -76 49 q-6 16 -7 36 l-25 -31 q-55 -53 -117 -53 q-30 0 -55 12 q-76 37 -76 150 q0 162 111 247 q47 38 100 37 q64 0 99 -53 q6 -9 16 -31 l15 62 ZM540 348 q1 54 -28 83 q-23 23 -55 23 q-30 -1 -61 -24 q-78 -62 -78 -193 q0 -53 27 -79 q21 -22 53 -22 q30 0 61 23 q81 62 81 189 Z" /><glyph glyph-name="A" unicode="a" d="M681 -1 l-111 0 l-71 171 l-304 0 l-81 -170 l-111 0 l354 746 l324 -747 ZM237 261 l224 0 l-108 248 l-116 -248 Z" /><glyph glyph-name="B" unicode="b" d="M63 -1 l0 704 q60 2 122 0 q44 0 65 -2 q78 -3 129 -56 q51 -53 51 -129 q0 -66 -36 -108 q-13 -14 -42 -33 q43 -14 59 -24 q71 -46 71 -149 q0 -115 -92 -170 q-55 -33 -223 -33 l-104 0 ZM163 89 q23 1 69 1 q51 0 75 7 q76 20 76 103 q0 80 -71 101 q-19 7 -57 7 q-62 0 -92 -1 l0 -218 ZM165 396 l40 0 q73 3 102 40 q24 31 24 71 q0 36 -20 63 q-29 39 -147 36 l1 -210 Z" /><glyph glyph-name="C" unicode="c" d="M582 551 l-36 24 q-68 43 -141 43 q-134 0 -212 -102 q-51 -67 -51 -164 q0 -61 25 -118 q30 -66 98 -107 q65 -39 141 -39 q76 0 174 66 l0 -119 q-96 -45 -176 -45 q-137 0 -242 87 q-122 105 -122 276 q0 146 88 243 q111 122 278 122 q65 0 177 -45 l-1 -122 Z" /><glyph glyph-name="D" unicode="d" d="M65 3 l0 702 q144 4 261 -6 q73 -14 113 -34 q168 -86 168 -302 q0 -145 -87 -246 q-44 -52 -101 -77 q-54 -25 -183 -37 l-171 0 ZM164 96 q60 0 72 1 q162 7 232 117 q44 65 44 149 q0 132 -111 205 q-72 46 -237 38 l0 -510 Z" /><glyph glyph-name="E" unicode="e" d="M454 704 l0 -99 l-284 0 l0 -171 l282 0 l0 -95 l-283 0 l0 -242 l281 0 l0 -97 l-382 0 l0 704 l386 0 Z" /><glyph glyph-name="F" unicode="f" d="M414 705 l0 -99 l-244 0 l0 -173 l243 0 l0 -94 l-244 0 l0 -339 l-101 0 l0 705 l346 0 Z" /><glyph glyph-name="G" unicode="g" d="M622 509 q-26 26 -39 38 q-86 75 -184 75 q-88 0 -159 -59 q-100 -81 -100 -213 q0 -111 73 -188 q74 -79 184 -79 q93 0 159 62 q36 34 52 78 q7 17 11 51 l-176 0 l0 99 l289 -1 q0 -64 -5 -94 q-16 -108 -89 -189 q-93 -101 -244 -101 q-142 0 -237 84 q-119 107 -119 277 q0 134 81 236 q108 133 283 133 q127 0 230 -82 q17 -13 58 -54 l-68 -73 Z" /><glyph glyph-name="H" unicode="h" d="M165 704 l0 -282 l316 0 l0 284 l104 0 l0 -707 l-103 0 l0 328 l-318 0 l0 -327 l-101 0 l0 704 l102 0 Z" /><glyph glyph-name="I" unicode="i" d="M167 706 l0 -704 l-104 0 l0 704 l104 0 Z" /><glyph glyph-name="J" unicode="j" d="M213 705 l105 0 l-6 -546 l-2 -22 q-9 -61 -47 -99 q-53 -50 -129 -50 q-48 0 -121 34 l46 82 q42 -23 67 -23 q65 0 82 66 q5 20 5 49 l0 509 Z" /><glyph glyph-name="K" unicode="k" d="M165 704 l0 -292 l283 293 l136 0 l-319 -326 l308 -381 l-130 0 l-278 347 l0 -346 l-98 0 l0 705 l98 0 Z" /><glyph glyph-name="L" unicode="l" d="M165 704 l0 -610 l215 0 l0 -95 l-317 0 l0 705 l102 0 Z" /><glyph glyph-name="M" unicode="m" d="M396 199 l244 553 l140 -755 l-103 1 q-27 162 -34 197 q-20 102 -27 153 q-5 37 -11 113 l-214 -499 l-202 495 q-8 -82 -15 -124 l-33 -169 q-22 -110 -32 -165 l-102 0 l155 758 l234 -558 Z" /><glyph glyph-name="N" unicode="n" d="M583 703 l103 0 l0 -731 q-120 123 -241 244 l-142 145 q-61 63 -143 156 l6 -101 q1 -15 1 -45 l1 -45 l0 -326 l-104 0 l0 751 q198 -196 295 -295 q80 -82 231 -241 q-5 55 -5 67 l-1 30 q0 19 -1 29 l0 362 Z" /><glyph glyph-name="O" unicode="o" d="M40 364 q5 140 100 240 q107 113 267 113 q130 0 234 -82 q135 -108 135 -283 q0 -70 -29 -137 q-44 -104 -137 -164 q-91 -60 -203 -60 q-133 0 -237 85 q-135 109 -130 288 ZM142 366 q-5 -100 56 -176 q79 -100 209 -100 q94 0 165 55 q102 79 102 207 q0 56 -22 106 q-32 73 -99 115 q-66 42 -146 42 q-94 0 -164 -55 q-95 -72 -101 -194 Z" /><glyph glyph-name="P" unicode="p" d="M165 287 l0 -286 l-99 0 l0 702 l126 0 q77 0 117 -6 q80 -9 125 -71 q38 -53 38 -127 q0 -34 -8 -62 q-29 -103 -124 -136 q-31 -10 -105 -14 l-70 0 ZM166 385 l62 0 q93 4 124 47 q21 30 21 64 q0 52 -42 82 q-29 20 -92 22 l-73 0 l0 -215 Z" /><glyph glyph-name="Q" unicode="q" d="M773 -25 l-128 0 l-56 62 q-96 -48 -180 -48 q-80 0 -150 29 q-102 42 -162 133 q-60 91 -60 200 q0 76 30 145 q44 101 136 161 q92 58 202 58 q128 0 226 -77 q140 -109 140 -287 q0 -104 -53 -188 q-14 -22 -55 -70 l110 -118 ZM366 274 l128 0 l103 -110 q26 31 29 36 q44 62 44 145 q0 62 -24 114 q-32 71 -100 114 q-67 43 -145 43 q-52 0 -102 -21 q-71 -31 -115 -96 q-45 -67 -45 -143 q0 -11 1 -17 q7 -108 83 -181 q76 -72 186 -72 q53 0 110 27 l-153 161 Z" /><glyph glyph-name="R" unicode="r" d="M422 0 l-215 301 l-43 0 l0 -302 l-99 0 l0 706 l206 0 q96 -6 134 -35 q73 -53 73 -162 q0 -120 -88 -175 q-20 -12 -64 -25 q85 -121 99 -140 q13 -17 38 -52 q26 -34 38 -52 l43 -64 l-122 0 ZM166 608 l0 -221 l79 0 q83 7 109 49 q20 31 20 72 q0 55 -34 79 q-23 17 -76 21 l-98 0 Z" /><glyph glyph-name="S" unicode="s" d="M387 551 q-6 9 -20 27 q-42 50 -98 50 q-25 -2 -42 -9 q-53 -24 -53 -81 q0 -45 57 -74 l129 -65 q35 -19 54 -34 q76 -60 76 -153 q0 -38 -14 -77 q-57 -147 -214 -147 q-90 0 -156 57 q-52 45 -85 148 l95 21 q16 -42 32 -67 q45 -66 118 -66 q27 0 50 10 q71 31 71 110 q0 70 -81 114 q-21 11 -74 33 q-48 19 -73 35 q-88 56 -88 150 q0 68 44 118 q59 67 157 67 q80 0 142 -49 q26 -20 62 -67 l-89 -51 Z" /><glyph glyph-name="T" unicode="t" d="M438 704 l0 -99 l-168 0 l0 -605 l-100 0 l0 605 l-167 0 l0 99 l435 0 Z" /><glyph glyph-name="U" unicode="u" d="M155 703 l0 -416 l3 -47 q9 -92 65 -129 q41 -27 93 -27 q46 0 80 21 q67 41 71 178 l0 420 l106 0 l0 -451 l-1 -17 q-4 -85 -42 -140 q-73 -106 -220 -106 q-81 0 -147 42 q-70 44 -96 119 q-12 33 -14 111 l0 442 l102 0 Z" /><glyph glyph-name="V" unicode="v" d="M624 703 l-311 -750 l-312 750 l113 0 q78 -184 114 -277 q10 -24 88 -235 q30 98 49 146 l75 182 q13 31 37 92 l37 92 l110 0 Z" /><glyph glyph-name="W" unicode="w" d="M983 701 l-298 -748 q-43 121 -76 208 l-32 84 q-21 51 -32 83 q-17 49 -47 149 q-54 -166 -97 -286 q-43 -121 -90 -243 l-314 756 l112 -1 q85 -201 105 -251 q20 -49 94 -241 q30 98 55 166 q18 51 56 153 q17 45 76 211 l94 -248 q44 -114 60 -161 q20 -60 39 -128 q36 108 43 126 l148 371 l104 0 Z" /><glyph glyph-name="X" unicode="x" d="M261 452 l142 250 l118 0 l-200 -345 l211 -360 l-115 0 l-157 267 l-151 -265 l-116 0 l209 359 l-208 345 l120 0 l147 -251 Z" /><glyph glyph-name="Y" unicode="y" d="M280 416 q54 94 81 139 q16 26 46 78 q17 28 38 70 l124 0 l-117 -195 l-120 -204 l0 -304 l-99 0 l0 304 l-55 88 l-128 223 q-44 73 -53 89 l125 0 l158 -288 Z" /><glyph glyph-name="Z" unicode="z" d="M53 608 l0 96 l466 0 l-354 -614 l342 0 l0 -92 l-509 0 l347 610 l-292 0 Z" /><glyph glyph-name="bracketleft" unicode="[" d="M259 705 l0 -94 l-105 0 l0 -748 l103 0 l0 -95 l-201 0 l0 937 l203 0 Z" /><glyph glyph-name="backslash" unicode="\" d="M26 706 l80 0 l222 -706 l-80 0 l-222 706 Z" /><glyph glyph-name="bracketright" unicode="]" d="M134 -140 l0 750 l-104 0 l0 96 l203 0 l0 -937 l-206 0 l0 91 l107 0 Z" /><glyph glyph-name="asciicircum" unicode="^" d="M490 336 l-124 260 l-128 -260 l-96 0 l188 370 l77 0 l180 -370 l-97 0 Z" /><glyph glyph-name="underscore" unicode="_" d="M-10 -216 l0 79 l520 0 l0 -79 l-520 0 Z" /><glyph glyph-name="grave" unicode="`" d="M116 534 l-64 -22 l-155 145 l95 35 l124 -158 Z" /><glyph glyph-name="a" unicode="a" d="M359 431 l94 0 l0 -432 l-94 0 l0 56 l-29 -25 q-49 -40 -109 -40 q-57 0 -107 36 q-85 62 -85 189 q0 47 15 88 q21 61 72 99 q52 40 114 40 q60 0 129 -61 l0 50 ZM124 221 q-3 -36 11 -72 q30 -72 108 -72 q37 0 65 18 q59 36 59 125 q0 65 -38 102 q-34 33 -81 33 q-27 0 -53 -13 q-67 -34 -71 -121 Z" /><glyph glyph-name="b" unicode="b" d="M143 745 l0 -361 q85 60 144 60 q43 0 85 -20 q120 -59 120 -205 q0 -87 -49 -148 q-62 -82 -163 -82 q-19 0 -42 5 q-43 10 -98 60 l0 -53 l-91 0 l0 744 l94 0 ZM135 222 q-3 -60 27 -100 q38 -50 104 -50 q32 0 60 14 q73 38 73 129 q0 28 -10 57 q-34 87 -124 87 q-53 0 -90 -37 q-37 -37 -40 -100 Z" /><glyph glyph-name="c" unicode="c" d="M370 324 q-64 34 -107 34 q-31 0 -58 -13 q-81 -40 -81 -135 q0 -50 30 -86 q37 -46 104 -46 q46 0 113 36 l0 -99 q-83 -26 -118 -26 q-81 0 -143 50 q-82 65 -82 177 q0 92 58 155 q68 74 173 74 q40 0 111 -23 l0 -98 Z" /><glyph glyph-name="d" unicode="d" d="M385 743 l93 0 l0 -741 l-95 0 l0 50 q-78 -63 -147 -63 q-43 0 -84 19 q-120 59 -120 211 q0 149 116 205 q51 22 96 22 q24 0 48 -6 q38 -11 93 -58 l0 361 ZM124 227 q-5 -100 65 -139 q27 -16 65 -16 q31 0 55 10 q84 33 84 139 q-2 88 -69 126 q-29 16 -64 17 q-44 -1 -80 -27 q-52 -37 -56 -110 Z" /><glyph glyph-name="e" unicode="e" d="M126 199 l6 -31 q24 -94 110 -94 q25 0 46 8 q38 14 81 74 q34 -16 51 -26 l23 -13 q-19 -32 -34 -50 q-63 -77 -173 -77 q-75 0 -129 46 q-77 64 -77 174 q0 91 48 154 q59 80 165 80 q102 0 157 -66 q19 -23 35 -65 q10 -29 14 -62 q1 -10 1 -51 l-324 -1 ZM346 273 q-1 19 -8 36 q-25 56 -96 56 q-40 0 -71 -22 q-22 -16 -41 -71 l216 1 Z" /><glyph glyph-name="f" unicode="f" d="M56 433 l0 159 q0 41 8 65 q29 88 139 88 q27 0 57 -6 l0 -84 q-16 3 -33 3 q-22 0 -39 -10 q-40 -23 -40 -98 l0 -117 l112 0 l0 -82 l-117 0 l0 -350 l-87 0 l0 351 l-46 0 l0 81 l46 0 Z" /><glyph glyph-name="g" unicode="g" d="M358 431 l95 0 l0 -442 q-4 -103 -46 -152 q-55 -65 -166 -65 q-38 0 -59 7 q-85 21 -119 99 q-13 29 -18 73 l98 0 q4 -44 21 -65 q25 -29 84 -29 q43 0 71 23 q45 38 42 177 l-25 -25 q-43 -41 -116 -41 q-60 0 -111 40 q-80 64 -80 186 q0 46 14 86 q21 62 69 100 q50 39 114 39 q53 0 95 -25 q15 -9 37 -27 l0 41 ZM121 220 q-1 -31 9 -60 q29 -84 116 -84 q28 0 50 10 q71 32 71 126 q0 57 -27 95 q-34 47 -99 47 q-56 0 -88 -38 q-30 -37 -32 -96 Z" /><glyph glyph-name="h" unicode="h" d="M144 744 l0 -352 q15 15 24 22 q37 29 94 29 q65 0 108 -44 q21 -21 31 -50 q9 -23 11 -79 l0 -271 l-91 0 l0 244 q0 75 -35 99 q-26 16 -51 16 q-28 0 -52 -17 q-41 -30 -43 -116 l0 -225 l-91 0 l0 744 l95 0 Z" /><glyph glyph-name="i" unicode="i" d="M138 433 l0 -432 l-93 0 l0 432 l93 0 ZM48 567 q-19 19 -19 46 q0 27 20 46 q19 19 46 19 q27 0 46 -19 q19 -19 19 -46 q0 -27 -19 -46 q-20 -20 -47 -20 q-27 1 -46 20 Z" /><glyph glyph-name="j" unicode="j" d="M139 433 l0 -659 l-93 0 l0 659 l93 0 ZM48 567 q-19 19 -19 46 q0 27 20 46 q19 19 46 19 q27 0 46 -19 q19 -19 19 -46 q0 -27 -19 -46 q-20 -20 -47 -20 q-27 1 -46 20 Z" /><glyph glyph-name="k" unicode="k" d="M142 742 l0 -477 l158 168 l132 -1 q-35 -27 -28 -21 q-25 -21 -85 -83 q-26 -27 -80 -81 l189 -247 l-115 0 l-139 184 l-35 -34 l0 -147 l-91 0 l0 739 l94 0 Z" /><glyph glyph-name="l" unicode="l" d="M145 743 l0 -743 l-96 0 l0 743 l96 0 Z" /><glyph glyph-name="m" unicode="m" d="M142 433 l0 -45 q49 53 110 53 q24 0 43 -5 q36 -8 80 -53 q18 22 25 27 q34 31 94 31 q25 0 54 -8 q63 -19 82 -68 q7 -21 10 -67 l0 -299 l-93 0 l0 248 q-1 51 -13 72 q-16 31 -52 31 q-29 0 -53 -15 q-35 -24 -39 -102 l0 -233 l-94 0 l0 253 q0 63 -29 83 q-26 13 -43 13 q-27 0 -51 -18 q-35 -27 -35 -104 l0 -227 l-91 0 l0 433 l95 0 Z" /><glyph glyph-name="n" unicode="n" d="M142 433 l0 -37 q61 49 123 49 q62 0 104 -45 q37 -39 41 -128 l0 -272 l-92 0 l0 252 q-2 68 -31 90 q-22 15 -50 15 q-71 0 -91 -69 q-5 -18 -5 -46 l0 -242 l-93 0 l0 433 l94 0 Z" /><glyph glyph-name="o" unicode="o" d="M34 239 q3 38 22 79 q61 126 209 126 q90 0 153 -53 q77 -67 77 -174 q0 -48 -21 -93 q-60 -135 -211 -135 q-88 0 -152 55 q-87 76 -77 195 ZM128 242 q-6 -31 3 -65 q13 -44 50 -72 q38 -27 83 -27 q29 0 57 13 q82 36 82 121 q0 28 -11 54 q-39 91 -128 91 q-50 0 -89 -33 q-38 -32 -47 -82 Z" /><glyph glyph-name="p" unicode="p" d="M141 382 q26 24 37 31 q44 31 110 31 q86 0 138 -51 q68 -65 68 -174 q0 -61 -22 -109 q-53 -122 -190 -122 q-25 0 -51 7 q-40 11 -91 59 l0 -281 l-90 0 l0 658 l90 0 l1 -49 ZM137 234 q-8 -99 65 -139 q31 -17 68 -17 q36 0 67 17 q67 39 67 130 q0 84 -66 122 q-33 18 -68 18 q-44 0 -78 -24 q-50 -34 -55 -107 Z" /><glyph glyph-name="q" unicode="q" d="M386 429 l93 0 l0 -655 l-96 0 l0 276 l-20 -17 q-58 -47 -125 -47 q-49 0 -96 24 q-110 58 -110 204 q0 89 48 150 q63 79 164 79 q64 0 142 -62 l0 48 ZM127 223 q-3 -37 11 -73 q32 -74 121 -74 q56 0 88 33 q39 39 39 111 q0 79 -61 115 q-33 19 -72 19 q-32 0 -52 -10 q-67 -30 -74 -121 Z" /><glyph glyph-name="r" unicode="r" d="M141 384 q51 58 104 58 q32 0 77 -15 l-40 -91 q-47 20 -59 20 q-31 -4 -45 -15 q-30 -24 -37 -105 l0 -235 l-90 0 l0 432 l90 0 l0 -49 Z" /><glyph glyph-name="s" unicode="s" d="M243 317 q-36 46 -67 47 q-38 -1 -38 -39 q0 -26 34 -47 q13 -7 40 -19 q26 -12 39 -20 q74 -44 74 -115 q0 -28 -14 -55 q-41 -78 -137 -78 q-63 0 -109 43 q-16 15 -42 55 l77 36 q46 -54 83 -54 q28 0 44 19 q11 14 11 30 q0 5 -6 23 q-10 19 -58 39 q-37 15 -51 24 q-72 41 -72 112 q0 25 10 48 q35 76 126 76 q61 0 102 -49 q8 -8 27 -37 l-73 -39 Z" /><glyph glyph-name="t" unicode="t" d="M68 432 l0 143 l92 0 l0 -142 l74 0 l0 -83 l-75 0 l-4 -350 l-88 0 l0 350 l-47 0 l0 82 l48 0 Z" /><glyph glyph-name="u" unicode="u" d="M137 206 q0 -10 2 -32 q3 -59 33 -80 q26 -17 56 -17 q26 0 47 12 q39 23 43 96 l0 247 l93 0 l0 -242 q-4 -92 -35 -133 q-51 -68 -151 -68 q-88 0 -138 54 q-37 41 -41 152 l0 237 l91 0 l0 -226 Z" /><glyph glyph-name="v" unicode="v" d="M220 177 l121 254 l102 0 l-228 -450 l-218 449 l104 0 l119 -253 Z" /><glyph glyph-name="w" unicode="w" d="M223 173 l121 285 l124 -288 l123 260 l102 0 l-227 -464 l-122 283 l-119 -285 l-233 468 l102 0 l129 -259 Z" /><glyph glyph-name="x" unicode="x" d="M297 238 l182 -237 l-116 0 l-127 164 l-91 -121 l-34 -42 l-115 0 l86 108 l98 126 l-154 197 l121 0 l72 -93 l22 -32 l92 125 l119 0 l-155 -195 Z" /><glyph glyph-name="y" unicode="y" d="M253 170 l127 262 l105 0 l-335 -660 l-107 0 l159 304 l-203 356 l105 0 l149 -262 Z" /><glyph glyph-name="z" unicode="z" d="M44 351 l0 81 l419 0 l-293 -349 l272 0 l0 -84 l-456 0 l294 352 l-236 0 Z" /><glyph glyph-name="braceleft" unicode="{" d="M140 582 q6 126 87 154 q18 7 99 12 l-1 -6 l-28 -9 q-48 -16 -64 -64 q-7 -20 -8 -94 l0 -98 q0 -145 -21 -182 q-18 -30 -65 -46 q55 -20 72 -60 q15 -32 15 -157 l0 -110 q1 -83 18 -113 q19 -34 82 -53 l-1 -6 q-6 1 -19 1 l-20 1 q-97 5 -128 68 q-16 32 -18 125 l0 172 q0 91 -50 121 q-12 6 -21 9 l0 6 q26 6 41 21 q27 27 30 140 l0 168 Z" /><glyph glyph-name="bar" unicode="|" d="M75 -250 l0 998 l81 0 l0 -998 l-81 0 Z" /><glyph glyph-name="braceright" unicode="}" d="M213 -95 q-5 -104 -71 -138 q-26 -13 -114 -17 l0 6 q79 19 94 81 q4 19 6 86 l0 98 q2 148 21 182 q18 30 65 46 q-35 13 -52 29 q-33 35 -35 187 l0 110 q0 86 -21 119 q-20 30 -78 48 l0 6 q22 -2 34 -2 q71 -5 103 -31 q46 -36 48 -163 l0 -129 q0 -56 1 -67 q4 -64 44 -93 q10 -6 26 -12 l0 -6 q-24 -6 -39 -20 q-31 -29 -31 -142 l-1 -178 Z" /><glyph glyph-name="asciitilde" unicode="~" d="M339 261 q-60 24 -81 24 q-40 0 -94 -67 l-40 72 q59 84 133 84 q39 -1 111 -34 l33 -15 q46 -21 70 -21 q37 0 81 44 l15 18 l38 -72 q-25 -29 -44 -43 q-43 -36 -93 -36 q-35 1 -101 32 l-28 14 Z" /><glyph glyph-name="exclamdown" unicode="¡" d="M150 548 l0 -548 l-95 0 l0 548 l95 0 ZM60 613 q-17 17 -17 42 q0 25 18 43 q17 17 42 17 q25 0 43 -18 q17 -17 17 -42 q0 -25 -18 -43 q-17 -17 -42 -17 q-25 0 -43 18 Z" /><glyph glyph-name="sterling" unicode="£" d="M62 280 l0 57 l95 1 q-12 20 -17 31 q-36 64 -36 125 q0 45 20 86 q64 134 214 134 q42 0 76 -10 q99 -28 137 -125 q11 -29 19 -89 l-91 -29 q-13 114 -73 149 q-30 17 -68 17 q-56 -1 -95 -36 q-41 -37 -41 -93 q0 -30 37 -111 l24 -52 l145 0 l0 -56 l-123 0 q11 -48 11 -72 q0 -21 -14 -77 l40 -14 q24 -9 40 -14 q43 -17 69 -17 q16 0 29 5 q30 11 68 60 l66 -43 q-24 -43 -52 -70 q-47 -44 -108 -44 q-50 0 -123 27 q-80 31 -100 31 q-14 0 -25 -3 q-30 -8 -59 -52 l-70 35 l27 45 q35 49 107 68 q14 43 14 67 q0 25 -16 69 l-127 0 Z" /><glyph glyph-name="currency" unicode="¤" d="M625 107 l-62 -60 l-76 76 q-69 -50 -154 -50 q-81 0 -155 51 l-76 -76 l-60 61 l76 75 q-51 74 -51 157 q0 68 32 124 q12 20 19 29 l-75 76 l60 60 l75 -75 q75 51 156 51 q65 0 121 -29 l34 -22 l75 75 l61 -60 l-76 -76 q50 -68 50 -155 q0 -60 -23 -109 q-8 -18 -28 -47 l77 -76 ZM519 340 q0 66 -38 116 q-57 72 -147 71 q-36 0 -69 -12 q-118 -44 -118 -176 q0 -79 55 -133 q54 -54 133 -54 q59 0 102 30 q82 54 82 158 Z" /><glyph glyph-name="brokenbar" unicode="¦" d="M156 190 l0 -381 l-81 0 l0 381 l81 0 ZM75 689 l81 0 l0 -381 l-81 0 l0 381 Z" /><glyph glyph-name="section" unicode="§" d="M349 509 q-2 16 -4 26 q-11 47 -44 70 q-25 18 -55 18 q-22 -1 -38 -8 q-64 -21 -64 -86 q0 -25 10 -45 q18 -37 86 -51 q66 -15 91 -29 q100 -55 100 -168 q0 -69 -83 -154 q48 -39 61 -75 q9 -24 9 -55 q0 -55 -32 -105 q-32 -50 -82 -72 q-33 -15 -76 -15 q-33 0 -69 10 q-94 28 -121 118 l-15 73 l96 0 q3 -32 12 -53 q26 -59 87 -59 q42 0 73 29 q33 31 33 73 q0 37 -30 63 q-24 20 -76 30 q-57 12 -82 25 q-99 54 -99 168 q0 71 75 158 q0 1 -12 13 l-18 21 q-31 42 -31 99 q0 42 19 82 q50 104 176 104 q86 0 141 -58 q28 -29 39 -62 q10 -30 12 -88 l-89 3 ZM134 258 q-6 -25 2 -50 q22 -75 102 -75 q25 0 47 12 q53 30 53 92 q0 42 -28 73 q-29 30 -71 30 q-36 0 -66 -23 q-32 -24 -39 -59 Z" /><glyph glyph-name="dieresis" unicode="¨" d="M93 554 q-18 18 -18 43 q1 25 19 42 q17 17 42 17 q25 0 42 -18 q18 -17 18 -42 q0 -25 -18 -43 q-18 -17 -43 -17 q-24 0 -42 18 ZM-78 554 q-18 18 -18 43 q1 25 19 42 q17 17 42 17 q25 0 42 -18 q18 -17 18 -42 q0 -25 -18 -43 q-18 -17 -43 -17 q-24 0 -42 18 Z" /><glyph glyph-name="copyright" unicode="©" d="M772 351 q-3 -136 -88 -234 q-104 -120 -268 -120 q-158 0 -265 116 q-91 100 -91 241 q0 130 81 228 q109 127 276 127 q120 0 212 -69 q144 -107 143 -289 ZM739 352 q0 112 -64 197 q-95 128 -258 128 q-108 0 -192 -62 q-133 -96 -133 -262 q0 -64 24 -123 q37 -91 119 -146 q83 -55 182 -55 q49 0 103 17 q99 33 159 117 q59 84 60 189 ZM556 449 q-60 67 -133 67 q-37 0 -68 -14 q-91 -42 -91 -148 q0 -34 15 -69 q40 -92 146 -92 q73 0 131 65 l56 -49 q-76 -91 -190 -91 q-47 0 -90 16 q-68 26 -107 86 q-39 59 -39 134 q0 103 68 170 q68 68 170 68 q86 0 151 -53 q20 -18 37 -37 l-56 -53 Z" /><glyph glyph-name="guillemotleft" unicode="«" d="M235 438 l-156 -203 l158 -202 l-54 -40 l-185 240 l181 244 l56 -39 ZM374 430 l-142 -187 l157 -200 l-54 -40 l-185 242 l172 226 l52 -41 Z" /><glyph glyph-name="logicalnot" unicode="¬" d="M0 253 l0 79 l667 0 l0 -332 l-80 0 l0 253 l-587 0 Z" /><glyph glyph-name="registered" unicode="®" d="M502 132 q-13 28 -26 118 q-9 55 -35 70 q-20 12 -68 13 l-28 0 l0 -202 l-80 0 l0 449 l146 0 q118 0 153 -45 q24 -30 24 -70 q0 -67 -61 -96 q-17 -7 -32 -11 q20 -9 27 -14 q28 -22 42 -107 q12 -73 30 -106 l-92 1 ZM412 396 q18 0 27 1 q47 4 62 34 q7 11 7 28 q0 35 -28 51 q-19 9 -60 9 l-75 -1 l0 -122 l67 0 ZM772 351 q0 -129 -85 -229 q-105 -125 -271 -125 q-122 0 -218 73 q-138 108 -138 284 q0 130 81 228 q109 127 276 127 q180 0 286 -143 q71 -95 69 -215 ZM740 352 q0 109 -63 195 q-97 130 -260 130 q-108 0 -192 -62 q-133 -96 -133 -262 q0 -64 24 -123 q37 -91 119 -146 q83 -55 182 -55 q54 0 109 19 q97 34 155 118 q58 83 59 186 Z" /><glyph glyph-name="degree" unicode="°" d="M177 755 q67 0 114 -47 q47 -47 47 -114 q0 -37 -15 -69 q-43 -93 -146 -93 q-67 1 -114 48 q-47 47 -47 114 q0 67 47 114 q47 47 114 47 ZM177 675 q-33 0 -56 -23 q-23 -24 -23 -56 q0 -33 23 -56 q24 -23 56 -23 q33 0 56 23 q23 23 23 56 q0 32 -23 56 q-23 23 -56 23 Z" /><glyph glyph-name="plusminus" unicode="±" d="M295 135 l0 242 l-254 0 l0 79 l254 0 l0 242 l79 0 l0 -242 l251 0 l0 -79 l-251 0 l0 -242 l-79 0 ZM41 0 l0 79 l584 0 l0 -79 l-584 0 Z" /><glyph glyph-name="acute" unicode="´" d="M213 655 l-162 -145 l-60 25 l127 160 l95 -40 Z" /><glyph glyph-name="mu" unicode="µ" d="M532 141 q14 -34 14 -69 q0 -83 -68 -83 q-41 0 -68 39 q-12 16 -21 44 q-57 -87 -146 -87 q-60 0 -102 48 q-6 6 -14 18 q-7 -102 30 -178 l27 -45 q19 -32 19 -48 q0 -42 -43 -42 q-11 0 -23 6 q-20 10 -33 39 q-26 55 -26 172 q0 100 11 170 l-9 63 q-11 84 -11 177 q0 46 6 64 q18 36 44 35 q20 0 32 -19 q12 -16 12 -53 q0 -25 -6 -77 l-11 -95 q-10 -79 -13 -95 q7 -18 19 -39 q32 -45 81 -45 q29 0 53 18 q40 29 65 119 q8 43 8 184 q0 66 12 84 q13 19 36 18 q15 0 25 -7 q26 -19 26 -91 q0 -121 -29 -209 q-7 -23 -20 -48 q19 -51 54 -51 q9 0 19 6 q24 13 24 54 q0 6 -2 22 l28 1 Z" /><glyph glyph-name="paragraph" unicode="¶" d="M539 652 l-34 0 l0 -819 l-58 0 l0 819 l-144 0 l0 -819 l-58 0 l0 486 q-38 7 -58 17 q-99 45 -99 171 q0 67 35 117 q36 52 99 72 q36 10 87 10 l230 0 l0 -54 Z" /><glyph glyph-name="periodcentered" unicode="·" d="M91 224 q-28 1 -46 20 q-18 19 -18 48 q0 19 7 31 q19 37 60 37 q12 0 24 -5 q43 -18 43 -63 q0 -12 -5 -25 q-18 -45 -65 -43 Z" /><glyph glyph-name="cedilla" unicode="¸" d="M172 -65 l-97 -130 l-56 27 l84 132 l69 -29 Z" /><glyph glyph-name="guillemotright" unicode="»" d="M240 221 l-171 -226 l-52 38 l142 187 l-158 201 l54 40 l185 -240 ZM391 231 l-180 -242 l-49 36 q13 24 81 113 q24 30 68 92 l-157 200 l53 44 l184 -243 Z" /><glyph glyph-name="questiondown" unicode="¿" d="M33 373 q6 48 16 70 q38 93 144 93 q34 0 61 -13 q90 -39 90 -139 q0 -68 -53 -109 q-21 -17 -102 -44 q-78 -26 -78 -81 q0 -31 24 -52 q23 -20 54 -20 q41 0 64 36 q15 23 12 74 l91 -1 q0 -51 -7 -76 q-14 -58 -58 -90 q-43 -32 -103 -32 q-64 0 -108 37 q-58 49 -58 132 q0 63 40 105 q37 37 115 60 q30 8 45 17 q27 17 27 48 q0 11 -6 23 q-16 30 -48 30 q-16 0 -33 -10 q-26 -16 -37 -62 l-92 4 ZM142 613 q-17 17 -17 42 q0 25 18 43 q18 17 43 17 q25 0 42 -18 q18 -17 18 -42 q0 -25 -18 -43 q-18 -17 -43 -17 q-25 0 -43 18 Z" /><glyph glyph-name="Agrave" unicode="à" d="M681 -1 l-111 0 l-71 171 l-304 0 l-81 -170 l-111 0 l354 746 l324 -747 ZM237 261 l224 0 l-108 248 l-116 -248 ZM425 791 l-64 -31 l-146 110 l87 49 l123 -128 Z" /><glyph glyph-name="Aacute" unicode="á" d="M681 -1 l-111 0 l-71 171 l-304 0 l-81 -170 l-111 0 l354 746 l324 -747 ZM237 261 l224 0 l-108 248 l-116 -248 ZM490 875 l-143 -122 l-61 31 l114 134 l90 -43 Z" /><glyph glyph-name="Acircumflex" unicode="â" d="M681 -1 l-111 0 l-71 171 l-304 0 l-81 -170 l-111 0 l354 746 l324 -747 ZM237 261 l224 0 l-108 248 l-116 -248 ZM491 818 l-37 -52 l-105 67 l-100 -69 l-36 56 l140 95 l138 -97 Z" /><glyph glyph-name="Atilde" unicode="ã" d="M681 -1 l-111 0 l-71 171 l-304 0 l-81 -170 l-111 0 l354 746 l324 -747 ZM237 261 l224 0 l-108 248 l-116 -248 ZM543 835 q-58 -68 -122 -68 q-30 0 -58 13 q-56 27 -76 27 q-29 0 -64 -31 l-50 43 q71 65 119 65 q33 0 63 -15 q54 -27 73 -27 q30 0 67 35 l48 -42 Z" /><glyph glyph-name="Adieresis" unicode="ä" d="M681 -2 l-110 0 l-72 172 l-304 0 l-81 -170 l-111 0 l354 746 l324 -748 ZM237 261 l224 0 l-108 248 l-116 -248 ZM441 648 q-18 16 -18 42 q0 24 18 42 q18 17 42 17 q25 0 42 -18 q17 -17 17 -42 q0 -25 -17 -42 q-18 -17 -42 -17 q-24 0 -42 18 ZM187 648 q-17 17 -17 42 q0 24 18 42 q18 17 42 17 q25 0 42 -18 q17 -17 17 -42 q0 -25 -18 -42 q-17 -17 -42 -17 q-24 0 -42 18 Z" /><glyph glyph-name="Aring" unicode="å" d="M681 -1 l-111 0 l-71 171 l-304 0 l-81 -170 l-111 0 l354 746 l324 -747 ZM237 261 l224 0 l-108 248 l-116 -248 ZM299 785 q-24 26 -24 59 q1 34 25 58 q24 24 58 24 q34 0 58 -25 q24 -24 24 -58 q0 -34 -24 -58 q-24 -24 -58 -24 q-32 0 -59 24 ZM338 823 q8 -8 20 -8 q30 0 28 29 q0 28 -28 28 q-29 0 -29 -29 q0 -11 9 -20 Z" /><glyph glyph-name="AE" unicode="æ" d="M650 705 l42 -98 l-280 0 l79 -180 l280 0 l38 -96 l-279 0 l100 -237 l280 0 l44 -97 l-388 0 l-73 173 l-312 0 l-77 -171 l-109 0 l337 706 l318 0 ZM227 262 l226 1 q-42 92 -68 161 q-14 36 -40 110 l-118 -272 Z" /><glyph glyph-name="Ccedilla" unicode="ç" d="M582 551 l-36 24 q-68 43 -141 43 q-134 0 -212 -102 q-51 -67 -51 -164 q0 -61 25 -118 q30 -66 98 -107 q65 -39 141 -39 q76 0 174 66 l0 -119 q-96 -45 -176 -45 q-137 0 -242 87 q-122 105 -122 276 q0 146 88 243 q111 122 278 122 q65 0 177 -45 l-1 -122 ZM432 -65 l-97 -130 l-56 27 l84 132 l69 -29 Z" /><glyph glyph-name="Egrave" unicode="è" d="M454 704 l0 -99 l-284 0 l0 -171 l282 0 l0 -95 l-283 0 l0 -242 l281 0 l0 -97 l-382 0 l0 704 l386 0 ZM320 791 l-64 -31 l-147 110 l87 49 l124 -128 Z" /><glyph glyph-name="Eacute" unicode="é" d="M454 704 l0 -99 l-284 0 l0 -171 l282 0 l0 -95 l-283 0 l0 -242 l281 0 l0 -97 l-382 0 l0 704 l386 0 ZM384 875 l-142 -122 l-62 31 l115 134 l89 -43 Z" /><glyph glyph-name="Ecircumflex" unicode="ê" d="M454 704 l0 -99 l-284 0 l0 -171 l282 0 l0 -95 l-283 0 l0 -242 l281 0 l0 -97 l-382 0 l0 704 l386 0 ZM386 818 l-38 -52 l-104 67 l-100 -69 l-36 56 l140 95 l138 -97 Z" /><glyph glyph-name="Edieresis" unicode="ë" d="M454 704 l0 -99 l-284 0 l0 -171 l282 0 l0 -95 l-283 0 l0 -242 l281 0 l0 -97 l-382 0 l0 704 l386 0 ZM101 782 q-17 17 -17 43 q0 26 18 43 q18 18 43 18 q25 0 43 -18 q18 -18 18 -44 q0 -25 -18 -43 q-18 -17 -43 -17 q-26 0 -44 18 ZM307 782 q-17 17 -17 43 q0 26 18 43 q18 18 43 18 q25 0 43 -18 q18 -18 18 -44 q0 -25 -18 -43 q-18 -17 -43 -17 q-26 0 -44 18 Z" /><glyph glyph-name="Igrave" unicode="ì" d="M245 706 l0 -704 l-104 0 l0 704 l104 0 ZM273 791 l-64 -31 l-146 110 l86 49 l124 -128 Z" /><glyph glyph-name="Iacute" unicode="í" d="M175 706 l0 -704 l-104 0 l0 704 l104 0 ZM267 875 l-142 -122 l-62 31 l115 134 l89 -43 Z" /><glyph glyph-name="Icircumflex" unicode="î" d="M247 706 l0 -704 l-104 0 l0 704 l104 0 ZM341 818 l-37 -52 l-105 67 l-100 -69 l-36 56 l140 95 l138 -97 Z" /><glyph glyph-name="Idieresis" unicode="ï" d="M271 706 l0 -704 l-104 0 l0 704 l104 0 ZM80 782 q-17 17 -17 43 q0 26 18 43 q18 18 43 18 q25 0 43 -18 q18 -18 18 -44 q0 -25 -18 -43 q-18 -17 -43 -17 q-26 0 -44 18 ZM286 782 q-17 17 -17 43 q0 26 18 43 q18 18 43 18 q25 0 43 -18 q18 -18 18 -44 q0 -25 -18 -43 q-18 -17 -43 -17 q-26 0 -44 18 Z" /><glyph glyph-name="Ntilde" unicode="ñ" d="M583 703 l103 0 l0 -731 q-120 123 -241 244 l-142 145 q-61 63 -143 156 l6 -101 q1 -15 1 -45 l1 -45 l0 -326 l-104 0 l0 751 q198 -196 295 -295 q80 -82 231 -241 q-5 55 -5 67 l-1 30 q0 19 -1 29 l0 362 ZM575 835 q-63 -68 -123 -68 q-29 0 -58 13 q-56 27 -76 27 q-28 0 -64 -31 l-50 43 q73 65 120 65 q32 0 63 -15 q52 -27 73 -27 q29 0 66 35 l49 -42 Z" /><glyph glyph-name="Ograve" unicode="ò" d="M40 364 q5 140 100 240 q107 113 267 113 q130 0 234 -82 q135 -108 135 -283 q0 -70 -29 -137 q-44 -104 -137 -164 q-91 -60 -203 -60 q-133 0 -237 85 q-135 109 -130 288 ZM142 366 q-5 -100 56 -176 q79 -100 209 -100 q94 0 165 55 q102 79 102 207 q0 56 -22 106 q-32 73 -99 115 q-66 42 -146 42 q-94 0 -164 -55 q-95 -72 -101 -194 ZM488 791 l-65 -31 l-146 110 l87 49 l124 -128 Z" /><glyph glyph-name="Oacute" unicode="ó" d="M40 364 q5 140 100 240 q107 113 267 113 q130 0 234 -82 q135 -108 135 -283 q0 -70 -29 -137 q-44 -104 -137 -164 q-91 -60 -203 -60 q-133 0 -237 85 q-135 109 -130 288 ZM142 366 q-5 -100 56 -176 q79 -100 209 -100 q94 0 165 55 q102 79 102 207 q0 56 -22 106 q-32 73 -99 115 q-66 42 -146 42 q-94 0 -164 -55 q-95 -72 -101 -194 ZM552 875 l-142 -122 l-62 31 l115 134 l89 -43 Z" /><glyph glyph-name="Ocircumflex" unicode="ô" d="M40 364 q5 140 100 240 q107 113 267 113 q130 0 234 -82 q135 -108 135 -283 q0 -70 -29 -137 q-44 -104 -137 -164 q-91 -60 -203 -60 q-133 0 -237 85 q-135 109 -130 288 ZM142 366 q-5 -100 56 -176 q79 -100 209 -100 q94 0 165 55 q102 79 102 207 q0 56 -22 106 q-32 73 -99 115 q-66 42 -146 42 q-94 0 -164 -55 q-95 -72 -101 -194 ZM554 818 l-38 -52 l-104 67 l-100 -69 l-36 56 l140 95 l138 -97 Z" /><glyph glyph-name="Otilde" unicode="õ" d="M40 364 q5 140 100 240 q107 113 267 113 q130 0 234 -82 q135 -108 135 -283 q0 -70 -29 -137 q-44 -104 -137 -164 q-91 -60 -203 -60 q-133 0 -237 85 q-135 109 -130 288 ZM142 366 q-5 -100 56 -176 q79 -100 209 -100 q94 0 165 55 q102 79 102 207 q0 56 -22 106 q-32 73 -99 115 q-66 42 -146 42 q-94 0 -164 -55 q-95 -72 -101 -194 ZM606 835 q-58 -68 -123 -68 q-29 0 -58 13 q-56 27 -76 27 q-28 0 -63 -31 l-50 43 q71 65 119 65 q32 0 63 -15 q54 -27 73 -27 q29 0 66 35 l49 -42 Z" /><glyph glyph-name="Odieresis" unicode="ö" d="M40 364 q5 140 100 240 q107 113 267 113 q130 0 234 -82 q135 -108 135 -283 q0 -70 -29 -137 q-44 -104 -137 -164 q-91 -60 -203 -60 q-133 0 -237 85 q-135 109 -130 288 ZM142 366 q-5 -100 56 -176 q79 -100 209 -100 q94 0 165 55 q102 79 102 207 q0 56 -22 106 q-32 73 -99 115 q-66 42 -146 42 q-94 0 -164 -55 q-95 -72 -101 -194 ZM677 642 q-18 18 -18 43 q0 25 18 43 q18 18 44 18 q25 0 43 -18 q17 -18 17 -44 q0 -25 -18 -43 q-18 -17 -43 -17 q-25 0 -43 18 ZM57 642 q-18 17 -18 43 q0 25 18 43 q18 18 43 18 q26 0 44 -18 q17 -18 17 -44 q0 -25 -18 -43 q-18 -17 -43 -17 q-26 0 -43 18 Z" /><glyph glyph-name="multiply" unicode="×" d="M334 236 l-202 -200 l-55 56 l201 200 l-201 201 l55 56 l202 -201 l200 201 l56 -56 l-200 -201 l200 -200 l-56 -56 l-200 200 Z" /><glyph glyph-name="Oslash" unicode="¯ø" d="M729 735 l57 -56 l-93 -92 q18 -26 26 -39 q57 -90 57 -190 q0 -147 -98 -251 q-108 -117 -275 -117 q-36 0 -74 8 q-65 14 -155 73 l-90 -89 l-55 54 l92 91 l-21 29 q-59 89 -59 191 q0 149 95 253 q106 117 277 117 q24 0 64 -5 q74 -12 159 -69 l93 92 ZM565 567 l-37 21 q-57 27 -114 27 q-100 0 -176 -60 q-96 -77 -96 -202 q0 -26 5 -52 q9 -42 45 -102 l373 368 ZM244 142 q81 -51 160 -51 q105 0 181 65 q90 79 90 200 q0 28 -6 54 q-10 42 -49 106 l-376 -374 Z" /><glyph glyph-name="Ugrave" unicode="ù" d="M155 703 l0 -416 l3 -47 q9 -92 65 -129 q41 -27 93 -27 q46 0 80 21 q67 41 71 178 l0 420 l106 0 l0 -451 l-1 -17 q-4 -85 -42 -140 q-73 -106 -220 -106 q-81 0 -147 42 q-70 44 -96 119 q-12 33 -14 111 l0 442 l102 0 ZM394 791 l-64 -31 l-147 110 l87 49 l124 -128 Z" /><glyph glyph-name="Uacute" unicode="ú" d="M155 703 l0 -416 l3 -47 q9 -92 65 -129 q41 -27 93 -27 q46 0 80 21 q67 41 71 178 l0 420 l106 0 l0 -451 l-1 -17 q-4 -85 -42 -140 q-73 -106 -220 -106 q-81 0 -147 42 q-70 44 -96 119 q-12 33 -14 111 l0 442 l102 0 ZM458 875 l-142 -122 l-62 31 l115 134 l89 -43 Z" /><glyph glyph-name="Ucircumflex" unicode="û" d="M155 703 l0 -416 l3 -47 q9 -92 65 -129 q41 -27 93 -27 q46 0 80 21 q67 41 71 178 l0 420 l106 0 l0 -451 l-1 -17 q-4 -85 -42 -140 q-73 -106 -220 -106 q-81 0 -147 42 q-70 44 -96 119 q-12 33 -14 111 l0 442 l102 0 ZM460 818 l-38 -52 l-104 67 l-100 -69 l-36 56 l140 95 l138 -97 Z" /><glyph glyph-name="Udieresis" unicode="ü" d="M347 654 q-18 19 -18 43 q1 25 19 42 q17 17 42 17 q25 0 42 -18 q17 -17 17 -42 q0 -25 -18 -42 q-17 -18 -42 -18 q-24 0 -42 18 ZM194 654 q-17 18 -17 43 q0 25 18 42 q17 17 42 17 q25 0 42 -18 q18 -17 18 -42 q0 -25 -18 -42 q-18 -18 -43 -18 q-24 0 -42 18 ZM155 703 l0 -416 l3 -47 q9 -92 65 -129 q41 -27 93 -27 q46 0 80 21 q67 41 71 178 l0 420 l106 0 l0 -451 l-1 -17 q-4 -85 -42 -140 q-73 -106 -220 -106 q-81 0 -147 42 q-70 44 -96 119 q-12 33 -14 111 l0 442 l102 0 Z" /><glyph glyph-name="germandbls" unicode="ß" d="M229 73 q115 10 150 74 q21 39 21 79 q0 44 -27 86 q-26 40 -63 52 q-24 8 -81 8 l0 89 q80 12 105 53 q14 25 14 55 q0 30 -15 55 q-28 46 -89 46 q-65 0 -90 -57 q-6 -15 -10 -44 l0 -569 l-95 0 l0 325 l-38 0 l0 87 l38 0 q-2 68 0 134 q2 81 30 124 q55 85 164 85 q148 0 188 -125 q10 -34 10 -67 q0 -40 -16 -72 q-14 -27 -61 -68 q55 -20 78 -53 q47 -65 47 -149 q0 -87 -58 -153 q-26 -30 -62 -50 q-41 -22 -140 -32 l0 87 Z" /><glyph glyph-name="agrave" unicode="à" d="M359 431 l94 0 l0 -432 l-94 0 l0 56 l-29 -25 q-49 -40 -109 -40 q-57 0 -107 36 q-85 62 -85 189 q0 47 15 88 q21 61 72 99 q52 40 114 40 q60 0 129 -61 l0 50 ZM124 221 q-3 -36 11 -72 q30 -72 108 -72 q37 0 65 18 q59 36 59 125 q0 65 -38 102 q-34 33 -81 33 q-27 0 -53 -13 q-67 -34 -71 -121 ZM325 534 l-65 -22 l-155 145 l95 35 l125 -158 Z" /><glyph glyph-name="aacute" unicode="á" d="M359 431 l94 0 l0 -432 l-94 0 l0 56 l-29 -25 q-49 -40 -109 -40 q-57 0 -107 36 q-85 62 -85 189 q0 47 15 88 q21 61 72 99 q52 40 114 40 q60 0 129 -61 l0 50 ZM124 221 q-3 -36 11 -72 q30 -72 108 -72 q37 0 65 18 q59 36 59 125 q0 65 -38 102 q-34 33 -81 33 q-27 0 -53 -13 q-67 -34 -71 -121 ZM421 655 l-161 -145 l-61 25 l127 160 l95 -40 Z" /><glyph glyph-name="acircumflex" unicode="â" d="M359 431 l94 0 l0 -432 l-94 0 l0 56 l-29 -25 q-49 -40 -109 -40 q-57 0 -107 36 q-85 62 -85 189 q0 47 15 88 q21 61 72 99 q52 40 114 40 q60 0 129 -61 l0 50 ZM124 221 q-3 -36 11 -72 q30 -72 108 -72 q37 0 65 18 q59 36 59 125 q0 65 -38 102 q-34 33 -81 33 q-27 0 -53 -13 q-67 -34 -71 -121 ZM404 554 l-51 -48 l-94 92 l-93 -91 l-47 44 l141 141 l144 -138 Z" /><glyph glyph-name="atilde" unicode="ã" d="M359 431 l94 0 l0 -432 l-94 0 l0 56 l-29 -25 q-49 -40 -109 -40 q-57 0 -107 36 q-85 62 -85 189 q0 47 15 88 q21 61 72 99 q52 40 114 40 q60 0 129 -61 l0 50 ZM124 221 q-3 -36 11 -72 q30 -72 108 -72 q37 0 65 18 q59 36 59 125 q0 65 -38 102 q-34 33 -81 33 q-27 0 -53 -13 q-67 -34 -71 -121 ZM445 607 q-12 -12 -17 -18 q-57 -52 -105 -52 q-34 2 -63 16 q-50 24 -70 24 q-27 0 -67 -32 l-50 42 l17 18 q49 49 103 49 q30 0 62 -16 q50 -25 71 -25 q30 0 67 35 l52 -41 Z" /><glyph glyph-name="adieresis" unicode="ä" d="M361 434 l92 0 l0 -433 l-92 0 l0 57 l-30 -27 q-48 -39 -105 -39 q-43 0 -85 22 q-107 57 -107 204 q0 53 17 95 q23 57 72 93 q51 38 111 38 q58 0 127 -59 l0 49 ZM127 232 q-3 -32 4 -59 q12 -40 43 -66 q33 -27 73 -27 q27 0 51 12 q71 33 71 133 q0 27 -9 52 q-28 79 -109 79 q-51 0 -86 -37 q-33 -34 -38 -87 ZM303 554 q-17 19 -17 43 q0 24 18 42 q18 17 42 17 q25 0 43 -18 q17 -17 17 -42 q0 -25 -18 -43 q-17 -17 -42 -17 q-25 0 -43 18 ZM132 554 q-17 19 -17 43 q0 24 18 42 q18 17 42 17 q25 0 43 -18 q17 -17 17 -42 q0 -25 -18 -43 q-17 -17 -42 -17 q-25 0 -43 18 Z" /><glyph glyph-name="aring" unicode="å" d="M359 434 l93 0 l0 -432 l-93 0 l0 55 q-20 -18 -31 -27 q-48 -39 -106 -39 q-36 0 -70 16 q-120 54 -120 208 q0 94 50 156 q60 74 151 74 q58 0 126 -61 l0 50 ZM126 228 q-3 -28 5 -55 q11 -40 41 -66 q32 -28 73 -28 q21 1 45 9 q77 30 77 135 q0 77 -56 115 q-28 19 -60 19 q-24 0 -46 -10 q-71 -30 -79 -119 ZM233 570 q15 -11 28 -11 q39 0 39 40 q-2 38 -40 38 q-38 0 -38 -39 q0 -16 11 -28 ZM196 535 q-26 23 -26 64 q0 37 27 64 q26 26 64 26 q37 0 64 -27 q26 -26 26 -64 q0 -38 -27 -64 q-26 -26 -64 -26 q-37 0 -64 27 Z" /><glyph glyph-name="ae" unicode="¾æ" d="M90 422 q87 20 129 20 q69 0 108 -28 q15 -12 41 -40 q22 23 35 33 q48 35 121 35 q39 -1 70 -13 q87 -32 117 -125 q10 -30 14 -108 l-330 0 q4 -29 7 -40 q9 -45 49 -69 q34 -17 64 -17 q26 0 45 8 q44 16 90 82 l68 -40 q-21 -34 -42 -58 q-67 -77 -165 -77 q-34 0 -57 9 q-45 14 -101 75 q-27 -33 -32 -38 q-45 -44 -129 -44 q-61 0 -104 31 q-60 45 -60 119 q0 65 48 107 q46 40 110 39 q48 0 124 -39 q2 57 -19 84 q-31 35 -86 35 q-38 0 -115 -27 l0 86 ZM123 157 q-4 -8 -4 -22 q0 -32 26 -51 q23 -17 56 -17 q59 0 81 31 q13 16 13 36 q0 17 -8 30 q-23 44 -80 44 q-66 0 -84 -51 ZM629 274 q-15 38 -32 57 q-27 29 -80 29 q-27 0 -49 -9 q-40 -16 -70 -77 l231 0 Z" /><glyph glyph-name="ccedilla" unicode="ç" d="M370 324 q-64 34 -107 34 q-31 0 -58 -13 q-81 -40 -81 -135 q0 -50 30 -86 q37 -46 104 -46 q46 0 113 36 l0 -99 q-83 -26 -118 -26 q-81 0 -143 50 q-82 65 -82 177 q0 92 58 155 q68 74 173 74 q40 0 111 -23 l0 -98 ZM328 -65 l-97 -130 l-56 27 l84 132 l69 -29 Z" /><glyph glyph-name="egrave" unicode="è" d="M126 199 l6 -31 q24 -94 110 -94 q25 0 46 8 q38 14 81 74 q34 -16 51 -26 l23 -13 q-19 -32 -34 -50 q-63 -77 -173 -77 q-75 0 -129 46 q-77 64 -77 174 q0 91 48 154 q59 80 165 80 q102 0 157 -66 q19 -23 35 -65 q10 -29 14 -62 q1 -10 1 -51 l-324 -1 ZM346 273 q-1 19 -8 36 q-25 56 -96 56 q-40 0 -71 -22 q-22 -16 -41 -71 l216 1 ZM314 534 l-64 -22 l-155 145 l95 35 l124 -158 Z" /><glyph glyph-name="eacute" unicode="é" d="M126 199 l6 -31 q24 -94 110 -94 q25 0 46 8 q38 14 81 74 q34 -16 51 -26 l23 -13 q-19 -32 -34 -50 q-63 -77 -173 -77 q-75 0 -129 46 q-77 64 -77 174 q0 91 48 154 q59 80 165 80 q102 0 157 -66 q19 -23 35 -65 q10 -29 14 -62 q1 -10 1 -51 l-324 -1 ZM346 273 q-1 19 -8 36 q-25 56 -96 56 q-40 0 -71 -22 q-22 -16 -41 -71 l216 1 ZM410 655 l-161 -145 l-60 25 l127 160 l94 -40 Z" /><glyph glyph-name="ecircumflex" unicode="ê" d="M126 199 l6 -31 q24 -94 110 -94 q25 0 46 8 q38 14 81 74 q34 -16 51 -26 l23 -13 q-19 -32 -34 -50 q-63 -77 -173 -77 q-75 0 -129 46 q-77 64 -77 174 q0 91 48 154 q59 80 165 80 q102 0 157 -66 q19 -23 35 -65 q10 -29 14 -62 q1 -10 1 -51 l-324 -1 ZM346 273 q-1 19 -8 36 q-25 56 -96 56 q-40 0 -71 -22 q-22 -16 -41 -71 l216 1 ZM394 554 l-51 -48 l-95 92 l-92 -91 l-47 44 l141 141 l144 -138 Z" /><glyph glyph-name="edieresis" unicode="ë" d="M126 199 l6 -31 q24 -94 110 -94 q25 0 46 8 q38 14 81 74 q34 -16 51 -26 l23 -13 q-19 -32 -34 -50 q-63 -77 -173 -77 q-75 0 -129 46 q-77 64 -77 174 q0 91 48 154 q59 80 165 80 q102 0 157 -66 q19 -23 35 -65 q10 -29 14 -62 q1 -10 1 -51 l-324 -1 ZM346 273 q-1 19 -8 36 q-25 56 -96 56 q-40 0 -71 -22 q-22 -16 -41 -71 l216 1 ZM291 554 q-18 18 -18 43 q0 25 18 42 q18 17 43 17 q25 0 42 -18 q18 -17 18 -42 q-1 -25 -18 -43 q-18 -17 -43 -17 q-24 0 -42 18 ZM120 554 q-18 18 -18 43 q0 25 18 42 q18 17 43 17 q25 0 42 -18 q18 -17 18 -42 q-1 -25 -18 -43 q-18 -17 -43 -17 q-24 0 -42 18 Z" /><glyph glyph-name="igrave" unicode="ì" d="M240 433 l0 -433 l-92 0 l0 433 l92 0 ZM267 534 l-64 -22 l-155 145 l95 35 l124 -158 Z" /><glyph glyph-name="iacute" unicode="í" d="M146 433 l0 -433 l-92 0 l0 433 l92 0 ZM270 655 l-162 -145 l-60 25 l127 160 l95 -40 Z" /><glyph glyph-name="icircumflex" unicode="î" d="M226 433 l0 -433 l-92 0 l0 433 l92 0 ZM333 554 l-51 -48 l-95 92 l-92 -91 l-47 44 l141 141 l144 -138 Z" /><glyph glyph-name="idieresis" unicode="ï" d="M233 433 l0 -433 l-92 0 l0 433 l92 0 ZM237 554 q-18 18 -18 43 q1 25 19 42 q17 17 42 17 q25 0 43 -18 q17 -17 17 -42 q0 -25 -18 -43 q-18 -17 -43 -17 q-24 0 -42 18 ZM66 554 q-18 18 -18 43 q1 25 19 42 q17 17 42 17 q25 0 43 -18 q17 -17 17 -42 q0 -25 -18 -43 q-18 -17 -43 -17 q-24 0 -42 18 Z" /><glyph glyph-name="ntilde" unicode="ñ" d="M142 433 l0 -37 q61 49 123 49 q62 0 104 -45 q37 -39 41 -128 l0 -272 l-92 0 l0 252 q-2 68 -31 90 q-22 15 -50 15 q-71 0 -91 -69 q-5 -18 -5 -46 l0 -242 l-93 0 l0 433 l94 0 ZM424 607 l-17 -18 q-57 -52 -105 -52 q-33 1 -63 16 q-50 24 -70 24 q-27 0 -67 -32 l-50 42 l17 18 q49 49 103 49 q30 0 63 -16 q48 -25 70 -25 q30 0 67 35 l52 -41 Z" /><glyph glyph-name="ograve" unicode="ò" d="M34 239 q3 38 22 79 q61 126 209 126 q90 0 153 -53 q77 -67 77 -174 q0 -48 -21 -93 q-60 -135 -211 -135 q-88 0 -152 55 q-87 76 -77 195 ZM128 242 q-6 -31 3 -65 q13 -44 50 -72 q38 -27 83 -27 q29 0 57 13 q82 36 82 121 q0 28 -11 54 q-39 91 -128 91 q-50 0 -89 -33 q-38 -32 -47 -82 ZM335 534 l-64 -22 l-156 145 l96 35 l124 -158 Z" /><glyph glyph-name="oacute" unicode="ó" d="M34 239 q3 38 22 79 q61 126 209 126 q90 0 153 -53 q77 -67 77 -174 q0 -48 -21 -93 q-60 -135 -211 -135 q-88 0 -152 55 q-87 76 -77 195 ZM128 242 q-6 -31 3 -65 q13 -44 50 -72 q38 -27 83 -27 q29 0 57 13 q82 36 82 121 q0 28 -11 54 q-39 91 -128 91 q-50 0 -89 -33 q-38 -32 -47 -82 ZM431 655 l-161 -145 l-60 25 l127 160 l94 -40 Z" /><glyph glyph-name="ocircumflex" unicode="ô" d="M34 239 q3 38 22 79 q61 126 209 126 q90 0 153 -53 q77 -67 77 -174 q0 -48 -21 -93 q-60 -135 -211 -135 q-88 0 -152 55 q-87 76 -77 195 ZM128 242 q-6 -31 3 -65 q13 -44 50 -72 q38 -27 83 -27 q29 0 57 13 q82 36 82 121 q0 28 -11 54 q-39 91 -128 91 q-50 0 -89 -33 q-38 -32 -47 -82 ZM414 554 l-50 -48 l-95 92 l-93 -91 l-46 44 l141 141 l143 -138 Z" /><glyph glyph-name="otilde" unicode="õ" d="M34 239 q3 38 22 79 q61 126 209 126 q90 0 153 -53 q77 -67 77 -174 q0 -48 -21 -93 q-60 -135 -211 -135 q-88 0 -152 55 q-87 76 -77 195 ZM128 242 q-6 -31 3 -65 q13 -44 50 -72 q38 -27 83 -27 q29 0 57 13 q82 36 82 121 q0 28 -11 54 q-39 91 -128 91 q-50 0 -89 -33 q-38 -32 -47 -82 ZM455 607 l-17 -18 q-52 -52 -105 -52 q-33 2 -62 16 q-52 24 -70 24 q-28 0 -68 -32 l-50 42 l17 18 q49 49 104 49 q29 0 62 -16 q48 -25 70 -25 q29 0 68 35 l51 -41 Z" /><glyph glyph-name="odieresis" unicode="ö" d="M33 236 q3 48 28 91 q64 115 204 115 q91 0 154 -55 q75 -67 75 -169 q0 -38 -15 -80 q-26 -69 -85 -109 q-58 -40 -131 -40 q-88 0 -153 57 q-87 75 -77 190 ZM127 233 q-6 -55 27 -98 q41 -54 109 -54 q31 0 56 12 q82 37 82 124 q0 57 -42 97 q-41 39 -97 39 q-77 0 -116 -65 q-16 -27 -19 -55 ZM302 554 q-17 19 -17 43 q0 24 18 42 q18 17 42 17 q25 0 43 -18 q17 -17 17 -42 q0 -25 -18 -43 q-17 -17 -42 -17 q-23 0 -43 18 ZM133 554 q-17 17 -17 43 q0 25 18 42 q17 17 42 17 q25 0 43 -18 q17 -17 17 -42 q0 -25 -18 -43 q-18 -17 -43 -17 q-24 0 -42 18 Z" /><glyph glyph-name="divide" unicode="÷" d="M391 145 q0 -24 -16 -40 q-17 -16 -41 -15 q-23 0 -40 16 q-16 16 -16 39 q0 24 17 41 q16 16 40 16 q24 0 40 -16 q16 -17 16 -41 ZM391 434 q0 -23 -16 -39 q-17 -16 -40 -16 q-24 1 -40 16 q-17 16 -17 40 q0 24 17 41 q16 16 40 16 q24 -1 40 -17 q16 -17 16 -41 ZM0 251 l0 79 l667 0 l0 -79 l-667 0 Z" /><glyph glyph-name="oslash" unicode="ø" d="M475 474 l45 -42 l-75 -73 q47 -72 47 -138 q0 -90 -58 -156 q-66 -78 -176 -78 q-64 0 -138 48 l-72 -72 l-41 42 l70 73 q-46 76 -46 138 q0 50 20 95 q60 135 215 135 q69 0 138 -44 l71 72 ZM336 333 q-33 23 -71 23 q-33 0 -60 -13 q-80 -38 -80 -133 q0 -29 20 -67 l191 190 ZM185 103 q36 -23 73 -23 q49 0 91 32 q50 40 50 106 q0 35 -22 73 l-192 -188 Z" /><glyph glyph-name="ugrave" unicode="ù" d="M137 206 q0 -10 2 -32 q3 -59 33 -80 q26 -17 56 -17 q26 0 47 12 q39 23 43 96 l0 247 l93 0 l0 -242 q-4 -92 -35 -133 q-51 -68 -151 -68 q-88 0 -138 54 q-37 41 -41 152 l0 237 l91 0 l0 -226 ZM304 534 l-64 -22 l-156 145 l96 35 l124 -158 Z" /><glyph glyph-name="uacute" unicode="ú" d="M137 206 q0 -10 2 -32 q3 -59 33 -80 q26 -17 56 -17 q26 0 47 12 q39 23 43 96 l0 247 l93 0 l0 -242 q-4 -92 -35 -133 q-51 -68 -151 -68 q-88 0 -138 54 q-37 41 -41 152 l0 237 l91 0 l0 -226 ZM400 655 l-161 -145 l-60 25 l127 160 l94 -40 Z" /><glyph glyph-name="ucircumflex" unicode="û" d="M137 206 q0 -10 2 -32 q3 -59 33 -80 q26 -17 56 -17 q26 0 47 12 q39 23 43 96 l0 247 l93 0 l0 -242 q-4 -92 -35 -133 q-51 -68 -151 -68 q-88 0 -138 54 q-37 41 -41 152 l0 237 l91 0 l0 -226 ZM383 554 l-51 -48 l-94 92 l-93 -91 l-46 44 l141 141 l143 -138 Z" /><glyph glyph-name="udieresis" unicode="ü" d="M144 430 l0 -239 q0 -74 37 -97 q20 -14 49 -14 q25 0 48 12 q38 20 42 98 l0 240 l95 0 l0 -243 q-4 -62 -13 -87 q-39 -111 -175 -111 q-124 0 -161 94 q-11 26 -17 97 l0 250 l95 0 ZM275 554 q-17 19 -17 43 q0 24 18 42 q18 17 42 17 q25 0 43 -18 q17 -17 17 -42 q0 -25 -18 -43 q-17 -17 -42 -17 q-23 0 -43 18 ZM104 554 q-17 19 -17 43 q0 24 18 42 q18 17 42 17 q25 0 43 -18 q17 -17 17 -42 q0 -25 -18 -43 q-17 -17 -42 -17 q-25 0 -43 18 Z" /><glyph glyph-name="ydieresis" unicode="ÿ" d="M253 170 l127 262 l105 0 l-335 -660 l-107 0 l159 304 l-203 356 l105 0 l149 -262 ZM291 554 q-18 18 -18 43 q0 25 18 42 q18 17 43 17 q25 0 42 -18 q18 -17 18 -42 q-1 -25 -18 -43 q-18 -17 -43 -17 q-24 0 -42 18 ZM120 554 q-18 18 -18 43 q0 25 18 42 q18 17 43 17 q25 0 42 -18 q18 -17 18 -42 q-1 -25 -18 -43 q-18 -17 -43 -17 q-24 0 -42 18 Z" /><glyph glyph-name="dotlessi" unicode="&#x131;" d="M140 433 l0 -433 l-92 0 l0 433 l92 0 Z" /><glyph glyph-name="OE" unicode="&#x152;" d="M670 703 l387 0 l0 -98 l-288 0 l0 -178 l287 0 l0 -92 l-287 0 l0 -238 l286 0 l0 -97 l-387 0 l0 113 q-26 -28 -41 -41 q-95 -81 -225 -81 q-77 0 -152 33 q-96 44 -153 135 q-57 91 -57 198 q0 133 84 232 q108 129 272 129 q126 0 222 -70 q14 -10 32 -28 l20 -19 l0 102 ZM150 362 q-6 -96 58 -171 q81 -97 203 -97 q50 0 101 22 q71 31 115 96 q45 65 45 142 q0 46 -18 91 q-31 77 -97 123 q-67 46 -148 46 q-92 0 -164 -59 q-90 -76 -95 -193 Z" /><glyph glyph-name="oe" unicode="&#x153;" d="M492 194 q7 -43 29 -71 q41 -53 109 -53 q64 0 112 49 q12 11 34 41 l72 -38 q-22 -35 -37 -53 q-69 -80 -177 -80 q-125 1 -192 108 q-8 -16 -15 -25 q-60 -83 -171 -83 q-49 0 -97 21 q-127 55 -127 206 q0 88 52 152 q67 78 172 78 q77 0 137 -49 q18 -15 55 -61 q11 21 22 35 q57 75 159 75 q71 -1 128 -40 q56 -39 79 -105 q14 -40 18 -106 l-362 -1 ZM125 228 q-3 -29 7 -58 q31 -94 129 -94 q58 0 98 41 q41 41 41 100 q0 60 -39 100 q-40 40 -99 40 q-29 0 -54 -11 q-76 -32 -83 -118 ZM756 272 q-9 25 -17 36 q-36 56 -109 56 q-71 0 -110 -58 q-7 -11 -18 -34 l254 0 Z" /><glyph glyph-name="Ydieresis" unicode="&#x178;" d="M280 416 q54 94 81 139 q16 26 46 78 q17 28 38 70 l124 0 l-117 -195 l-120 -204 l0 -304 l-99 0 l0 304 l-55 88 l-128 223 q-44 73 -53 89 l125 0 l158 -288 ZM144 782 q-17 17 -17 43 q0 26 18 43 q18 18 43 18 q25 0 43 -18 q18 -18 18 -44 q0 -25 -18 -43 q-18 -17 -44 -17 q-25 0 -43 18 ZM350 782 q-17 17 -17 43 q0 26 18 43 q18 18 43 18 q25 0 43 -18 q18 -18 18 -44 q0 -25 -18 -43 q-18 -17 -44 -17 q-25 0 -43 18 Z" /><glyph glyph-name="circumflex" unicode="&#x2c6;" d="M196 554 l-51 -48 l-95 92 l-92 -91 l-47 44 l141 141 l144 -138 Z" /><glyph glyph-name="caron" unicode="&#x2c7;" d="M55 597 l94 92 l48 -44 l-145 -142 l-141 138 l48 47 l96 -91 Z" /><glyph glyph-name="tilde" unicode="&#x2dc;" d="M235 607 q-5 -6 -17 -18 q-52 -52 -105 -52 q-33 2 -62 16 q-52 24 -70 24 q-28 0 -68 -32 l-49 42 l8 9 q6 6 8 9 q49 49 104 49 q29 0 62 -16 q50 -25 70 -25 q29 0 68 35 l51 -41 Z" /><glyph glyph-name="endash" unicode="ð&#x2013;" d="M509 264 l0 -69 l-475 0 l0 69 l475 0 Z" /><glyph glyph-name="emdash" unicode="&#x2014;" d="M0 253 l0 79 l667 0 l0 -79 l-667 0 Z" /><glyph glyph-name="quoteleft" unicode="&#x2018;" d="M202 686 l-104 -265 l-93 34 l130 260 l67 -29 Z" /><glyph glyph-name="quoteright" unicode="&#x2019;" d="M144 700 l0 -67 q0 -68 -52 -129 l-33 32 q24 34 38 77 l-39 5 l0 83 l86 -1 Z" /><glyph glyph-name="quotesinglbase" unicode="&#x201a;" d="M205 94 l-165 -231 l-61 36 l140 248 l86 -53 Z" /><glyph glyph-name="quotedblleft" unicode="&#x201c;" d="M206 691 l-109 -267 l-94 39 l136 254 l67 -26 ZM356 687 l-108 -266 l-92 42 l134 252 l66 -28 Z" /><glyph glyph-name="quotedblright" unicode="&#x201d;" d="M203 679 l-129 -258 l-68 28 l101 268 l96 -38 ZM358 678 l-130 -257 l-68 28 l101 267 l97 -38 Z" /><glyph glyph-name="quotedblbase" unicode="&#x201e;" d="M198 94 l-133 -250 l-66 26 l106 263 l93 -39 ZM349 92 l-133 -251 l-66 27 l107 262 l92 -38 Z" /><glyph glyph-name="dagger" unicode=" &#x2020;" d="M200 403 l0 303 l101 0 l0 -302 l184 0 l0 -85 l-185 0 l0 -581 l-102 0 l0 581 l-185 0 l0 84 l187 0 Z" /><glyph glyph-name="bullet" unicode="¥&#x2022;" d="M298 353 q0 -27 -11 -55 q-34 -75 -117 -75 q-55 0 -93 37 q-40 38 -40 93 q0 24 10 48 q34 82 123 82 q54 0 91 -38 q36 -37 37 -92 Z" /><glyph glyph-name="ellipsis" unicode="&#x2026;" d="M890 51 q0 -24 -16 -40 q-16 -17 -40 -17 q-24 0 -40 17 q-17 16 -17 40 q0 23 17 40 q17 16 40 16 q24 0 40 -16 q16 -17 16 -40 ZM557 51 q0 -24 -16 -40 q-17 -17 -41 -17 q-23 0 -40 17 q-16 16 -16 40 q0 13 4 22 q15 34 53 34 q23 0 40 -16 q16 -17 16 -40 ZM223 51 q0 -24 -16 -40 q-16 -17 -40 -17 q-24 0 -40 17 q-17 16 -17 40 q0 10 4 21 q15 35 54 35 q23 0 39 -16 q16 -17 16 -40 Z" /><glyph glyph-name="fraction" unicode="&#x2044;" d="M335 701 l-489 -700 l-62 0 l486 700 l65 0 Z" /><glyph glyph-name="trademark" unicode="ª&#x2122;" d="M580 374 l2 206 q0 34 3 67 q-6 -24 -17 -56 l-67 -217 l-51 0 l-85 272 q4 -29 4 -66 l3 -206 l-57 0 l0 332 l79 0 l83 -262 l81 262 l79 0 l0 -332 l-57 0 ZM124 374 l0 283 l-107 0 l0 49 l270 0 l0 -49 l-104 0 l0 -283 l-59 0 Z" /><glyph glyph-name="minus" unicode="&#x2212;" d="M0 253 l0 79 l667 0 l0 -79 l-667 0 Z" /><glyph glyph-name="Acute" unicode="&#xf6c9;" d="M187 875 l-142 -122 l-61 31 l114 134 l89 -43 Z" /><glyph glyph-name="Caron" unicode="&#xf6ca;" d="M55 842 l103 71 l36 -57 l-141 -95 l-138 96 l35 53 l105 -68 Z" /><glyph glyph-name="Dieresis" unicode="&#xf6cb;" d="M-96 782 q-17 17 -17 43 q0 26 18 43 q18 18 43 18 q25 0 43 -18 q18 -18 18 -44 q0 -25 -18 -43 q-18 -17 -43 -17 q-26 0 -44 18 ZM110 782 q-17 17 -17 43 q0 26 18 43 q18 18 43 18 q25 0 43 -18 q18 -18 18 -44 q0 -25 -18 -43 q-18 -17 -43 -17 q-26 0 -44 18 Z" /><glyph glyph-name="Grave" unicode="&#xf6ce;" d="M123 791 l-64 -31 l-146 110 l86 49 l124 -128 Z" /><glyph glyph-name="uniF6DC" unicode="&#xf6dc;" d="M226 706 l0 -707 l-100 0 l0 611 l-123 0 l52 96 l171 0 Z" /><glyph glyph-name="uniFB01" unicode="þ&#xfb01;" d="M56 433 l0 159 q0 41 8 65 q29 88 139 88 q27 0 57 -6 l0 -84 q-16 3 -33 3 q-22 0 -39 -10 q-40 -23 -40 -98 l0 -117 l112 0 l0 -82 l-117 0 l0 -350 l-87 0 l0 351 l-46 0 l0 81 l46 0 ZM409 433 l0 -432 l-93 0 l0 432 l93 0 ZM319 567 q-19 19 -19 46 q0 27 20 46 q19 19 46 19 q27 0 46 -19 q19 -19 19 -46 q0 -27 -19 -46 q-20 -20 -47 -20 q-27 1 -46 20 Z" /><glyph glyph-name="uniFB02" unicode="&#xfb02;" d="M56 433 l0 159 q0 41 8 65 q29 88 139 88 q27 0 57 -6 l0 -84 q-16 3 -33 3 q-22 0 -39 -10 q-40 -23 -40 -98 l0 -117 l112 0 l0 -82 l-117 0 l0 -350 l-87 0 l0 351 l-46 0 l0 81 l46 0 ZM416 743 l0 -743 l-96 0 l0 743 l96 0 Z" /></font>
</defs>
</svg>
