<?xml version="1.0" encoding="UTF-8"?>
<svg width="15px" height="15px" viewBox="0 0 15 15" version="1.1" xmlns="http://www.w3.org/2000/svg" xmlns:xlink="http://www.w3.org/1999/xlink">
    <!-- Generator: Sketch 53.2 (72643) - https://sketchapp.com -->
    <title>形状</title>
    <desc>Created with Sketch.</desc>
    <g id="页面-1" stroke="none" stroke-width="1" fill="none" fill-rule="evenodd">
        <g id="修改" transform="translate(-1679.000000, -157.000000)" fill="#C8C8C8" fill-rule="nonzero">
            <g id="set" transform="translate(1679.306678, 157.000000)">
                <path d="M5.83837869,0.0162306689 L8.06878584,0.0195815022 C8.7612973,0.0207350789 9.32233657,0.58196168 9.32325896,1.27447349 L9.32409668,1.63804032 C9.75616062,1.81733236 10.1654464,2.04721289 10.5433859,2.32286956 L10.8420301,2.1511387 C11.4422414,1.80573138 12.208771,2.01103843 12.5559881,2.61020465 L13.6739142,4.54029219 C14.0067955,5.11507263 13.8348501,5.84964823 13.2814463,6.21697196 L13.2131728,6.25885755 L12.913272,6.43184499 C12.9647913,6.90766519 12.9585085,7.39102477 12.8910727,7.87145239 L13.1030137,7.99417715 C13.679268,8.32679462 13.8963513,9.0509564 13.5981013,9.64572557 L13.5633362,9.71064823 L12.5161967,11.5242938 C12.1835793,12.1005482 11.4594175,12.3176314 10.8646483,12.0193814 L10.7993068,11.9841975 L10.5098774,11.8166552 C10.1459194,12.0785198 9.75311653,12.2977586 9.33917549,12.4700703 L9.33917549,12.9685086 C9.34003792,13.632545 8.82408473,14.1826259 8.16135296,14.2242384 L8.08135151,14.2267515 L5.85094436,14.2234006 C5.15859611,14.2222477 4.59762418,13.6612758 4.59647122,12.9689275 L4.59521465,12.3678694 C4.24955444,12.2055633 3.92034675,12.010311 3.61216009,11.7848221 L3.07770009,12.0922623 C2.47737927,12.4375991 1.710816,12.2320957 1.36374214,11.6327775 L0.245815999,9.70310882 C-0.0873335829,9.12823413 0.0846385443,8.39336069 0.63828388,8.02601018 L0.706557389,7.98412461 L1.25023221,7.67123932 C1.20834663,7.2733263 1.20625235,6.87080588 1.24646251,6.46912316 L0.6428913,6.12021627 C0.066482437,5.78773893 -0.150794456,5.06354383 0.147384892,4.46866785 L0.18256878,4.40374519 L1.22970828,2.59009957 C1.56232576,2.01384525 2.28648754,1.79676201 2.8812567,2.09501201 L2.94617936,2.1301959 L3.47226226,2.43386636 C3.81511673,2.16652715 4.18670212,1.93823744 4.58013584,1.75322568 L4.58013584,1.27489234 C4.57905183,0.610694567 5.09506513,0.0603660283 5.75795837,0.0187438037 L5.83795982,0.0162306689 L5.83837869,0.0162306689 Z M8.33769126,4.87998424 C7.76092551,4.54645995 7.07521321,4.45595369 6.43166373,4.62841018 C5.78811425,4.80086667 5.23954501,5.22213206 4.90684337,5.79937273 C4.21380645,7.00209962 4.62554756,8.5388666 5.82706958,9.23399031 C6.40382216,9.56768242 7.08959763,9.65832692 7.73324217,9.48594458 C8.37688671,9.31356225 8.92556323,8.89230402 9.2583363,8.31502068 C9.95130284,7.11218423 9.53936528,5.57538348 8.33769126,4.88040311 L8.33769126,4.87998424 Z M5.99503074,6.42723759 C6.32668967,5.85128396 7.0502908,5.63440579 7.64406605,5.93298773 L7.70898869,5.96775277 L7.77181706,6.00670635 C8.32785109,6.37357727 8.50220362,7.10989553 8.16973008,7.68715583 C8.00366659,7.9756834 7.72962795,8.18628156 7.40807798,8.27248399 C7.08652801,8.35868641 6.7438931,8.3134086 6.45577213,8.14664065 C5.85432078,7.79862682 5.64818428,7.0293629 5.99503074,6.42723759 L5.99503074,6.42723759 Z" id="形状"></path>
            </g>
        </g>
    </g>
</svg>