<?xml version="1.0" encoding="UTF-8"?>
<svg width="13px" height="15px" viewBox="0 0 13 15" version="1.1" xmlns="http://www.w3.org/2000/svg" xmlns:xlink="http://www.w3.org/1999/xlink">
    <!-- Generator: Sketch 53.2 (72643) - https://sketchapp.com -->
    <title>形状</title>
    <desc>Created with Sketch.</desc>
    <g id="页面-1" stroke="none" stroke-width="1" fill="none" fill-rule="evenodd">
        <g id="修改" transform="translate(-1251.000000, -157.000000)" fill="#707070" fill-rule="nonzero">
            <g id="bussiness-man-fill" transform="translate(1251.789083, 157.362697)">
                <path d="M8.67424189,8.49298204 L11.8282261,12.173468 C12.1474969,12.5460744 12.2206722,13.0704386 12.0156072,13.5162163 C11.8105422,13.961994 11.3647552,14.2476271 10.8740726,14.2476419 L6.69514822,14.2476419 L6.69514822,10.4779397 L5.43858082,10.4779397 L5.43858082,14.2476419 L1.25965646,14.2476419 C0.768973838,14.2476271 0.32318681,13.961994 0.118121847,13.5162163 C-0.0869431168,13.0704386 -0.0137678802,12.5460744 0.305502951,12.173468 L3.459906,8.49340089 C4.24549463,8.9709894 5.14749623,9.22286582 6.06686452,9.22137229 C7.02185575,9.22137229 7.91401861,8.95539885 8.67424189,8.49298204 Z M6.06686452,0.00654461538 C8.38020512,0.00654461538 10.2554225,1.88176204 10.2554225,4.19510266 C10.2554225,6.50844328 8.38020512,8.38366068 6.06686452,8.38366068 C3.75352392,8.38366068 1.8783065,6.50844326 1.8783065,4.19510266 C1.8783065,1.88176206 3.75352392,0.00654461538 6.06686452,0.00654461538 Z" id="形状"></path>
            </g>
        </g>
    </g>
</svg>