<?xml version="1.0" standalone="no"?><!DOCTYPE svg PUBLIC "-//W3C//DTD SVG 1.1//EN" "http://www.w3.org/Graphics/SVG/1.1/DTD/svg11.dtd"><svg t="1577698765582" class="icon" viewBox="100 110 800 800" version="1.1" xmlns="http://www.w3.org/2000/svg" p-id="1727" xmlns:xlink="http://www.w3.org/1999/xlink" width="16" height="16"><defs><style type="text/css"></style></defs><path d="M725.333333 707.669333l55.168-55.168a42.666667 42.666667 0 0 1 60.330667 60.330667L785.664 768l55.168 55.168a42.666667 42.666667 0 0 1-60.330667 60.330667L725.333333 828.330667l-55.168 55.168a42.666667 42.666667 0 0 1-60.330666-60.330667L665.002667 768l-55.168-55.168a42.666667 42.666667 0 0 1 60.330666-60.330667L725.333333 707.669333z m-265.258666-251.306666c5.973333 17.493333 9.258667 36.181333 9.258666 55.637333 0 29.226667-7.338667 56.746667-20.309333 80.768L580.266667 691.2l-51.2 68.266667-138.325334-103.722667a170.666667 170.666667 0 1 1 22.144-270.506667l143.36-86.058666a149.333333 149.333333 0 1 1 36.394667 77.653333l-132.565333 79.573333zM704 341.333333a64 64 0 1 0 0-128 64 64 0 0 0 0 128zM298.666667 597.333333a85.333333 85.333333 0 1 0 0-170.666666 85.333333 85.333333 0 0 0 0 170.666666z" p-id="1728" fill="#2980FF"></path></svg>