<?xml version="1.0" encoding="UTF-8"?>
<svg width="15px" height="15px" viewBox="0 0 15 15" version="1.1" xmlns="http://www.w3.org/2000/svg" xmlns:xlink="http://www.w3.org/1999/xlink">
    <!-- Generator: Sketch 53.2 (72643) - https://sketchapp.com -->
    <title>形状</title>
    <desc>Created with Sketch.</desc>
    <g id="页面-1" stroke="none" stroke-width="1" fill="none" fill-rule="evenodd">
        <g id="预览收藏弹出框" transform="translate(-938.000000, -581.000000)" fill="#FF4D50" fill-rule="nonzero">
            <g id="分组-17" transform="translate(921.000000, 569.276190)">
                <g id="close-circle-fill" transform="translate(17.500000, 12.500000)">
                    <g id="分组">
                        <path d="M7,0 C3.134375,0 0,3.134375 0,7 C0,10.865625 3.134375,14 7,14 C10.865625,14 14,10.865625 14,7 C14,3.134375 10.865625,0 7,0 Z M9.584375,9.659375 L8.553125,9.6546875 L7,7.803125 L5.4484375,9.653125 L4.415625,9.6578125 C4.346875,9.6578125 4.290625,9.603125 4.290625,9.5328125 C4.290625,9.503125 4.3015625,9.475 4.3203125,9.4515625 L6.353125,7.0296875 L4.3203125,4.609375 C4.3015625,4.5859375 4.290625,4.5578125 4.290625,4.528125 C4.290625,4.459375 4.346875,4.403125 4.415625,4.403125 L5.4484375,4.4078125 L7,6.259375 L8.5515625,4.409375 L9.5828125,4.4046875 C9.6515625,4.4046875 9.7078125,4.459375 9.7078125,4.5296875 C9.7078125,4.559375 9.696875,4.5875 9.678125,4.6109375 L7.6484375,7.03125 L9.6796875,9.453125 C9.6984375,9.4765625 9.709375,9.5046875 9.709375,9.534375 C9.709375,9.603125 9.653125,9.659375 9.584375,9.659375 Z" id="形状"></path>
                    </g>
                </g>
            </g>
        </g>
    </g>
</svg>