<?xml version="1.0" encoding="UTF-8"?>
<svg width="19px" height="19px" viewBox="0 0 19 19" version="1.1" xmlns="http://www.w3.org/2000/svg" xmlns:xlink="http://www.w3.org/1999/xlink">
    <!-- Generator: Sketch 53.2 (72643) - https://sketchapp.com -->
    <title>形状</title>
    <desc>Created with Sketch.</desc>
    <g id="页面-1" stroke="none" stroke-width="1" fill="none" fill-rule="evenodd">
        <g id="修改" transform="translate(-771.000000, -425.000000)" fill="#A4A4A6" fill-rule="nonzero">
            <g id="编组-14" transform="translate(372.500000, 203.000000)">
                <g id="edit-copy-2" transform="translate(397.711732, 221.313694)">
                    <path d="M4.24864349,15.8863056 C4.29614349,15.8863056 4.34364349,15.8815556 4.39114349,15.8744306 L8.38589349,15.1738056 C8.43339349,15.1643056 8.47851849,15.1429306 8.51176849,15.1073056 L18.5793935,5.0396806 C18.6720185,4.9470556 18.6720185,4.7974306 18.5793935,4.7048056 L14.6321435,0.755180604 C14.5870185,0.710055604 14.5276435,0.686305604 14.4635185,0.686305604 C14.3993935,0.686305604 14.3400185,0.710055604 14.2948935,0.755180604 L4.22726849,10.8228056 C4.19164349,10.8584306 4.17026849,10.9011806 4.16076849,10.9486806 L3.46014349,14.9434306 C3.41501849,15.2070556 3.49576849,15.4635556 3.68339349,15.6511806 C3.84014349,15.8031806 4.03726849,15.8863056 4.24864349,15.8863056 L4.24864349,15.8863056 Z M5.84939349,11.7443056 L14.4635185,3.1325556 L16.2043935,4.8734306 L7.59026849,13.4851806 L5.47889349,13.8580556 L5.84939349,11.7443056 L5.84939349,11.7443056 Z M19.0282685,17.8813056 L1.54826849,17.8813056 C1.12789349,17.8813056 0.788268493,18.2209306 0.788268493,18.6413056 L0.788268493,19.4963056 C0.788268493,19.6008056 0.873768493,19.6863056 0.978268493,19.6863056 L19.5982685,19.6863056 C19.7027685,19.6863056 19.7882685,19.6008056 19.7882685,19.4963056 L19.7882685,18.6413056 C19.7882685,18.2209306 19.4486435,17.8813056 19.0282685,17.8813056 Z" id="形状"></path>
                </g>
            </g>
        </g>
    </g>
</svg>