<?xml version="1.0" encoding="UTF-8"?>
<svg width="19px" height="19px" viewBox="0 0 19 19" version="1.1" xmlns="http://www.w3.org/2000/svg" xmlns:xlink="http://www.w3.org/1999/xlink">
    <!-- Generator: Sketch 53.2 (72643) - https://sketchapp.com -->
    <title>形状</title>
    <desc>Created with Sketch.</desc>
    <g id="页面-1" stroke="none" stroke-width="1" fill="none" fill-rule="evenodd">
        <g id="修改" transform="translate(-844.000000, -425.000000)" fill="#2980FF" fill-rule="nonzero">
            <g id="编组-14" transform="translate(372.500000, 203.000000)">
                <g id="edit-copy-3" transform="translate(471.500000, 221.313694)">
                    <path d="M3.460375,15.8863056 C3.507875,15.8863056 3.555375,15.8815556 3.602875,15.8744306 L7.597625,15.1738056 C7.645125,15.1643056 7.69025,15.1429306 7.7235,15.1073056 L17.791125,5.0396806 C17.88375,4.9470556 17.88375,4.7974306 17.791125,4.7048056 L13.843875,0.755180604 C13.79875,0.710055604 13.739375,0.686305604 13.67525,0.686305604 C13.611125,0.686305604 13.55175,0.710055604 13.506625,0.755180604 L3.439,10.8228056 C3.403375,10.8584306 3.382,10.9011806 3.3725,10.9486806 L2.671875,14.9434306 C2.62675,15.2070556 2.7075,15.4635556 2.895125,15.6511806 C3.051875,15.8031806 3.249,15.8863056 3.460375,15.8863056 L3.460375,15.8863056 Z M5.061125,11.7443056 L13.67525,3.1325556 L15.416125,4.8734306 L6.802,13.4851806 L4.690625,13.8580556 L5.061125,11.7443056 L5.061125,11.7443056 Z M18.24,17.8813056 L0.76,17.8813056 C0.339625,17.8813056 0,18.2209306 0,18.6413056 L0,19.4963056 C0,19.6008056 0.0855,19.6863056 0.19,19.6863056 L18.81,19.6863056 C18.9145,19.6863056 19,19.6008056 19,19.4963056 L19,18.6413056 C19,18.2209306 18.660375,17.8813056 18.24,17.8813056 Z" id="形状"></path>
                </g>
            </g>
        </g>
    </g>
</svg>