<?xml version="1.0" encoding="UTF-8"?>
<svg width="16px" height="22px" viewBox="0 0 16 22" version="1.1" xmlns="http://www.w3.org/2000/svg" xmlns:xlink="http://www.w3.org/1999/xlink">
    <!-- Generator: Sketch 53.2 (72643) - https://sketchapp.com -->
    <title>形状</title>
    <desc>Created with Sketch.</desc>
    <g id="页面-1" stroke="none" stroke-width="1" fill="none" fill-rule="evenodd">
        <g id="修改" transform="translate(-832.000000, -366.000000)" fill="#B5B9BC" fill-rule="nonzero">
            <g id="编组-14" transform="translate(372.500000, 203.000000)">
                <g id="tablet-copy-2" transform="translate(458.646343, 162.730261)">
                    <path d="M15.3991117,0.269739333 L2.30820256,0.269739333 C1.50592983,0.269739333 0.853657106,0.974426833 0.853657106,1.8411679 L0.853657106,20.6983108 C0.853657106,21.5650518 1.50592983,22.2697393 2.30820256,22.2697393 L15.3991117,22.2697393 C16.2013844,22.2697393 16.8536571,21.5650518 16.8536571,20.6983108 L16.8536571,1.8411679 C16.8536571,0.974426833 16.2013844,0.269739333 15.3991117,0.269739333 Z M15.2172935,20.5018822 L2.49002074,20.5018822 L2.49002074,2.03759648 L15.2172935,2.03759648 L15.2172935,20.5018822 Z M7.9445662,17.9483108 C7.9445662,18.4907333 8.35158006,18.9304536 8.85365711,18.9304536 C9.35573415,18.9304536 9.76274801,18.4907333 9.76274801,17.9483108 C9.76274801,17.4058882 9.35573415,16.9661679 8.85365711,16.9661679 C8.35158006,16.9661679 7.9445662,17.4058882 7.9445662,17.9483108 Z" id="形状"></path>
                </g>
            </g>
        </g>
    </g>
</svg>