<?xml version="1.0" encoding="UTF-8"?>
<svg width="16px" height="22px" viewBox="0 0 16 22" version="1.1" xmlns="http://www.w3.org/2000/svg" xmlns:xlink="http://www.w3.org/1999/xlink">
    <!-- Generator: Sketch 53.2 (72643) - https://sketchapp.com -->
    <title>形状</title>
    <desc>Created with Sketch.</desc>
    <g id="页面-1" stroke="none" stroke-width="1" fill="none" fill-rule="evenodd">
        <g id="修改" transform="translate(-773.000000, -366.000000)" fill="#2980FF" fill-rule="nonzero">
            <g id="编组-14" transform="translate(372.500000, 203.000000)">
                <g id="tablet-copy" transform="translate(400.211732, 162.730261)">
                    <path d="M14.833723,0.269739333 L1.74281395,0.269739333 C0.94054122,0.269739333 0.288268493,0.974426833 0.288268493,1.8411679 L0.288268493,20.6983108 C0.288268493,21.5650518 0.94054122,22.2697393 1.74281395,22.2697393 L14.833723,22.2697393 C15.6359958,22.2697393 16.2882685,21.5650518 16.2882685,20.6983108 L16.2882685,1.8411679 C16.2882685,0.974426833 15.6359958,0.269739333 14.833723,0.269739333 Z M14.6519049,20.5018822 L1.92463213,20.5018822 L1.92463213,2.03759648 L14.6519049,2.03759648 L14.6519049,20.5018822 Z M7.37917758,17.9483108 C7.37917758,18.4907333 7.78619145,18.9304536 8.28826849,18.9304536 C8.79034554,18.9304536 9.1973594,18.4907333 9.1973594,17.9483108 C9.1973594,17.4058882 8.79034554,16.9661679 8.28826849,16.9661679 C7.78619145,16.9661679 7.37917758,17.4058882 7.37917758,17.9483108 Z" id="形状"></path>
                </g>
            </g>
        </g>
    </g>
</svg>