<?xml version="1.0" encoding="UTF-8"?>
<svg width="18px" height="20px" viewBox="0 0 18 20" version="1.1" xmlns="http://www.w3.org/2000/svg" xmlns:xlink="http://www.w3.org/1999/xlink">
    <!-- Generator: Sketch 53.2 (72643) - https://sketchapp.com -->
    <title>路径</title>
    <desc>Created with Sketch.</desc>
    <g id="确定" stroke="none" stroke-width="1" fill="none" fill-rule="evenodd">
        <g id="切图标注" transform="translate(-1901.000000, -1433.000000)" fill="#F3B433" fill-rule="nonzero">
            <g id="share-copy" transform="translate(1901.000000, 1432.097626)">
                <path d="M14.9457556,15.0196666 C15.755262,15.0196666 16.4403311,15.3099145 17.000963,15.8904104 C17.5615949,16.4709062 17.8418002,17.1532454 17.8415788,17.9374278 C17.8415788,18.7530669 17.5535132,19.4511343 16.977382,20.0316301 C16.4012508,20.612126 15.724042,20.9023739 14.9457556,20.9023739 C14.1674692,20.9023739 13.4902604,20.612126 12.9141292,20.0316301 C12.337998,19.4511343 12.0499324,18.7530669 12.0499324,17.9374278 C12.0499324,17.6237549 12.0655424,17.4041168 12.0967624,17.2785138 L5.04435857,13.137294 C4.45272807,13.6707166 3.76765892,13.9374278 2.98915112,13.9374278 C2.17964471,13.9374278 1.47907626,13.6393716 0.887445754,13.043259 C0.295815251,12.4471465 5.8997767e-16,11.7412707 0,10.9256316 C-5.8997767e-16,10.1099926 0.295815251,9.40411682 0.887445754,8.80800427 C1.47907626,8.21189172 2.17964471,7.91383544 2.98915112,7.91383544 C3.76765892,7.91383544 4.45272807,8.18054673 5.04435857,8.7139693 L12.0502645,4.61993433 C11.9880459,4.30626133 11.9569366,4.07100659 11.9569366,3.91417009 C11.9569366,3.09853106 12.2527518,2.39265527 12.8443824,1.79654271 C13.4360129,1.20043016 14.1365813,0.902373886 14.9460877,0.902373886 C15.7555941,0.902373886 16.4561626,1.20043016 17.0477931,1.79654271 C17.6394236,2.39265527 17.9352388,3.09853106 17.9352388,3.91417009 C17.9352388,4.72980912 17.6394236,5.43568491 17.0477931,6.03179746 C16.4561626,6.62791001 15.7555941,6.92596629 14.9460877,6.92596629 C14.1987999,6.92596629 13.5137308,6.64363828 12.8908803,6.07898227 L5.88497429,10.220202 C5.94719292,10.533875 5.97830224,10.7691298 5.97830224,10.9259663 C5.97830224,11.0828028 5.94719292,11.3180575 5.88497429,11.6317305 L12.9842082,15.7729503 C13.5446187,15.2709843 14.1984678,15.0200013 14.9457556,15.0200013 L14.9457556,15.0196666 Z" id="路径"></path>
            </g>
        </g>
    </g>
</svg>