<?xml version="1.0" encoding="UTF-8"?>
<svg width="18px" height="17px" viewBox="0 0 18 17" version="1.1" xmlns="http://www.w3.org/2000/svg" xmlns:xlink="http://www.w3.org/1999/xlink">
    <!-- Generator: Sketch 53.2 (72643) - https://sketchapp.com -->
    <title>形状</title>
    <desc>Created with Sketch.</desc>
    <g id="页面-1" stroke="none" stroke-width="1" fill="none" fill-rule="evenodd">
        <g id="搜索结果-copy-2" transform="translate(-1147.000000, -481.000000)" fill="#5F686D" fill-rule="nonzero">
            <g id="分组-6" transform="translate(1123.500000, 471.800000)">
                <g id="download" transform="translate(24.000000, 8.800000)">
                    <g id="分组">
                        <path d="M8.45642756,11.9801136 C8.52915483,12.0732955 8.67006392,12.0732955 8.74279119,11.9801136 L11.2882457,8.75965909 C11.3814276,8.64147727 11.2973366,8.46647727 11.1450639,8.46647727 L9.46097301,8.46647727 L9.46097301,0.775568182 C9.46097301,0.675568182 9.37915483,0.59375 9.27915483,0.59375 L7.91551847,0.59375 C7.81551847,0.59375 7.73370028,0.675568182 7.73370028,0.775568182 L7.73370028,8.46420455 L6.05415483,8.46420455 C5.9018821,8.46420455 5.81779119,8.63920455 5.91097301,8.75738636 L8.45642756,11.9801136 Z M16.9177912,11.1846591 L15.5541548,11.1846591 C15.4541548,11.1846591 15.3723366,11.2664773 15.3723366,11.3664773 L15.3723366,14.8664773 L1.8268821,14.8664773 L1.8268821,11.3664773 C1.8268821,11.2664773 1.74506392,11.1846591 1.64506392,11.1846591 L0.281427557,11.1846591 C0.181427557,11.1846591 0.099609375,11.2664773 0.099609375,11.3664773 L0.099609375,15.8664773 C0.099609375,16.26875 0.424609375,16.59375 0.826882102,16.59375 L16.3723366,16.59375 C16.7746094,16.59375 17.0996094,16.26875 17.0996094,15.8664773 L17.0996094,11.3664773 C17.0996094,11.2664773 17.0177912,11.1846591 16.9177912,11.1846591 Z" id="形状"></path>
                    </g>
                </g>
            </g>
        </g>
    </g>
</svg>