<?xml version="1.0" encoding="UTF-8"?>
<svg width="20px" height="20px" viewBox="0 0 20 20" version="1.1" xmlns="http://www.w3.org/2000/svg" xmlns:xlink="http://www.w3.org/1999/xlink">
    <!-- Generator: Sketch 53.2 (72643) - https://sketchapp.com -->
    <title>形状</title>
    <desc>Created with Sketch.</desc>
    <g id="页面-1" stroke="none" stroke-width="1" fill="none" fill-rule="evenodd">
        <g id="修改" transform="translate(-834.000000, -254.000000)" fill="#B5B9BC" fill-rule="nonzero">
            <g id="编组-14" transform="translate(372.500000, 203.000000)">
                <g id="message-copy-2" transform="translate(461.000000, 50.500000)">
                    <path d="M9.42858593,10.4998744 C9.42858593,11.0916006 9.90827482,11.5712895 10.500001,11.5712895 C11.0917273,11.5712895 11.5714162,11.0916006 11.5714162,10.4998744 C11.5714162,9.90814818 11.0917273,9.4284593 10.500001,9.4284593 C9.90827482,9.4284593 9.42858593,9.90814818 9.42858593,10.4998744 Z M13.8928156,10.4998744 C13.8928156,11.0916006 14.3725045,11.5712895 14.9642307,11.5712895 C15.5559569,11.5712895 16.0356458,11.0916006 16.0356458,10.4998744 C16.0356458,9.90814818 15.5559569,9.4284593 14.9642307,9.4284593 C14.3725045,9.4284593 13.8928156,9.90814818 13.8928156,10.4998744 Z M4.96435628,10.4998744 C4.96435628,11.0916006 5.44404517,11.5712895 6.0357714,11.5712895 C6.62749763,11.5712895 7.10718651,11.0916006 7.10718651,10.4998744 C7.10718651,9.90814818 6.62749763,9.4284593 6.0357714,9.4284593 C5.44404517,9.4284593 4.96435628,9.90814818 4.96435628,10.4998744 Z M19.7230995,6.62492308 C19.2186415,5.42627742 18.4954363,4.35039807 17.5735729,3.42630253 C16.6517095,2.50443911 15.5758302,1.77900179 14.3749524,1.27677596 C13.1472892,0.761157434 11.8437342,0.5 10.500001,0.5 L10.4553587,0.5 C9.10269717,0.506696344 7.79244576,0.774550123 6.56031838,1.30132922 C5.37060118,1.8102514 4.30365029,2.5334566 3.39071533,3.45532003 C2.47778037,4.37718345 1.76127151,5.44859856 1.26574202,6.64278 C0.752355609,7.87937161 0.493430289,9.19408724 0.500126634,10.5467488 C0.506822978,12.0958365 0.877354039,13.6337636 1.57154175,15.0087464 L1.57154175,18.4015609 C1.57154175,18.9685181 2.0313574,19.4283337 2.59831457,19.4283337 L5.99336122,19.4283337 C7.36834395,20.1225214 8.90627106,20.4930525 10.4553587,20.4997488 L10.5022332,20.4997488 C11.8392699,20.4997488 13.1361287,20.2408235 14.3570955,19.7341334 C15.5512769,19.2363718 16.6249241,18.5220951 17.5445554,17.6091601 C18.4664189,16.6962252 19.1918562,15.6292743 19.6985462,14.4395571 C20.2253253,13.2074297 20.4931791,11.8971783 20.4998755,10.5445167 C20.5065718,9.18515878 20.2431823,7.86597892 19.7230995,6.62492308 L19.7230995,6.62492308 Z M16.350374,16.401586 C14.7856615,17.9506737 12.7097947,18.8033416 10.500001,18.8033416 L10.4620551,18.8033416 C9.11608985,18.7966452 7.77905307,18.461828 6.59826433,17.8323716 L6.41076669,17.7319264 L3.26794902,17.7319264 L3.26794902,14.5891088 L3.16750385,14.4016111 C2.53804747,13.2208224 2.20323024,11.8837856 2.1965339,10.5378204 C2.18760544,8.31240188 3.03804119,6.22314241 4.59828945,4.64950146 C6.1563056,3.07586051 8.23886873,2.20533573 10.4642872,2.19640727 L10.5022332,2.19640727 C11.6182906,2.19640727 12.7008663,2.4129224 13.7209427,2.84148845 C14.7164659,3.25889392 15.6093119,3.85933281 16.3771594,4.62718031 C17.1427748,5.39279569 17.7454458,6.28787374 18.1628512,7.28339695 C18.5958815,8.314634 18.8123966,9.40837026 18.8079324,10.5378204 C18.7945397,12.7610067 17.9217828,14.8435699 16.350374,16.401586 Z" id="形状"></path>
                </g>
            </g>
        </g>
    </g>
</svg>