<svg id="图层_1" data-name="图层 1" xmlns="http://www.w3.org/2000/svg" viewBox="0 0 24 24"><defs><style>.cls-1{fill:#d8d8d8;fill-opacity:0;}.cls-2{fill:#fff;}</style></defs><title>使用手册</title><rect id="矩形" class="cls-1" width="24" height="24"/><path id="形状结合" class="cls-2" d="M16,2a2,2,0,0,1,2,2V18H6.5A1.49,1.49,0,0,0,5,19.36v.14A1.49,1.49,0,0,0,6.36,21H17.73A2,2,0,0,1,16,22H6a2,2,0,0,1-2-2V4A2,2,0,0,1,6,2ZM10.91,13.36a.81.81,0,0,0-.59.23.86.86,0,0,0,0,1.17.87.87,0,0,0,.59.24.85.85,0,0,0,.59-.24.74.74,0,0,0,.25-.59.78.78,0,0,0-.24-.58A.82.82,0,0,0,10.91,13.36ZM11.12,5a3,3,0,0,0-2.31.91A3.17,3.17,0,0,0,8,8.21H9.08a2.52,2.52,0,0,1,.46-1.58A1.76,1.76,0,0,1,11.06,6a1.79,1.79,0,0,1,1.35.48,1.74,1.74,0,0,1,.46,1.28,1.66,1.66,0,0,1-.41,1.08,5.19,5.19,0,0,1-.46.5,5.61,5.61,0,0,0-1.39,1.59,2.64,2.64,0,0,0-.25,1.19v.32h1.1v-.32a1.89,1.89,0,0,1,.26-1,2.84,2.84,0,0,1,.65-.75c.6-.54,1-.9,1.11-1.06A2.61,2.61,0,0,0,14,7.66a2.48,2.48,0,0,0-.77-1.93A2.93,2.93,0,0,0,11.12,5Z"/><path id="矩形-2" data-name="矩形" class="cls-2" d="M19.5,4h0a.5.5,0,0,1,.5.5v14a.5.5,0,0,1-.5.5h0a.5.5,0,0,1-.5-.5V4.5A.5.5,0,0,1,19.5,4Z"/><path id="矩形-3" data-name="矩形" class="cls-2" d="M6.5,19h10a.5.5,0,0,1,.5.5h0a.5.5,0,0,1-.5.5H6.5a.5.5,0,0,1-.5-.5H6A.5.5,0,0,1,6.5,19Z"/><path id="形状结合-2" data-name="形状结合" class="cls-2" d="M20,19v1a2,2,0,0,1-2,2H8a2,2,0,0,1-1.73-1H18a1,1,0,0,0,1-1h0V17.27A2,2,0,0,1,20,19Z"/></svg>