<svg t="1588149969751" class="icon" viewBox="0 0 1077 1024" version="1.1" xmlns="http://www.w3.org/2000/svg" p-id="2265" width="50" height="50"><path d="M115.461928 172.085895c0 85.854316 68.949333 155.450386 153.995228 155.450386 85.045895 0 153.995228-69.59607 153.995229-155.450386 0-85.872281-68.949333-155.468351-153.995229-155.468351-85.045895 0-153.995228 69.614035-153.995228 155.468351zM0.001437 502.370807a136.245895 136.245895 0 0 0 67.260632 118.119298 133.640982 133.640982 0 0 0 134.952421 0 136.245895 136.245895 0 0 0 67.242666-118.119298 136.245895 136.245895 0 0 0-67.242666-118.101333 133.640982 133.640982 0 0 0-134.952421 0A136.245895 136.245895 0 0 0 0.001437 502.370807z m115.496421 291.462737c0 64.386246 51.703018 116.592281 115.478456 116.592281s115.514386-52.206035 115.514386-116.592281-51.738947-116.592281-115.514386-116.592281-115.478456 52.206035-115.478456 116.592281z m327.841684 128.269474c0 56.266105 45.181754 101.896982 100.944843 101.896982 55.763088 0 100.962807-45.630877 100.962807-101.914947s-45.199719-101.896982-100.962807-101.896983-100.962807 45.630877-100.962807 101.896983z m326.566176-108.813474c0 53.661193 43.097825 97.154246 96.256 97.154245 53.158175 0 96.238035-43.493053 96.238035-97.154245 0-53.661193-43.07986-97.172211-96.238035-97.172211-53.17614 0-96.256 43.511018-96.256 97.172211z m154.013193-330.338807c0 42.93614 34.492632 77.716211 76.997614 77.71621 42.504982 0 76.979649-34.798035 76.979649-77.71621 0-42.918175-34.474667-77.698246-76.979649-77.698246-42.522947 0-76.997614 34.78007-76.997614 77.698246zM808.42249 191.505965c0 20.821333 11.012491 40.061754 28.869614 50.481403 17.875088 10.419649 39.882105 10.419649 57.757193 0a58.385965 58.385965 0 0 0 28.869614-50.481403c0-32.193123-25.869474-58.29614-57.739228-58.29614-31.905684 0-57.757193 26.103018-57.757193 58.29614zM529.85856 38.87607c0 13.886877 7.347649 26.713825 19.258386 33.666246 11.910737 6.934456 26.58807 6.934456 38.498807 0a38.94793 38.94793 0 0 0 19.258386-33.666246c0-13.886877-7.329684-26.731789-19.258386-33.666245a38.193404 38.193404 0 0 0-38.498807 0 38.94793 38.94793 0 0 0-19.258386 33.666245z" p-id="2266" fill="#FF943E"></path></svg>