<?xml version="1.0" standalone="no"?><!DOCTYPE svg PUBLIC "-//W3C//DTD SVG 1.1//EN" "http://www.w3.org/Graphics/SVG/1.1/DTD/svg11.dtd"><svg t="1578914014249" class="icon" viewBox="0 0 1024 1024" version="1.1" xmlns="http://www.w3.org/2000/svg" p-id="1961" xmlns:xlink="http://www.w3.org/1999/xlink" width="16" height="16"><defs><style type="text/css"></style></defs><path d="M1024 518.322794C1024 229.221587 794.778413 0 505.677206 0 229.221587 0 0 229.221587 0 518.322794 0 794.778413 229.221587 1024 505.677206 1024 794.778413 1024 1024 794.778413 1024 518.322794z" fill="#6BD305" p-id="1962"></path><path d="M259.714032 547.628698a9.931175 9.931175 0 0 1-0.812699-12.401777l19.968-27.176635a7.964444 7.964444 0 0 1 11.280254-1.61727l132.973715 101.912381c3.559619 2.738794 9.207873 2.657524 12.686222-0.24381l329.793016-274.740825a9.175365 9.175365 0 0 1 12.019809 0.512l18.058159 17.83873a7.988825 7.988825 0 0 1-0.065016 11.459048l-360.20419 354.499047a8.02946 8.02946 0 0 1-11.483429-0.08127L259.714032 547.620571z" fill="#FFFFFF" p-id="1963"></path></svg>