<?xml version="1.0" encoding="UTF-8"?>
<svg width="14px" height="14px" viewBox="0 0 14 14" version="1.1" xmlns="http://www.w3.org/2000/svg" xmlns:xlink="http://www.w3.org/1999/xlink">
    <!-- Generator: Sketch 53.2 (72643) - https://sketchapp.com -->
    <desc>Created with Sketch.</desc>
    <g id="Page-1" stroke="none" stroke-width="1" fill="none" fill-rule="evenodd">
        <g id="切图" transform="translate(-210.000000, -346.000000)" fill="#5C5C5C" fill-rule="nonzero">
            <g id="time-circle" transform="translate(209.001612, 345.717728)">
                <path d="M8,0.282271976 C4.134375,0.282271976 1,3.41664698 1,7.28227198 C1,11.147897 4.134375,14.282272 8,14.282272 C11.865625,14.282272 15,11.147897 15,7.28227198 C15,3.41664698 11.865625,0.282271976 8,0.282271976 Z M8,13.094772 C4.790625,13.094772 2.1875,10.491647 2.1875,7.28227198 C2.1875,4.07289698 4.790625,1.46977198 8,1.46977198 C11.209375,1.46977198 13.8125,4.07289698 13.8125,7.28227198 C13.8125,10.491647 11.209375,13.094772 8,13.094772 Z" id="形状"></path>
                <path d="M10.0617161,9.30314224 L8.17307205,7.93764992 L8.17307205,4.65967367 C8.17307205,4.60139854 8.12539239,4.55371889 8.06711726,4.55371889 L7.4300641,4.55371889 C7.37178897,4.55371889 7.32410931,4.60139854 7.32410931,4.65967367 L7.32410931,8.30716724 C7.32410931,8.34160254 7.34000253,8.37338898 7.36781566,8.3932555 L9.5584309,9.99052393 C9.60611055,10.0249592 9.67233229,10.0143638 9.7067676,9.96800853 L10.085556,9.45147894 C10.1199913,9.40247485 10.1093958,9.33625311 10.0617161,9.30314224 L10.0617161,9.30314224 Z" id="路径" stroke="#5C5C5C" stroke-width="0.1"></path>
            </g>
        </g>
    </g>
</svg>