<?xml version="1.0" encoding="UTF-8"?>
<svg width="13px" height="14px" viewBox="0 0 13 13" version="1.1" xmlns="http://www.w3.org/2000/svg" xmlns:xlink="http://www.w3.org/1999/xlink">
    <!-- Generator: Sketch 53.2 (72643) - https://sketchapp.com -->
    <desc>Created with Sketch.</desc>
    <g id="蓝色" stroke="none" stroke-width="1" fill="#2980FF" fill-rule="evenodd">
        <g id="切图" transform="translate(-543.000000, -39.000000)" fill="#2980FF" fill-rule="nonzero">
            <g id="分组-7" transform="translate(469.000000, 38.240000)">
                <path d="M86.5798256,5.40474718 L82.6826736,4.81165748 L80.9405438,1.11328514 C80.8929614,1.01202592 80.8146807,0.930054172 80.717981,0.880228208 C80.4754642,0.754859654 80.1807603,0.859333449 80.059502,1.11328514 L78.3173722,4.81165748 L74.4202201,5.40474718 C74.312776,5.42082007 74.2145414,5.47386062 74.1393305,5.55422507 C73.9505358,5.7583508 73.9536056,6.08302321 74.14854,6.28232706 L76.9681809,9.16098194 L76.3020273,13.2258162 C76.2836083,13.3367192 76.3004924,13.452444 76.3511446,13.5520959 C76.4770077,13.802833 76.7747815,13.9008777 77.0142284,13.7674727 L80.5000229,11.8483694 L83.9858174,13.7674727 C84.0809822,13.8205132 84.1914961,13.8381934 84.2974054,13.8189059 C84.5644808,13.7706872 84.744066,13.5054845 84.6980185,13.2258162 L84.0318649,9.16098194 L86.8515058,6.28232706 C86.9282516,6.20356989 86.9789038,6.10070339 86.994253,5.98819315 C87.0356957,5.70691754 86.848436,5.4465367 86.5798256,5.40474718 Z M82.8453747,8.75594507 L83.3994794,12.1360742 L80.5000229,10.5416433 L77.6005663,12.1376815 L78.154671,8.75755236 L75.8093192,6.36269152 L79.0510621,5.86925375 L80.5000229,2.79450959 L81.9489837,5.86925375 L85.1907265,6.36269152 L82.8453747,8.75594507 Z" id="形状"></path>
            </g>
        </g>
    </g>
</svg>