<?xml version="1.0" encoding="UTF-8"?>
<svg width="12px" height="12px" viewBox="0 0 12 12" version="1.1" xmlns="http://www.w3.org/2000/svg" xmlns:xlink="http://www.w3.org/1999/xlink">
    <!-- Generator: Sketch 53.2 (72643) - https://sketchapp.com -->
    <desc>Created with Sketch.</desc>
    <g id="蓝色" stroke="none" stroke-width="1" fill="none" fill-rule="evenodd">
        <g id="切图" transform="translate(-370.000000, -94.000000)">
            <g id="分组-7-copy" transform="translate(148.169525, 91.863386)"></g>
            <g id="分组-7" transform="translate(131.283506, 91.863386)"></g>
            <g id="delete" transform="translate(369.151689, 93.488386)" fill="#5C5C5C" fill-rule="nonzero">
                <path d="M4.47331051,1.59161386 L4.34831051,1.59161386 C4.41706051,1.59161386 4.47331051,1.53761386 4.47331051,1.47161386 L4.47331051,1.59161386 L9.22331051,1.59161386 L9.22331051,1.47161386 C9.22331051,1.53761386 9.27956051,1.59161386 9.34831051,1.59161386 L9.22331051,1.59161386 L9.22331051,2.67161386 L10.3483105,2.67161386 L10.3483105,1.47161386 C10.3483105,0.942113864 9.89987301,0.511613864 9.34831051,0.511613864 L4.34831051,0.511613864 C3.79674801,0.511613864 3.34831051,0.942113864 3.34831051,1.47161386 L3.34831051,2.67161386 L4.47331051,2.67161386 L4.47331051,1.59161386 Z M12.3483105,2.67161386 L1.34831051,2.67161386 C1.07174801,2.67161386 0.848310508,2.88611386 0.848310508,3.15161386 L0.848310508,3.63161386 C0.848310508,3.69761386 0.904560508,3.75161386 0.973310508,3.75161386 L1.91706051,3.75161386 L2.30299801,11.5966139 C2.32799801,12.1081139 2.76862301,12.5116139 3.30143551,12.5116139 L10.3951855,12.5116139 C10.9295605,12.5116139 11.368623,12.1096139 11.393623,11.5966139 L11.7795605,3.75161386 L12.7233105,3.75161386 C12.7920605,3.75161386 12.8483105,3.69761386 12.8483105,3.63161386 L12.8483105,3.15161386 C12.8483105,2.88611386 12.624873,2.67161386 12.3483105,2.67161386 Z M10.274873,11.4316139 L3.42174801,11.4316139 L3.04362301,3.75161386 L10.652998,3.75161386 L10.274873,11.4316139 Z" id="形状"></path>
            </g>
        </g>
    </g>
</svg>