<?xml version="1.0" encoding="UTF-8"?>
<svg width="13px" height="11px" viewBox="2 0 10 11" version="1.1" xmlns="http://www.w3.org/2000/svg" xmlns:xlink="http://www.w3.org/1999/xlink">
    <!-- Generator: Sketch 53.2 (72643) - https://sketchapp.com -->
    <desc>Created with Sketch.</desc>
    <g id="蓝色" stroke="none" stroke-width="1" fill="none" fill-rule="evenodd">
        <g id="切图" transform="translate(-314.000000, -40.000000)" fill-rule="nonzero">
            <path d="M257.85058,42.328 L257.68258,41.512 C259.13458,41.38 260.41858,41.14 261.54658,40.78 L261.84658,41.596 C261.36658,41.74 260.85058,41.86 260.31058,41.968 L260.31058,43.984 L261.89458,43.984 L261.89458,44.812 L260.31058,44.812 L260.31058,45.472 C260.87458,45.928 261.45058,46.444 262.03858,47.02 L261.55858,47.74 C261.07858,47.092 260.65858,46.588 260.31058,46.216 L260.31058,51.652 L259.47058,51.652 L259.47058,46.192 C259.03858,47.32 258.47458,48.352 257.75458,49.288 L257.38258,48.352 C258.31858,47.308 258.97858,46.132 259.37458,44.812 L257.64658,44.812 L257.64658,43.984 L259.47058,43.984 L259.47058,42.124 C258.95458,42.196 258.41458,42.268 257.85058,42.328 Z M265.98658,45.256 L266.77858,45.592 C266.58658,45.892 266.37058,46.18 266.13058,46.444 L268.47058,46.444 L268.47058,47.176 C267.72658,49.276 265.54258,50.776 261.91858,51.664 L261.47458,50.86 C262.81858,50.572 263.94658,50.188 264.85858,49.732 L263.81458,48.688 L264.43858,48.256 C264.83458,48.592 265.20658,48.952 265.56658,49.336 C266.49058,48.748 267.15058,48.04 267.53458,47.224 L265.23058,47.224 C264.41458,47.788 263.40658,48.232 262.21858,48.556 L261.69058,47.776 C263.76658,47.272 265.19458,46.432 265.98658,45.256 Z M265.48258,40.828 C265.31458,41.104 265.14658,41.368 264.96658,41.62 L267.65458,41.62 L267.65458,42.34 C266.95858,44.188 265.19458,45.508 262.33858,46.3 L261.90658,45.652 C262.84258,45.412 263.64658,45.1 264.34258,44.74 C264.01858,44.284 263.73058,43.96 263.49058,43.744 L264.09058,43.3 C264.45058,43.66 264.72658,44.02 264.94258,44.38 C265.77058,43.828 266.39458,43.156 266.80258,42.388 L264.31858,42.388 C263.76658,42.952 263.13058,43.432 262.43458,43.828 L261.85858,43.132 C262.96258,42.532 263.88658,41.704 264.63058,40.648 L265.48258,40.828 Z M270.10858,41.536 L274.45258,41.536 L274.45258,42.364 L270.10858,42.364 L270.10858,41.536 Z M269.64058,44.776 L274.90858,44.776 L274.90858,45.616 L272.13658,45.616 C271.65658,47.44 271.23658,48.736 270.87658,49.528 C271.82458,49.336 272.77258,49.06 273.70858,48.712 C273.39658,48.064 273.09658,47.476 272.78458,46.924 L273.51658,46.564 C274.09258,47.596 274.63258,48.712 275.13658,49.924 L274.39258,50.308 C274.27258,49.996 274.15258,49.708 274.03258,49.432 C272.76058,49.888 271.36858,50.248 269.88058,50.512 L269.67658,49.696 C269.76058,49.672 269.82058,49.648 269.86858,49.624 C270.22858,49.132 270.70858,47.8 271.30858,45.616 L269.64058,45.616 L269.64058,44.776 Z M276.70858,40.732 L277.57258,40.732 L277.57258,43.156 L280.18858,43.156 C280.18858,46.912 280.12858,49.228 280.02058,50.116 C279.90058,51.088 279.31258,51.58 278.28058,51.58 C278.07658,51.58 277.72858,51.568 277.22458,51.544 L277.03258,50.776 C277.46458,50.8 277.84858,50.824 278.17258,50.824 C278.76058,50.824 279.10858,50.476 279.20458,49.792 C279.27658,49.156 279.32458,47.224 279.34858,43.996 L277.57258,43.996 L277.57258,44.14 C277.53658,47.596 276.69658,50.128 275.06458,51.724 L274.41658,51.16 C275.91658,49.708 276.68458,47.368 276.70858,44.14 L276.70858,43.996 L275.08858,43.996 L275.08858,43.156 L276.70858,43.156 L276.70858,40.732 Z M330.03058,41.332 L340.69858,41.332 L340.69858,42.184 L335.49058,42.184 L335.49058,43.996 C336.97858,44.74 338.49058,45.604 340.02658,46.588 L339.51058,47.356 C337.91458,46.3 336.57058,45.484 335.49058,44.908 L335.49058,51.724 L334.61458,51.724 L334.61458,42.184 L330.03058,42.184 L330.03058,41.332 Z M342.74458,41.668 L345.08458,41.668 L345.08458,40.66 L345.92458,40.66 L345.92458,41.668 L348.09658,41.668 L348.09658,42.46 L345.92458,42.46 L345.92458,43.564 L348.80458,43.564 C348.75658,42.664 348.73258,41.692 348.73258,40.636 L349.57258,40.636 C349.57258,41.728 349.59658,42.7 349.64458,43.564 L352.66858,43.564 L352.66858,44.344 L349.69258,44.344 C349.76458,45.412 349.86058,46.288 349.99258,46.96 C350.06458,47.308 350.13658,47.632 350.20858,47.944 C350.64058,47.08 350.98858,46.072 351.25258,44.944 L352.02058,45.292 C351.63658,46.792 351.14458,48.052 350.54458,49.06 C350.64058,49.336 350.74858,49.576 350.85658,49.792 C351.16858,50.38 351.42058,50.68 351.61258,50.68 C351.80458,50.668 351.97258,50.032 352.11658,48.76 L352.86058,49.156 C352.59658,50.752 352.22458,51.556 351.72058,51.556 C351.31258,51.556 350.86858,51.184 350.40058,50.464 C350.26858,50.26 350.14858,50.044 350.05258,49.816 C349.42858,50.632 348.72058,51.244 347.92858,51.676 L347.46058,50.98 C348.32458,50.5 349.06858,49.804 349.68058,48.88 C349.51258,48.352 349.35658,47.776 349.22458,47.14 C349.05658,46.348 348.92458,45.424 348.85258,44.344 L342.12058,44.344 L342.12058,43.564 L345.08458,43.564 L345.08458,42.46 L342.74458,42.46 L342.74458,41.668 Z M350.80858,40.792 C351.40858,41.464 351.87658,42.052 352.20058,42.556 L351.55258,43.012 C351.21658,42.472 350.74858,41.872 350.14858,41.212 L350.80858,40.792 Z M348.09658,49.252 L348.09658,50.02 C347.49658,50.092 346.87258,50.176 346.22458,50.248 L346.22458,51.664 L345.37258,51.664 L345.37258,50.332 C344.50858,50.416 343.59658,50.488 342.63658,50.56 L342.52858,49.756 C343.53658,49.696 344.48458,49.624 345.37258,49.552 L345.37258,48.484 L343.03258,48.484 L342.86458,47.776 C343.20058,47.368 343.51258,46.876 343.80058,46.276 L342.48058,46.276 L342.48058,45.508 L344.13658,45.508 C344.25658,45.22 344.36458,44.908 344.47258,44.596 L345.30058,44.752 C345.20458,45.016 345.10858,45.268 345.01258,45.508 L348.15658,45.508 L348.15658,46.276 L344.67658,46.276 C344.41258,46.828 344.12458,47.32 343.82458,47.752 L345.37258,47.752 L345.37258,46.816 L346.22458,46.816 L346.22458,47.752 L348.04858,47.752 L348.04858,48.484 L346.22458,48.484 L346.22458,49.468 C346.88458,49.396 347.50858,49.324 348.09658,49.252 Z M410.04658,41.8 L410.80258,41.8 L410.80258,49.252 L410.04658,49.252 L410.04658,41.8 Z M411.72658,51.604 L410.23858,51.604 L410.05858,50.836 C410.53858,50.86 411.00658,50.884 411.45058,50.884 C411.78658,50.884 411.95458,50.68 411.95458,50.284 L411.95458,40.744 L412.74658,40.744 L412.74658,50.476 C412.74658,51.22 412.39858,51.604 411.72658,51.604 Z M402.33058,45.508 L403.06258,45.508 L403.06258,41.164 L405.59458,41.164 L405.59458,45.508 L406.44658,45.508 L406.44658,41.164 L408.96658,41.164 L408.96658,45.508 L409.62658,45.508 L409.62658,46.288 L408.96658,46.288 L408.96658,50.812 C408.96658,51.364 408.67858,51.652 408.12658,51.652 L407.45458,51.652 L407.26258,50.932 C407.47858,50.956 407.69458,50.968 407.89858,50.968 C408.10258,50.968 408.21058,50.824 408.21058,50.56 L408.21058,46.288 L407.17858,46.288 L407.17858,46.456 C407.16658,48.592 406.92658,50.332 406.47058,51.652 L405.87058,51.112 C406.24258,49.9 406.43458,48.364 406.44658,46.516 L406.44658,46.288 L405.59458,46.288 L405.59458,50.788 C405.59458,51.352 405.29458,51.64 404.69458,51.64 L403.98658,51.64 L403.79458,50.92 C404.03458,50.944 404.25058,50.956 404.45458,50.956 C404.71858,50.956 404.85058,50.812 404.85058,50.536 L404.85058,46.288 L403.80658,46.288 C403.77058,48.496 403.44658,50.284 402.84658,51.652 L402.23458,51.1 C402.76258,49.828 403.03858,48.232 403.06258,46.288 L402.33058,46.288 L402.33058,45.508 Z M408.21058,45.508 L408.21058,41.908 L407.17858,41.908 L407.17858,45.508 L408.21058,45.508 Z M404.85058,45.508 L404.85058,41.908 L403.80658,41.908 L403.80658,45.508 L404.85058,45.508 Z M414.75658,41.176 L418.16458,41.176 L418.16458,41.86 C417.85258,42.952 417.46858,44.092 417.02458,45.268 C417.69658,46.312 418.05658,47.26 418.10458,48.1 C418.10458,48.628 417.98458,49 417.76858,49.228 C417.45658,49.516 416.90458,49.672 416.12458,49.672 L415.83658,48.796 C416.02858,48.82 416.18458,48.844 416.30458,48.844 C416.67658,48.82 416.92858,48.76 417.04858,48.652 C417.16858,48.544 417.24058,48.364 417.24058,48.1 C417.24058,47.296 416.88058,46.396 416.16058,45.4 C416.64058,44.14 417.01258,43 417.28858,41.992 L415.59658,41.992 L415.59658,51.712 L414.75658,51.712 L414.75658,41.176 Z M421.23658,51.58 L419.98858,51.58 L419.79658,50.74 C420.19258,50.764 420.57658,50.788 420.93658,50.788 C421.15258,50.788 421.26058,50.644 421.26058,50.368 L421.26058,47.008 L418.45258,47.008 L418.45258,46.168 L421.26058,46.168 L421.26058,44.752 L419.67658,44.752 L419.67658,43.948 L423.61258,43.948 L423.61258,44.752 L422.14858,44.752 L422.14858,46.168 L424.83658,46.168 L424.83658,47.008 L422.14858,47.008 L422.14858,50.584 C422.14858,51.244 421.83658,51.58 421.23658,51.58 Z M421.27258,40.876 L422.11258,40.876 C422.83258,42.112 423.91258,43.144 425.34058,43.972 L424.83658,44.704 C423.52858,43.948 422.48458,42.952 421.69258,41.704 C420.80458,42.976 419.73658,44.008 418.48858,44.776 L417.99658,44.044 C419.34058,43.216 420.43258,42.16 421.27258,40.876 Z M423.52858,47.824 C424.16458,48.808 424.65658,49.672 425.00458,50.416 L424.28458,50.908 C423.93658,50.104 423.45658,49.216 422.85658,48.232 L423.52858,47.824 Z M419.55658,47.884 L420.30058,48.256 C419.82058,49.3 419.26858,50.212 418.63258,50.98 L417.92458,50.476 C418.54858,49.756 419.10058,48.892 419.55658,47.884 Z" id="移动下载删除" fill="#5C5C5C"></path>
            <g id="download" transform="translate(314.836355, 40.000000)" fill="#5C5C5C">
                <path d="M6.06257587,7.828125 C6.11391276,7.8921875 6.213378,7.8921875 6.2647149,7.828125 L8.06150635,5.6140625 C8.12728175,5.5328125 8.06792346,5.4125 7.96043683,5.4125 L6.77166677,5.4125 L6.77166677,0.125 C6.77166677,0.05625 6.71391276,0 6.64332453,0 L5.68075768,0 C5.61016945,0 5.55241544,0.05625 5.55241544,0.125 L5.55241544,5.4109375 L4.36685394,5.4109375 C4.25936731,5.4109375 4.20000902,5.53125 4.26578442,5.6125 L6.06257587,7.828125 Z M12.0353031,7.28125 L11.0727363,7.28125 C11.0021481,7.28125 10.944394,7.3375 10.944394,7.40625 L10.944394,9.8125 L1.38289672,9.8125 L1.38289672,7.40625 C1.38289672,7.3375 1.32514271,7.28125 1.25455447,7.28125 L0.29198763,7.28125 C0.221399395,7.28125 0.163645384,7.3375 0.163645384,7.40625 L0.163645384,10.5 C0.163645384,10.7765625 0.393057149,11 0.677014368,11 L11.6502764,11 C11.9342336,11 12.1636454,10.7765625 12.1636454,10.5 L12.1636454,7.40625 C12.1636454,7.3375 12.1058914,7.28125 12.0353031,7.28125 Z" id="形状"></path>
            </g>
        </g>
    </g>
</svg>