<?xml version="1.0" standalone="no"?><!DOCTYPE svg PUBLIC "-//W3C//DTD SVG 1.1//EN" "http://www.w3.org/Graphics/SVG/1.1/DTD/svg11.dtd"><svg t="1591940056082" class="icon" viewBox="0 0 1024 1024" version="1.1" xmlns="http://www.w3.org/2000/svg" p-id="5243" width="14" height="14" xmlns:xlink="http://www.w3.org/1999/xlink"><defs><style type="text/css"></style></defs><path d="M825.6 545.6c0-68-55.2-123.2-123.2-123.2s-123.2 55.2-123.2 123.2 55.2 123.2 123.2 123.2 123.2-55.2 123.2-123.2z m-179.2 0c0-30.9 25.1-56 56-56s56 25.1 56 56-25.1 56-56 56-56-25.1-56-56z" fill="#5C5C5C" p-id="5244"></path><path d="M765.8 762L646 758.4l40.3-89.6h43.9l35.6 93.2z m9.8-160.4H640.4l-8.4 21.3-61.7 156.8-18 45.9h311.4l-18-45.9L784 622.9l-8.4-21.3z" fill="#5C5C5C" p-id="5245"></path><path d="M534.4 870.4c0 12.4 10 22.4 22.4 22.4H848c5.9 0 11.6-2.4 15.8-6.6 4.2-4.2 6.6-9.9 6.6-15.8V848c0-12.4-10-22.4-22.4-22.4H556.8c-5.9 0-11.6 2.4-15.8 6.6-4.2 4.2-6.6 9.9-6.6 15.8v22.4z m22.4-112H848c23.8 0 46.6 9.4 63.4 26.2 16.8 16.8 26.2 39.6 26.2 63.4v22.4c0 49.5-40.1 89.6-89.6 89.6H556.8c-23.8 0-46.6-9.4-63.4-26.2-16.8-16.8-26.2-39.6-26.2-63.4V848c0-49.5 40.1-89.6 89.6-89.6z m-300.6-41.7c-0.9-0.8-1.8-1.6-2.6-2.5-63.6-63.4-99.9-149.6-99.9-241.4 0-91.9 36.4-177.9 100-241.5 64-64.2 150.9-100.2 241.5-100 90.7-0.2 177.6 35.8 241.7 100 31.7 31.7 56.9 69.4 74.1 110.8 7.3 16.8 26.7 24.7 43.7 17.7 16.9-7 25.1-26.3 18.4-43.4-20.6-49.6-50.7-94.7-88.7-132.6C708.1 107.5 605.1 64 495.1 64c-108.4-0.1-212.5 42.9-289 119.7-76.8 76.6-119.8 180.6-119.7 289-0.2 109.4 43.6 214.1 121.5 290.9 0.8 0.8 1.6 1.5 2.5 2.3 0.1 0.1 0 0 0 0l-1.2-1.2c35 34.3 75.8 62.1 120.6 82 16.9 7.1 36.3-0.6 43.8-17.3 7.4-16.7 0.1-36.3-16.5-44.1-37.5-16.7-71.7-39.9-100.9-68.6z" fill="#5C5C5C" p-id="5246"></path><path d="M462.3 457v-13.9L316.8 588.6c-8.7 8.4-12.2 20.9-9.2 32.7 3.1 11.7 12.2 20.9 24 24 11.7 3.1 24.2-0.4 32.7-9.2l155.4-155.4c6.3-6.3 9.8-14.9 9.8-23.8V228c0-12-6.4-23.1-16.8-29.1s-23.2-6-33.6 0c-10.4 6-16.8 17.1-16.8 29.1v229z" fill="#5C5C5C" p-id="5247"></path></svg>