<?xml version="1.0" encoding="UTF-8"?>
<svg width="12px" height="11px" viewBox="0 0 12 11" version="1.1" xmlns="http://www.w3.org/2000/svg" xmlns:xlink="http://www.w3.org/1999/xlink">
    <!-- Generator: Sketch 53.2 (72643) - https://sketchapp.com -->
    <desc>Created with Sketch.</desc>
    <g id="蓝色" stroke="none" stroke-width="1" fill="none" fill-rule="evenodd">
        <g id="切图" transform="translate(-70.000000, -40.000000)" fill="#2980FF" fill-rule="nonzero">
            <path d="M74.2032086,42.4652344 L75.3887701,42.4652344 L75.3887701,47.7511719 C75.3887701,47.8199219 75.4465241,47.8761719 75.5171123,47.8761719 L76.4796791,47.8761719 C76.5502674,47.8761719 76.6080214,47.8199219 76.6080214,47.7511719 L76.6080214,42.4652344 L77.7967914,42.4652344 C77.9042781,42.4652344 77.9636364,42.3449219 77.897861,42.2636719 L76.1010695,40.0480469 C76.0497326,39.9839844 75.9502674,39.9839844 75.8989305,40.0480469 L74.102139,42.2621094 C74.0363636,42.3449219 74.0957219,42.4652344 74.2032086,42.4652344 L74.2032086,42.4652344 Z M81.8716578,47.2824219 L80.9090909,47.2824219 C80.8385027,47.2824219 80.7807487,47.3386719 80.7807487,47.4074219 L80.7807487,49.8136719 L71.2192513,49.8136719 L71.2192513,47.4074219 C71.2192513,47.3386719 71.1614973,47.2824219 71.0909091,47.2824219 L70.1283422,47.2824219 C70.057754,47.2824219 70,47.3386719 70,47.4074219 L70,50.5011719 C70,50.7777344 70.2294118,51.0011719 70.513369,51.0011719 L81.486631,51.0011719 C81.7705882,51.0011719 82,50.7777344 82,50.5011719 L82,47.4074219 C82,47.3386719 81.942246,47.2824219 81.8716578,47.2824219 Z" id="形状"></path>
        </g>
    </g>
</svg>