<?xml version="1.0" encoding="UTF-8"?>
<svg width="16px" height="16px" viewBox="0 0 16 16" version="1.1" xmlns="http://www.w3.org/2000/svg" xmlns:xlink="http://www.w3.org/1999/xlink">
    <!-- Generator: Sketch 53.2 (72643) - https://sketchapp.com -->
    <title>形状</title>
    <desc>Created with Sketch.</desc>
    <g id="Page-1" stroke="none" stroke-width="1" fill="none" fill-rule="evenodd">
        <g id="切图" transform="translate(-568.000000, -240.000000)" fill="#BABABA" fill-rule="nonzero">
            <path d="M583.102693,254.115861 L580.420149,251.433318 C582.663564,248.697491 582.507389,244.644278 579.942436,242.081163 C577.223146,239.360035 572.806136,239.360035 570.075822,242.081163 C567.354694,244.811478 567.354694,249.228487 570.075822,251.947778 C572.638937,254.51273 576.692149,254.668906 579.427976,252.425491 L582.110519,255.108034 C582.169315,255.15948 582.26302,255.15948 582.312629,255.108034 L583.102693,254.31797 C583.154139,254.268362 583.154139,254.174656 583.102693,254.115861 Z M578.968636,250.973978 C576.785855,253.154922 573.250777,253.154922 571.067995,250.973978 C568.887051,248.791196 568.887051,245.256119 571.067995,243.073337 C573.250777,240.892392 576.785855,240.892392 578.968636,243.073337 C581.149581,245.256119 581.149581,248.791196 578.968636,250.973978 Z" id="形状"></path>
        </g>
    </g>
</svg>