<?xml version="1.0" encoding="UTF-8"?>
<svg width="244px" height="29px" viewBox="0 0 244 29" version="1.1" xmlns="http://www.w3.org/2000/svg" xmlns:xlink="http://www.w3.org/1999/xlink">
    <!-- Generator: Sketch 53.2 (72643) - https://sketchapp.com -->
    <title>欢迎登录金企文库</title>
    <desc>Created with Sketch.</desc>
    <g id="Page-1" stroke="none" stroke-width="1" fill="none" fill-rule="evenodd">
        <g id="登录-copy-3" transform="translate(-1173.000000, -289.000000)" fill="#1F2329" fill-rule="nonzero">
            <g id="分组-2" transform="translate(1172.855105, 288.000000)">
                <path d="M16.23,1.45 L19.35,1.96 C19.14,3.46 18.9,4.87 18.6,6.16 L28.08,6.16 L28.08,8.23 C27.6,10.78 27.03,13.33 26.31,15.85 L23.25,14.98 C23.85,13.33 24.36,11.41 24.78,9.19 L17.79,9.19 C17.04,11.41 16.14,13.21 15.06,14.59 L12.54,12.82 C14.46,10.12 15.69,6.31 16.23,1.45 Z M11.37,24.97 C10.47,23.59 9.57,22.24 8.64,20.92 C6.96,24.16 4.95,26.74 2.58,28.66 L1.02,25.84 C3.39,24.1 5.31,21.61 6.78,18.37 C5.1,16.18 3.36,14.05 1.5,11.95 L3.57,9.97 C4.92,11.32 6.42,13.03 8.04,15.07 C8.7,12.91 9.24,10.57 9.66,8.02 L1.56,8.02 L1.56,4.99 L12.72,4.99 L12.72,7.87 C12.06,11.53 11.16,14.8 10.08,17.68 C11.22,19.21 12.39,20.86 13.65,22.66 L11.37,24.97 Z M18.99,10.84 L22.08,10.84 C22.08,12.91 21.96,14.8 21.72,16.54 C23.16,20.98 25.59,24.55 29.07,27.22 L26.97,29.68 C24.27,27.31 22.2,24.46 20.7,21.13 C19.62,24.58 17.13,27.43 13.26,29.68 L11.28,27.25 C14.58,25.27 16.74,22.9 17.76,20.11 C18.54,17.71 18.96,14.62 18.99,10.84 Z M34.7399999,2.11 C36.7499999,3.67 38.4599999,5.26 39.8699999,6.85 L37.7099999,9.01 C36.5099999,7.51 34.8299999,5.86 32.6399999,4.09 L34.7399999,2.11 Z M52.6799999,29.11 C50.9699999,29.11 49.1099999,29.08 47.0999999,29.05 C45.0599999,29.02 43.3799999,28.84 42.0899999,28.51 C40.7999999,28.15 39.7199999,27.46 38.8199999,26.44 C38.3999999,25.9 37.9799999,25.66 37.6199999,25.66 C37.0199999,25.66 35.9399999,27.07 34.3799999,29.92 L32.1599999,27.82 C33.6599999,25.36 35.0099999,23.77 36.2699999,23.11 L36.2699999,14.8 L32.2199999,14.8 L32.2199999,11.98 L39.1199999,11.98 L39.1199999,23.32 C39.2399999,23.44 39.3899999,23.56 39.5399999,23.74 C40.2899999,24.55 41.0099999,25.15 41.7299999,25.54 C42.6599999,25.96 44.0399999,26.23 45.8999999,26.29 C47.6999999,26.32 49.8299999,26.35 52.2899999,26.35 C53.6699999,26.35 55.0499999,26.32 56.4899999,26.29 C57.9299999,26.23 59.0099999,26.2 59.7899999,26.14 L59.0699999,29.11 L52.6799999,29.11 Z M41.3999999,23.35 L40.5599999,20.59 C41.0999999,20.35 41.3999999,19.84 41.3999999,19.09 L41.3999999,4.54 C43.9799999,3.73 46.0199999,2.77 47.5799999,1.69 L49.3199999,4.21 C48.0599999,5.05 46.4099999,5.86 44.3099999,6.61 L44.3099999,19.66 C45.6899999,19.27 47.0099999,18.85 48.3299999,18.4 L48.8999999,21.34 C46.7399999,22 44.2499999,22.66 41.3999999,23.35 Z M55.9199999,22.33 L53.6999999,22.33 L52.8599999,19.36 L54.9299999,19.51 C55.4699999,19.51 55.7399999,19.18 55.7399999,18.55 L55.7399999,6.19 L52.5599999,6.19 L52.5599999,25.54 L49.5599999,25.54 L49.5599999,3.43 L58.6799999,3.43 L58.6799999,19.18 C58.6799999,21.28 57.7499999,22.33 55.9199999,22.33 Z M67.8899998,14.41 L85.2299998,14.41 L85.2299998,22.21 L67.8899998,22.21 L67.8899998,14.41 Z M82.0799998,19.45 L82.0799998,17.14 L71.0399998,17.14 L71.0399998,19.45 L82.0799998,19.45 Z M71.2499998,22.39 C72.2099998,23.38 73.0799998,24.55 73.8599998,25.87 L79.5299998,25.87 C80.3699998,24.73 81.0899998,23.53 81.7199998,22.3 L84.6299998,23.35 C84.0899998,24.25 83.5199998,25.09 82.9199998,25.87 L89.4599998,25.87 L89.4599998,28.84 L63.4799998,28.84 L63.4799998,25.87 L70.5299998,25.87 C69.8999998,25.03 69.1499998,24.25 68.3099998,23.5 L71.2499998,22.39 Z M66.5399998,5.86 C67.9199998,6.88 69.1499998,7.87 70.1699998,8.83 C71.2199998,7.81 72.0599998,6.73 72.7199998,5.59 L65.9099998,5.59 L65.9099998,2.71 L76.2599998,2.71 L76.2599998,5.05 C75.5699998,6.79 74.6399998,8.35 73.4699998,9.73 L80.9099998,9.73 C79.1099998,7.75 77.6699998,5.62 76.6199998,3.28 L79.2299998,1.84 C79.7099998,2.95 80.2799998,4 80.9399998,4.99 C81.9899998,4.15 82.8899998,3.25 83.6399998,2.29 L85.8299998,4.24 C84.9299998,5.32 83.8499998,6.34 82.6199998,7.24 C83.0999998,7.84 83.6399998,8.38 84.2399998,8.92 C85.4999998,7.96 86.5499998,6.88 87.4499998,5.71 L89.6399998,7.63 C88.7399998,8.77 87.6599998,9.82 86.4599998,10.75 C87.7799998,11.71 89.2199998,12.61 90.8399998,13.42 L88.7699998,15.82 C86.4299998,14.5 84.3899998,13.06 82.6499998,11.47 L82.6499998,12.58 L71.6399998,12.58 L71.6399998,11.62 C69.7199998,13.3 67.3499998,14.71 64.5299998,15.88 L62.6099998,13.42 C64.7099998,12.61 66.4799998,11.68 67.9799998,10.63 C66.9899998,9.73 65.8199998,8.8 64.4399998,7.84 L66.5399998,5.86 Z M97.2899997,2.74 L115.17,2.74 L115.17,12.43 L120.24,12.43 L120.24,15.28 L115.59,15.28 L117.96,17.23 C116.4,19.15 114.63,20.68 112.65,21.76 C114.87,23.38 117.45,24.79 120.39,26.05 L118.8,28.81 C114.6,26.83 111.21,24.46 108.63,21.67 L108.63,26.47 C108.63,28.57 107.7,29.65 105.87,29.65 L102.36,29.65 L101.67,26.71 C102.75,26.83 103.8,26.92 104.82,26.92 C105.27,26.92 105.51,26.5 105.51,25.72 L105.51,21.79 C102.57,24.37 99.0899997,26.68 95.0999997,28.75 L93.8399997,25.84 C98.3399997,23.8 102.21,21.4 105.51,18.58 L105.51,15.28 L94.2899997,15.28 L94.2899997,12.43 L111.99,12.43 L111.99,10.36 L98.3099997,10.36 L98.3099997,7.66 L111.99,7.66 L111.99,5.56 L97.2899997,5.56 L97.2899997,2.74 Z M98.0399997,15.73 C99.7799997,16.93 101.25,18.13 102.45,19.33 L100.41,21.37 C99.3599997,20.23 97.8899997,19.03 95.9699997,17.71 L98.0399997,15.73 Z M115.53,15.28 L108.63,15.28 L108.63,18.22 C109.2,18.85 109.83,19.45 110.52,20.05 C112.44,18.91 114.12,17.32 115.53,15.28 Z M130.02,11.08 C128.73,11.83 127.41,12.52 126.03,13.15 L124.2,10.51 C129.39,8.29 133.59,5.41 136.77,1.9 L139.29,1.9 C142.05,5.32 146.22,8.2 151.77,10.48 L149.97,13.12 C148.56,12.52 147.24,11.89 146.04,11.2 L146.04,12.73 L139.59,12.73 L139.59,16.06 L149.91,16.06 L149.91,18.97 L139.59,18.97 L139.59,26.05 L142.17,26.05 C143.07,24.19 143.85,22.24 144.54,20.17 L147.36,21.22 C146.73,23.02 146.04,24.61 145.32,26.05 L150.99,26.05 L150.99,29.02 L125.04,29.02 L125.04,26.05 L130.8,26.05 C130.26,24.43 129.57,22.87 128.76,21.43 L131.61,20.38 C132.42,21.97 133.17,23.86 133.83,26.05 L136.47,26.05 L136.47,18.97 L126.12,18.97 L126.12,16.06 L136.47,16.06 L136.47,12.73 L130.02,12.73 L130.02,11.08 Z M143.94,9.94 C141.66,8.44 139.68,6.73 138.03,4.84 C136.17,6.76 134.1,8.44 131.85,9.94 L143.94,9.94 Z M167.61,1.87 L169.889999,1.87 C173.639999,5.95 177.96,9.13 182.879999,11.47 L181.169999,14.53 C176.31,12.01 172.169999,8.74 168.75,4.69 C165.599999,8.47 161.43,11.77 156.21,14.56 L154.53,11.5 C159.78,8.92 164.129999,5.71 167.61,1.87 Z M168.03,10 L171.18,10 L171.18,16.27 L179.009999,16.27 L179.009999,19.3 L171.18,19.3 L171.18,25.54 L181.199999,25.54 L181.199999,28.6 L155.939999,28.6 L155.939999,25.54 L160.199999,25.54 L160.199999,14.32 L163.289999,14.32 L163.289999,25.54 L168.03,25.54 L168.03,10 Z M186.209999,6.58 L198.089999,6.58 C197.339999,5.2 196.409999,3.91 195.329999,2.68 L198.479999,1.54 C199.559999,2.95 200.549999,4.63 201.449999,6.58 L212.789999,6.58 L212.789999,9.7 L208.259999,9.7 C206.819999,14.2 204.719999,17.95 201.959999,20.98 C205.049999,23.44 208.889999,25.48 213.449999,27.16 L211.709999,29.83 C206.909999,28.03 202.919999,25.81 199.739999,23.17 C196.379999,26.14 192.239999,28.33 187.349999,29.71 L185.669999,26.95 C190.439999,25.72 194.399999,23.8 197.519999,21.16 C194.279999,17.86 192.029999,14.05 190.769999,9.7 L186.209999,9.7 L186.209999,6.58 Z M193.769999,9.7 C194.999999,13.24 196.979999,16.33 199.739999,19.03 C202.079999,16.45 203.849999,13.33 205.019999,9.7 L193.769999,9.7 Z M231.839999,1.66 C232.259999,2.44 232.709999,3.28 233.129999,4.24 L243.719999,4.24 L243.719999,7.3 L221.849999,7.3 L221.849999,13.6 C221.759999,20.26 220.799999,25.6 218.999999,29.62 L216.329999,27.25 C217.829999,23.98 218.609999,19.42 218.669999,13.6 L218.669999,4.24 L229.619999,4.24 C229.229999,3.52 228.809999,2.86 228.329999,2.26 L231.839999,1.66 Z M228.869999,7.57 L231.839999,8.26 C231.659999,8.86 231.449999,9.46 231.269999,10.06 L242.399999,10.06 L242.399999,12.79 L230.219999,12.79 C229.529999,14.41 228.809999,15.85 228.029999,17.11 L232.259999,17.11 L232.259999,13.96 L235.379999,13.96 L235.379999,17.11 L241.769999,17.11 L241.769999,19.93 L235.379999,19.93 L235.379999,22.33 L243.989999,22.33 L243.989999,25.18 L235.379999,25.18 L235.379999,29.68 L232.259999,29.68 L232.259999,25.18 L221.909999,25.18 L221.909999,22.33 L232.259999,22.33 L232.259999,19.93 L224.879999,19.93 L224.219999,17.17 C225.149999,16 226.019999,14.53 226.859999,12.79 L223.019999,12.79 L223.019999,10.06 L227.999999,10.06 C228.299999,9.25 228.569999,8.41 228.869999,7.57 Z" id="欢迎登录金企文库"></path>
            </g>
        </g>
    </g>
</svg>