<?xml version="1.0" encoding="UTF-8"?>
<svg width="430px" height="88px" viewBox="0 0 430 88" version="1.1" xmlns="http://www.w3.org/2000/svg" xmlns:xlink="http://www.w3.org/1999/xlink">
    <!-- Generator: Sketch 53.2 (72643) - https://sketchapp.com -->
    <title>分组 25</title>
    <desc>Created with Sketch.</desc>
    <g id="Page-1" stroke="none" stroke-width="1" fill="none" fill-rule="evenodd">
        <g id="登录-copy-3" transform="translate(-117.000000, -208.000000)" fill="#111F33" fill-rule="nonzero">
            <g id="分组-25" transform="translate(116.012000, 208.048000)">
                <path d="M3.376,15.292 L7.12,15.292 L7.12,34.768 L3.376,34.768 L3.376,15.292 Z M27.64,34.588 L24.652,34.588 L23.752,31.204 L26.92,31.312 C27.64,31.312 28.036,30.772 28.036,29.764 L28.036,14.464 L14.932,14.464 L14.932,11.044 L31.744,11.044 L31.744,30.772 C31.744,33.292 30.376,34.588 27.64,34.588 Z M10.648,16.732 L24.436,16.732 L24.436,30.916 L10.648,30.916 L10.648,16.732 Z M20.944,27.82 L20.944,25.228 L14.212,25.228 L14.212,27.82 L20.944,27.82 Z M14.212,22.276 L20.944,22.276 L20.944,19.756 L14.212,19.756 L14.212,22.276 Z M8.02,9.568 C9.892,11.26 11.332,12.736 12.34,14.032 L9.568,15.94 C8.488,14.572 7.084,12.988 5.284,11.26 L8.02,9.568 Z M7.012,6.904 C6.148,8.344 5.212,9.676 4.168,10.9 L1,8.848 C3.16,6.472 4.672,3.952 5.572,1.288 L9.172,2.08 C8.956,2.62 8.776,3.124 8.596,3.628 L17.272,3.628 L17.272,6.904 L12.772,6.904 C13.492,7.912 14.068,8.848 14.5,9.748 L11.188,11.008 C10.54,9.568 9.748,8.2 8.884,6.904 L7.012,6.904 Z M22.348,6.904 C21.7,8.164 20.944,9.316 20.152,10.396 L16.984,8.344 C18.748,6.148 19.972,3.808 20.692,1.324 L24.256,2.116 C24.076,2.62 23.896,3.124 23.752,3.628 L33.688,3.628 L33.688,6.904 L28.54,6.904 C29.188,7.804 29.692,8.668 30.124,9.46 L26.812,10.72 C26.164,9.424 25.444,8.128 24.616,6.904 L22.348,6.904 Z M47.224,5.356 L56.62,5.356 L56.62,1.324 L60.4,1.324 L60.4,5.356 L69.76,5.356 L69.76,8.956 L60.4,8.956 L60.4,13.312 L68.428,13.312 L68.428,16.84 L48.7,16.84 L48.7,13.312 L56.62,13.312 L56.62,8.956 L47.224,8.956 L47.224,5.356 Z M67.888,19.468 L67.888,34.768 L64.252,34.768 L64.252,33.472 L53.02,33.472 L53.02,34.768 L49.384,34.768 L49.384,19.468 L67.888,19.468 Z M53.02,29.944 L64.252,29.944 L64.252,22.996 L53.02,22.996 L53.02,29.944 Z M40.672,1.648 C42.904,3.16 44.848,4.708 46.432,6.256 L43.768,8.92 C42.4,7.48 40.492,5.896 37.972,4.24 L40.672,1.648 Z M39.808,10.252 C42.112,11.98 44.092,13.744 45.676,15.472 L43.012,18.136 C41.644,16.516 39.664,14.752 37.144,12.844 L39.808,10.252 Z M42.868,19.972 L46.288,21.34 C44.812,25.912 43.156,30.232 41.356,34.264 L37.576,32.608 C39.628,28.504 41.392,24.292 42.868,19.972 Z M77.752,25.516 C79.336,26.596 80.776,27.856 82.144,29.26 C83.296,30.448 84.412,31.744 85.42,33.148 L82.9,35.236 C81.928,33.868 80.884,32.572 79.732,31.348 C78.436,29.98 77.068,28.72 75.556,27.532 L77.752,25.516 Z M126.712,1.144 C127,2.008 127.324,2.98 127.612,4.024 L141.508,4.024 L141.508,7.48 L109.432,7.48 L109.432,4.024 L123.508,4.024 C123.184,3.232 122.86,2.512 122.5,1.864 L126.712,1.144 Z M135.64,34.588 L132.688,34.588 L131.788,31.276 L134.56,31.384 C135.82,31.384 136.468,30.952 136.468,30.088 L136.468,21.268 L114.508,21.268 L114.508,34.696 L110.944,34.696 L110.944,18.028 L140.032,18.028 L140.032,30.844 C140.032,33.328 138.556,34.588 135.64,34.588 Z M114.976,8.956 L136.036,8.956 L136.036,16.588 L114.976,16.588 L114.976,8.956 Z M132.436,13.78 L132.436,11.764 L118.576,11.764 L118.576,13.78 L132.436,13.78 Z M118.108,22.708 L132.94,22.708 L132.94,30.484 L118.108,30.484 L118.108,22.708 Z M129.628,27.712 L129.628,25.48 L121.42,25.48 L121.42,27.712 L129.628,27.712 Z M149.608,9.28 L152.848,10.864 C151.3,14.176 149.5,17.056 147.412,19.504 L144.388,17.344 C146.404,15.112 148.168,12.448 149.608,9.28 Z M159.112,16.48 C157.708,14.68 156.16,12.952 154.432,11.26 L156.7,9.028 C158.068,10.144 159.688,11.8 161.596,14.032 L159.112,16.48 Z M150.4,17.956 C151.66,18.964 152.884,19.972 154.036,21.016 C154.756,19.576 155.368,18.028 155.872,16.408 L159.148,17.848 C158.5,19.972 157.744,21.916 156.88,23.68 C158.248,25.012 159.58,26.38 160.804,27.82 L158.176,30.772 C157.096,29.476 155.98,28.252 154.9,27.1 C152.74,30.196 150.04,32.68 146.8,34.552 L144.46,31.132 C147.556,29.476 150.112,27.172 152.128,24.292 C150.76,22.96 149.428,21.736 148.06,20.62 L150.4,17.956 Z M154.252,1.18 C154.756,2.26 155.224,3.448 155.656,4.78 L162.244,4.78 L162.244,8.416 L145.252,8.416 L145.252,4.78 L151.948,4.78 C151.444,3.736 150.94,2.764 150.364,1.828 L154.252,1.18 Z M167.32,10.468 C167.104,11.116 166.852,11.8 166.636,12.448 C167.356,15.472 168.292,18.208 169.372,20.656 C170.704,17.668 171.46,14.284 171.676,10.468 L167.32,10.468 Z M167.356,24.256 C166.276,22.06 165.34,19.684 164.548,17.092 C164.008,18.028 163.432,18.928 162.856,19.756 L160.516,16.84 C162.964,12.988 164.656,7.804 165.52,1.252 L169.228,1.9 C168.94,3.628 168.652,5.248 168.292,6.796 L177.796,6.796 L177.796,10.468 L175.132,10.468 C174.844,15.868 173.62,20.548 171.46,24.508 C173.404,27.496 175.708,29.8 178.408,31.42 L176.14,34.732 C173.512,33.04 171.244,30.7 169.336,27.748 C167.104,30.592 164.26,32.968 160.804,34.912 L158.68,31.456 C162.352,29.656 165.268,27.244 167.356,24.256 Z M194.5,7.228 L194.5,32.464 L190.9,32.464 L190.9,30.664 L185.572,30.664 L185.572,33.508 L181.972,33.508 L181.972,7.228 L185.428,7.228 C186.076,5.32 186.544,3.34 186.832,1.288 L190.612,1.792 C190.216,3.736 189.676,5.572 189.028,7.228 L194.5,7.228 Z M185.572,27.208 L190.9,27.208 L190.9,20.404 L185.572,20.404 L185.572,27.208 Z M185.572,17.056 L190.9,17.056 L190.9,10.756 L185.572,10.756 L185.572,17.056 Z M201.052,15.976 C203.356,18.892 205.12,21.448 206.38,23.68 L203.356,25.768 C202.024,23.392 200.224,20.764 197.992,17.884 L201.052,15.976 Z M213.04,7.228 C213.04,19.828 212.86,27.604 212.5,30.556 C212.14,33.076 210.412,34.336 207.316,34.336 C206.596,34.336 205.3,34.264 203.428,34.12 L202.528,30.7 C204.112,30.808 205.516,30.88 206.704,30.88 C208,30.88 208.756,30.16 208.972,28.756 C209.188,27.028 209.296,21.088 209.368,10.9 L200.656,10.9 C199.684,13.06 198.532,15.004 197.2,16.732 L194.932,13.744 C197.308,10.36 198.892,6.184 199.756,1.252 L203.464,1.72 C203.104,3.664 202.636,5.5 202.096,7.228 L213.04,7.228 Z M217.54,7.048 L231.796,7.048 C230.896,5.392 229.78,3.844 228.484,2.368 L232.264,1 C233.56,2.692 234.748,4.708 235.828,7.048 L249.436,7.048 L249.436,10.792 L244,10.792 C242.272,16.192 239.752,20.692 236.44,24.328 C240.148,27.28 244.756,29.728 250.228,31.744 L248.14,34.948 C242.38,32.788 237.592,30.124 233.776,26.956 C229.744,30.52 224.776,33.148 218.908,34.804 L216.892,31.492 C222.616,30.016 227.368,27.712 231.112,24.544 C227.224,20.584 224.524,16.012 223.012,10.792 L217.54,10.792 L217.54,7.048 Z M226.612,10.792 C228.088,15.04 230.464,18.748 233.776,21.988 C236.584,18.892 238.708,15.148 240.112,10.792 L226.612,10.792 Z M266.356,13.492 L273.844,13.492 L273.844,1.432 L277.66,1.432 L277.66,13.492 L285.004,13.492 L285.004,34.732 L281.26,34.732 L281.26,33.472 L265.852,33.472 L265.852,29.8 L281.26,29.8 L281.26,25.228 L267.256,25.228 L267.256,21.664 L281.26,21.664 L281.26,17.092 L266.356,17.092 L266.356,13.492 Z M282.556,3.16 L285.868,4.744 C284.932,7.336 283.708,9.856 282.196,12.304 L279.028,10.648 C280.504,8.128 281.692,5.644 282.556,3.16 Z M268.768,3.412 C269.992,5.608 271.18,8.02 272.332,10.648 L269.092,12.268 C267.94,9.604 266.752,7.192 265.456,5.032 L268.768,3.412 Z M261.64,17.524 L261.64,34.588 L257.86,34.588 L257.86,18.532 C256.852,21.34 255.592,23.968 254.152,26.344 L252.496,22.24 C254.908,19.144 256.672,15.616 257.752,11.656 L253.396,11.656 L253.396,8.02 L257.86,8.02 L257.86,1.396 L261.64,1.396 L261.64,8.02 L265.528,8.02 L265.528,11.656 L261.64,11.656 L261.64,13.132 C263.224,14.788 264.808,16.624 266.392,18.604 L264.268,21.772 C263.26,20.08 262.396,18.676 261.64,17.524 Z M316.072,15.508 L316.072,23.248 L298.72,23.248 L298.72,24.94 L317.764,24.94 L317.764,34.732 L314.056,34.732 L314.056,33.508 L298.72,33.508 L298.72,34.696 L294.94,34.696 L294.94,15.508 L316.072,15.508 Z M298.72,30.196 L314.056,30.196 L314.056,27.892 L298.72,27.892 L298.72,30.196 Z M298.72,20.296 L312.436,20.296 L312.436,18.496 L298.72,18.496 L298.72,20.296 Z M321.04,10.936 L321.04,17.992 L317.368,17.992 L317.368,14.104 L293.608,14.104 L293.608,17.992 L289.936,17.992 L289.936,10.936 L303.724,10.936 C303.436,10.288 303.148,9.712 302.86,9.172 L306.028,8.632 L305.308,8.164 C306.964,6.004 308.152,3.7 308.872,1.252 L312.436,2.044 C312.256,2.584 312.076,3.124 311.896,3.628 L321.796,3.628 L321.796,6.904 L316.108,6.904 C316.612,7.624 317.044,8.344 317.404,8.992 L314.092,10.252 C313.516,9.1 312.868,7.984 312.112,6.904 L310.492,6.904 C309.88,8.056 309.196,9.136 308.476,10.144 L306.82,9.1 C307.036,9.676 307.288,10.288 307.504,10.936 L321.04,10.936 Z M295.012,6.904 C294.256,8.2 293.428,9.388 292.492,10.468 L289.216,8.38 C291.304,6.148 292.744,3.736 293.572,1.216 L297.208,2.008 C296.992,2.548 296.812,3.088 296.596,3.628 L305.452,3.628 L305.452,6.904 L300.34,6.904 C300.916,7.732 301.42,8.524 301.816,9.28 L298.396,10.612 C297.82,9.316 297.136,8.092 296.344,6.904 L295.012,6.904 Z M338.032,2.512 L356.464,2.512 L356.464,19.972 L349.156,19.972 L349.156,23.284 L356.896,23.284 L356.896,26.776 L349.156,26.776 L349.156,30.124 L358.12,30.124 L358.12,33.76 L336.268,33.76 L336.268,30.124 L345.412,30.124 L345.412,26.776 L337.636,26.776 L337.636,23.284 L345.412,23.284 L345.412,19.972 L338.032,19.972 L338.032,2.512 Z M352.864,16.66 L352.864,12.844 L349.156,12.844 L349.156,16.66 L352.864,16.66 Z M345.412,16.66 L345.412,12.844 L341.632,12.844 L341.632,16.66 L345.412,16.66 Z M341.632,9.64 L345.412,9.64 L345.412,5.824 L341.632,5.824 L341.632,9.64 Z M349.156,5.824 L349.156,9.64 L352.864,9.64 L352.864,5.824 L349.156,5.824 Z M325.684,14.32 L329.104,14.32 L329.104,6.976 L325.144,6.976 L325.144,3.412 L336.844,3.412 L336.844,6.976 L332.92,6.976 L332.92,14.32 L336.412,14.32 L336.412,17.92 L332.92,17.92 L332.92,24.724 C334.072,24.328 335.188,23.896 336.304,23.428 L336.304,27.064 C332.992,28.36 329.464,29.44 325.72,30.34 L324.784,26.74 C326.26,26.488 327.7,26.2 329.104,25.84 L329.104,17.92 L325.684,17.92 L325.684,14.32 Z M376.264,34.588 L372.16,34.588 L371.296,30.916 C372.556,31.06 373.78,31.168 374.968,31.168 C375.652,31.168 376.012,30.772 376.012,30.016 L376.012,22.384 C372.628,22.6 368.992,22.816 365.032,22.996 L363.988,19.72 C365.176,19.612 366.256,19.396 367.228,19.036 C369.712,17.956 372.484,16.336 375.508,14.14 C372.7,14.356 369.712,14.536 366.616,14.716 L365.86,11.44 C366.76,11.332 367.588,11.116 368.38,10.756 C369.64,10.144 371.188,8.812 373.06,6.724 C370.252,6.796 367.372,6.868 364.348,6.868 L363.268,3.628 C373.564,3.628 382.312,2.944 389.512,1.612 L391.348,4.744 C387.496,5.536 382.96,6.112 377.704,6.472 C375.976,8.488 374.14,10.216 372.232,11.584 C374.608,11.44 377.02,11.26 379.396,11.08 C380.872,9.856 382.384,8.524 383.968,7.084 L387.424,8.776 C381.844,13.564 376.984,17.164 372.88,19.54 C377.56,19.216 381.7,18.856 385.228,18.424 C384.472,17.416 383.68,16.408 382.888,15.4 L385.66,13.672 C388.648,17.164 390.952,20.224 392.536,22.852 L389.548,24.904 C388.9,23.752 388.144,22.6 387.352,21.412 C385.048,21.664 382.528,21.88 379.792,22.096 L379.792,30.952 C379.792,33.364 378.604,34.588 376.264,34.588 Z M384.616,23.608 C388.144,26.2 391.132,28.756 393.544,31.312 L390.88,33.976 C388.828,31.528 385.912,28.864 382.132,26.02 L384.616,23.608 Z M369.964,23.86 L372.592,26.2 C370.18,29.116 367.192,31.672 363.592,33.832 L361.252,30.772 C364.708,28.792 367.588,26.488 369.964,23.86 Z M409.24,25.696 L409.24,29.26 C405.964,30.916 402.256,32.284 398.08,33.292 L397.612,29.548 C402.04,28.576 405.928,27.28 409.24,25.696 Z M402.76,1.216 L406.36,2.62 C404.704,6.796 403.012,10.18 401.284,12.844 C402.364,12.736 403.444,12.592 404.524,12.412 C405.1,11.26 405.748,10 406.432,8.668 L409.78,9.964 C406.972,15.256 404.632,19.18 402.76,21.736 C404.884,21.16 407.044,20.368 409.24,19.396 L409.24,22.852 C405.28,24.508 401.572,25.588 398.08,26.128 L397.072,22.672 C397.756,22.384 398.332,22.024 398.764,21.592 C399.772,20.512 401.068,18.604 402.652,15.868 C401.068,16.084 399.412,16.336 397.756,16.588 L396.82,13.132 C397.396,12.88 397.936,12.412 398.44,11.692 C400.096,8.524 401.536,5.032 402.76,1.216 Z M410.248,17.74 L409.456,14.428 C409.78,14.32 410.032,14.212 410.176,14.14 C411.184,13.348 412.516,11.44 414.136,8.38 L408.772,8.38 L408.772,4.816 L417.412,4.816 C417.016,3.736 416.584,2.692 416.08,1.756 L419.896,1.108 C420.328,2.188 420.76,3.448 421.192,4.816 L429.004,4.816 L429.004,8.38 L418.06,8.38 C416.764,10.828 415.612,12.7 414.604,14.068 C417.34,13.816 420.04,13.456 422.704,13.024 L420.76,10.324 L423.64,8.524 C425.98,11.584 427.78,14.248 429.04,16.516 L426.124,18.568 C425.692,17.776 425.224,16.948 424.72,16.156 C420.292,16.804 415.468,17.344 410.248,17.74 Z M412.804,18.676 L416.476,18.676 C416.26,23.284 415.72,26.632 414.784,28.756 C413.74,31.024 412.012,33.004 409.564,34.66 L407.152,31.636 C409.168,30.34 410.572,28.828 411.4,27.1 C412.192,25.408 412.66,22.6 412.804,18.676 Z M426.124,34.048 L423.928,34.048 C421.228,34.048 419.896,32.86 419.896,30.52 L419.896,18.244 L423.46,18.244 L423.46,29.764 C423.46,30.304 423.64,30.628 424.036,30.736 L425.944,30.736 C426.556,30.664 426.88,30.16 426.952,29.26 C427.024,28.288 427.096,26.956 427.096,25.3 L430.3,26.452 C430.3,29.908 430.012,31.996 429.508,32.788 C429.004,33.508 427.852,33.904 426.124,34.048 Z" id="简洁、高效的文档管理系统"></path>
                <path d="M60.436,66.04 C61.828,67.504 62.932,68.8 63.7,69.928 L62.644,70.624 C61.78,69.376 60.724,68.104 59.428,66.76 L60.436,66.04 Z M68.716,76.168 C70.492,78.112 71.884,79.816 72.844,81.28 L71.716,82.048 C70.732,80.464 69.388,78.736 67.66,76.84 L68.716,76.168 Z M66.268,65.392 L67.54,65.392 L67.54,67.864 C67.516,69.112 67.468,70.312 67.372,71.44 L77.332,71.44 C77.332,78.208 77.02,82.504 76.42,84.328 C75.796,86.152 74.692,87.088 73.108,87.088 C71.956,87.088 71.02,87.064 70.252,87.016 L69.892,85.744 C71.044,85.84 72.076,85.888 73.036,85.888 C74.572,85.768 75.436,84.352 75.676,81.64 C75.892,78.904 76.012,75.952 76.012,72.736 L67.252,72.736 C66.868,75.76 66.196,78.304 65.236,80.368 C63.82,83.272 61.468,85.552 58.204,87.208 L57.484,86.056 C60.7,84.424 62.98,82.168 64.324,79.288 C65.092,77.44 65.644,75.256 65.956,72.736 L58.3,72.736 L58.3,71.44 L66.1,71.44 C66.196,70.288 66.244,69.112 66.268,67.864 L66.268,65.392 Z M96.110435,78.64 L94.166435,78.64 L93.878435,77.416 C94.502435,77.464 95.102435,77.512 95.678435,77.512 C96.158435,77.512 96.398435,77.2 96.398435,76.576 L96.398435,70.144 L97.694435,70.144 L97.694435,76.888 C97.694435,78.04 97.166435,78.64 96.110435,78.64 Z M86.438435,71.296 C85.670435,72.256 84.830435,73.12 83.942435,73.936 L83.102435,72.952 C85.382435,70.936 87.182435,68.416 88.526435,65.344 L89.798435,65.656 C89.198435,67.048 88.502435,68.32 87.734435,69.496 L87.734435,78.712 L86.438435,78.712 L86.438435,71.296 Z M93.950435,65.32 L95.174435,65.632 C94.862435,66.352 94.526435,67.048 94.166435,67.672 L103.934435,67.672 L103.934435,68.488 C103.646435,69.688 103.238435,70.888 102.758435,72.04 L101.582435,71.704 C102.014435,70.84 102.374435,69.904 102.662435,68.872 L93.446435,68.872 C92.510435,70.288 91.430435,71.56 90.206435,72.664 L89.414435,71.704 C91.310435,70.024 92.822435,67.888 93.950435,65.32 Z M86.054435,80.056 L87.326435,80.32 C86.750435,82.6 85.958435,84.568 84.926435,86.224 L83.846435,85.504 C84.854435,83.896 85.574435,82.072 86.054435,80.056 Z M97.646435,86.944 L91.478435,86.944 C90.110435,86.944 89.438435,86.248 89.438435,84.904 L89.438435,79.696 L90.758435,79.696 L90.758435,84.64 C90.758435,85.336 91.118435,85.696 91.886435,85.696 L97.430435,85.696 C97.958435,85.696 98.318435,85.552 98.534435,85.288 C98.822435,84.928 99.014435,83.872 99.110435,82.144 L100.334435,82.552 C100.190435,84.616 99.902435,85.888 99.470435,86.368 C99.086435,86.752 98.462435,86.944 97.646435,86.944 Z M101.582435,79.36 C103.118435,81.472 104.318435,83.344 105.134435,84.928 L104.054435,85.696 C103.190435,83.968 102.014435,82.072 100.526435,80.008 L101.582435,79.36 Z M93.254435,72.544 L94.334435,73.072 C93.422435,74.944 92.366435,76.552 91.118435,77.896 L90.134435,77.176 C91.334435,75.88 92.390435,74.344 93.254435,72.544 Z M100.862435,72.52 C102.014435,74.008 103.046435,75.64 103.958435,77.416 L102.830435,77.992 C101.894435,76.12 100.862435,74.464 99.758435,73 L100.862435,72.52 Z M93.974435,79.024 C95.222435,80.416 96.182435,81.64 96.854435,82.672 L95.822435,83.416 C95.126435,82.264 94.190435,81.016 92.990435,79.648 L93.974435,79.024 Z M112.00887,87.064 L109.84887,87.064 L109.56087,85.816 C110.25687,85.864 110.92887,85.912 111.55287,85.912 C112.20087,85.912 112.53687,85.576 112.53687,84.928 L112.53687,78.472 C111.55287,78.88 110.54487,79.24 109.51287,79.552 L109.17687,78.256 C110.32887,77.968 111.45687,77.608 112.53687,77.2 L112.53687,71.416 L109.46487,71.416 L109.46487,70.144 L112.53687,70.144 L112.53687,65.488 L113.83287,65.488 L113.83287,70.144 L116.42487,70.144 L116.42487,71.416 L113.83287,71.416 L113.83287,76.648 C114.60087,76.288 115.36887,75.904 116.11287,75.496 L116.11287,76.816 C115.34487,77.2 114.60087,77.584 113.83287,77.92 L113.83287,85.24 C113.83287,86.44 113.20887,87.064 112.00887,87.064 Z M118.46487,66.304 L128.73687,66.304 L128.73687,74.392 L118.46487,74.392 L118.46487,66.304 Z M127.44087,73.288 L127.44087,70.912 L119.73687,70.912 L119.73687,73.288 L127.44087,73.288 Z M119.73687,69.856 L127.44087,69.856 L127.44087,67.408 L119.73687,67.408 L119.73687,69.856 Z M116.71287,76.36 L130.36887,76.36 L130.36887,77.56 L124.22487,77.56 L124.22487,80.656 L129.43287,80.656 L129.43287,81.832 L124.22487,81.832 L124.22487,85.384 C125.23287,85.528 126.43287,85.624 127.87287,85.624 C129.09687,85.624 130.12887,85.576 130.96887,85.528 L130.60887,86.824 C129.64887,86.824 128.76087,86.8 127.96887,86.776 C124.80087,86.776 122.64087,86.464 121.51287,85.864 C120.55287,85.336 119.68887,84.28 118.92087,82.744 C118.34487,84.376 117.48087,85.888 116.32887,87.256 L115.36887,86.392 C117.28887,84.136 118.32087,81.592 118.48887,78.76 L119.66487,78.904 C119.61687,79.768 119.49687,80.584 119.30487,81.376 C120.12087,83.176 121.08087,84.328 122.13687,84.832 C122.37687,84.928 122.64087,85.024 122.95287,85.12 L122.95287,77.56 L116.71287,77.56 L116.71287,76.36 Z M142.235305,70.648 L145.523305,70.648 L145.523305,65.512 L146.819305,65.512 L146.819305,70.648 L151.595305,70.648 L151.595305,65.512 L152.891305,65.512 L152.891305,70.648 L156.251305,70.648 L156.251305,71.944 L152.891305,71.944 L152.891305,77.944 L156.923305,77.944 L156.923305,79.216 L141.587305,79.216 L141.587305,77.944 L145.523305,77.944 L145.523305,71.944 L142.235305,71.944 L142.235305,70.648 Z M146.819305,77.944 L151.595305,77.944 L151.595305,71.944 L146.819305,71.944 L146.819305,77.944 Z M151.883305,80.416 C153.947305,82.696 155.507305,84.688 156.587305,86.392 L155.435305,87.208 C154.331305,85.36 152.795305,83.32 150.827305,81.088 L151.883305,80.416 Z M146.195305,80.56 L147.371305,81.136 C146.123305,83.464 144.635305,85.48 142.907305,87.184 L141.779305,86.392 C143.483305,84.76 144.947305,82.816 146.195305,80.56 Z M138.155305,73.216 C137.267305,74.488 136.283305,75.688 135.179305,76.816 L134.771305,75.424 C137.507305,72.424 139.475305,69.016 140.675305,65.2 L141.875305,65.776 C141.227305,67.696 140.411305,69.52 139.451305,71.2 L139.451305,87.304 L138.155305,87.304 L138.155305,73.216 Z M171.45374,65.536 L172.36574,65.536 C175.41374,68.752 178.91774,71.296 182.87774,73.144 L182.22974,74.272 C178.19774,72.328 174.76574,69.808 171.90974,66.736 C169.26974,69.712 165.81374,72.28 161.49374,74.44 L160.86974,73.288 C165.09374,71.224 168.62174,68.632 171.45374,65.536 Z M165.23774,73.192 L178.62974,73.192 L178.62974,74.464 L172.55774,74.464 L172.55774,79.048 L179.68574,79.048 L179.68574,80.32 L172.55774,80.32 L172.55774,85.264 L181.86974,85.264 L181.86974,86.536 L161.97374,86.536 L161.97374,85.264 L171.26174,85.264 L171.26174,80.32 L164.10974,80.32 L164.10974,79.048 L171.26174,79.048 L171.26174,74.464 L165.23774,74.464 L165.23774,73.192 Z M187.232175,66.496 L208.472175,66.496 L208.472175,67.744 L198.704175,67.744 C198.464175,68.944 198.128175,70.12 197.696175,71.224 L207.056175,71.224 L207.056175,87.352 L205.784175,87.352 L205.784175,86.056 L189.968175,86.056 L189.968175,87.352 L188.696175,87.352 L188.696175,71.224 L196.400175,71.224 C196.856175,70.144 197.192175,68.992 197.384175,67.744 L187.232175,67.744 L187.232175,66.496 Z M189.968175,84.808 L193.688175,84.808 L193.688175,72.448 L189.968175,72.448 L189.968175,84.808 Z M194.912175,84.808 L200.768175,84.808 L200.768175,81.376 L194.912175,81.376 L194.912175,84.808 Z M201.992175,84.808 L205.784175,84.808 L205.784175,72.448 L201.992175,72.448 L201.992175,84.808 Z M194.912175,80.248 L200.768175,80.248 L200.768175,76.936 L194.912175,76.936 L194.912175,80.248 Z M194.912175,75.784 L200.768175,75.784 L200.768175,72.448 L194.912175,72.448 L194.912175,75.784 Z M221.27461,69.688 L221.27461,85.816 L220.02661,85.816 L220.02661,84.352 L215.17861,84.352 L215.17861,86.488 L213.93061,86.488 L213.93061,69.688 L216.09061,69.688 C216.59461,68.32 216.95461,66.88 217.17061,65.392 L218.49061,65.56 C218.22661,67.048 217.84261,68.416 217.33861,69.688 L221.27461,69.688 Z M215.17861,83.152 L220.02661,83.152 L220.02661,77.464 L215.17861,77.464 L215.17861,83.152 Z M215.17861,76.288 L220.02661,76.288 L220.02661,70.936 L215.17861,70.936 L215.17861,76.288 Z M225.35461,75.112 C227.17861,77.128 228.57061,78.88 229.53061,80.392 L228.49861,81.136 C227.49061,79.504 226.07461,77.728 224.29861,75.784 L225.35461,75.112 Z M233.70661,69.712 C233.70661,77.464 233.58661,82.264 233.37061,84.088 C233.13061,86.008 232.02661,86.968 230.03461,86.968 C229.57861,86.968 228.78661,86.944 227.68261,86.92 L227.37061,85.72 C228.33061,85.768 229.17061,85.792 229.89061,85.792 C231.18661,85.792 231.93061,85.072 232.12261,83.656 C232.31461,82.216 232.41061,77.992 232.45861,71.008 L225.37861,71.008 C224.70661,72.568 223.91461,73.96 222.95461,75.208 L222.18661,74.2 C223.91461,71.8 225.09061,68.848 225.71461,65.368 L226.98661,65.512 C226.69861,67 226.33861,68.416 225.88261,69.712 L233.70661,69.712 Z M239.357045,69.616 L249.485045,69.616 C248.837045,68.224 248.021045,66.952 247.013045,65.752 L248.309045,65.272 C249.245045,66.472 250.109045,67.936 250.877045,69.616 L260.045045,69.616 L260.045045,70.912 L256.229045,70.912 C255.077045,74.848 253.277045,78.112 250.829045,80.704 C253.445045,82.96 256.709045,84.832 260.621045,86.272 L259.901045,87.376 C255.869045,85.888 252.557045,83.968 249.917045,81.64 C247.181045,84.256 243.701045,86.176 239.525045,87.376 L238.853045,86.224 C242.981045,85.072 246.389045,83.272 249.029045,80.824 C246.173045,78.04 244.181045,74.752 243.077045,70.912 L239.357045,70.912 L239.357045,69.616 Z M244.349045,70.912 C245.429045,74.392 247.301045,77.392 249.941045,79.912 C252.221045,77.464 253.877045,74.464 254.909045,70.912 L244.349045,70.912 Z M270.15948,65.272 L271.35948,65.848 C270.71148,67.792 269.91948,69.616 268.95948,71.296 L268.95948,87.328 L267.68748,87.328 L267.68748,73.336 C266.82348,74.56 265.88748,75.712 264.85548,76.816 L264.42348,75.448 C267.06348,72.448 268.98348,69.064 270.15948,65.272 Z M274.16748,66.784 L275.43948,66.928 C275.19948,68.224 274.91148,69.424 274.57548,70.576 L278.60748,70.576 L278.60748,65.44 L279.90348,65.44 L279.90348,70.576 L285.59148,70.576 L285.59148,71.872 L279.90348,71.872 L279.90348,78.088 L286.47948,78.088 L286.47948,79.36 L279.90348,79.36 L279.90348,87.208 L278.60748,87.208 L278.60748,79.36 L271.33548,79.36 L271.33548,78.088 L278.60748,78.088 L278.60748,71.872 L274.14348,71.872 C273.51948,73.456 272.77548,74.896 271.88748,76.168 L271.07148,75.112 C272.58348,72.832 273.61548,70.048 274.16748,66.784 Z M308.329915,74.896 L308.329915,79.384 L296.113915,79.384 L296.113915,81.328 L309.433915,81.328 L309.433915,87.28 L308.137915,87.28 L308.137915,86.2 L296.113915,86.2 L296.113915,87.256 L294.817915,87.256 L294.817915,74.896 L308.329915,74.896 Z M296.113915,85.024 L308.137915,85.024 L308.137915,82.408 L296.113915,82.408 L296.113915,85.024 Z M296.113915,78.304 L307.057915,78.304 L307.057915,76 L296.113915,76 L296.113915,78.304 Z M311.617915,72.088 L311.617915,76.216 L310.345915,76.216 L310.345915,73.216 L292.777915,73.216 L292.777915,76.216 L291.505915,76.216 L291.505915,72.088 L301.201915,72.088 C300.913915,71.44 300.625915,70.864 300.337915,70.336 L301.609915,70.096 C301.921915,70.672 302.209915,71.344 302.473915,72.088 L311.617915,72.088 Z M294.073915,68.416 C293.473915,69.376 292.777915,70.288 292.009915,71.104 L290.905915,70.408 C292.393915,68.872 293.497915,67.168 294.193915,65.272 L295.465915,65.536 C295.225915,66.112 294.985915,66.688 294.721915,67.24 L301.465915,67.24 L301.465915,68.416 L297.121915,68.416 C297.745915,69.256 298.225915,70.024 298.585915,70.744 L297.409915,71.2 C296.929915,70.24 296.353915,69.328 295.729915,68.416 L294.073915,68.416 Z M304.441915,68.416 C303.985915,69.28 303.481915,70.072 302.905915,70.792 L301.801915,70.072 C302.977915,68.656 303.841915,67.072 304.393915,65.296 L305.617915,65.56 C305.425915,66.136 305.209915,66.712 304.993915,67.24 L312.169915,67.24 L312.169915,68.416 L307.633915,68.416 C308.209915,69.184 308.665915,69.88 309.001915,70.552 L307.825915,70.96 C307.369915,70.096 306.841915,69.232 306.217915,68.416 L304.441915,68.416 Z M325.64435,66.448 L337.06835,66.448 L337.06835,77.248 L332.00435,77.248 L332.00435,80.464 L337.54835,80.464 L337.54835,81.688 L332.00435,81.688 L332.00435,85.264 L338.46035,85.264 L338.46035,86.536 L324.10835,86.536 L324.10835,85.264 L330.70835,85.264 L330.70835,81.688 L325.16435,81.688 L325.16435,80.464 L330.70835,80.464 L330.70835,77.248 L325.64435,77.248 L325.64435,66.448 Z M335.79635,76.072 L335.79635,72.448 L332.00435,72.448 L332.00435,76.072 L335.79635,76.072 Z M330.70835,76.072 L330.70835,72.448 L326.89235,72.448 L326.89235,76.072 L330.70835,76.072 Z M326.89235,71.32 L330.70835,71.32 L330.70835,67.624 L326.89235,67.624 L326.89235,71.32 Z M332.00435,67.624 L332.00435,71.32 L335.79635,71.32 L335.79635,67.624 L332.00435,67.624 Z M317.02835,74.44 L319.86035,74.44 L319.86035,68.344 L316.69235,68.344 L316.69235,67.096 L324.30035,67.096 L324.30035,68.344 L321.15635,68.344 L321.15635,74.44 L324.01235,74.44 L324.01235,75.712 L321.15635,75.712 L321.15635,81.688 C322.16435,81.328 323.12435,80.944 324.03635,80.56 L324.03635,81.832 C321.82835,82.768 319.42835,83.536 316.86035,84.16 L316.54835,82.936 C317.70035,82.696 318.80435,82.432 319.86035,82.096 L319.86035,75.712 L317.02835,75.712 L317.02835,74.44 Z M345.598785,73.36 L345.598785,77.728 L349.870785,77.728 L349.870785,73.36 L345.598785,73.36 Z M349.870785,72.184 L349.870785,67.768 L345.598785,67.768 L345.598785,72.184 L349.870785,72.184 Z M345.574785,78.952 C345.454785,82.36 344.902785,85.144 343.942785,87.328 L342.934785,86.44 C343.894785,84.184 344.398785,81.352 344.422785,77.896 L344.422785,66.544 L351.094785,66.544 L351.094785,85.264 C351.094785,86.56 350.470785,87.232 349.222785,87.232 L347.302785,87.232 L346.990785,86.08 C347.662785,86.104 348.262785,86.128 348.838785,86.128 C349.510785,86.128 349.870785,85.696 349.870785,84.832 L349.870785,78.952 L345.574785,78.952 Z M354.598785,76.576 L354.598785,87.304 L353.374785,87.304 L353.374785,66.544 L362.830785,66.544 C362.830785,69.376 362.686785,71.272 362.398785,72.208 C362.134785,73.168 361.246785,73.648 359.710785,73.648 L357.862785,73.648 L357.502785,72.52 L359.110785,72.52 C359.734785,72.52 360.190785,72.472 360.502785,72.376 C360.790785,72.28 361.030785,72.04 361.198785,71.656 C361.390785,71.032 361.510785,69.736 361.534785,67.744 L354.598785,67.744 L354.598785,75.4 L362.830785,75.4 L362.830785,76.504 C362.326785,79.096 361.486785,81.28 360.286785,83.056 C361.438785,84.208 362.830785,85.24 364.414785,86.128 L363.790785,87.208 C362.110785,86.248 360.694785,85.192 359.566785,84.04 C358.486785,85.36 357.190785,86.416 355.678785,87.232 L355.006785,86.2 C356.446785,85.384 357.694785,84.376 358.702785,83.128 C357.070785,81.208 355.966785,79.024 355.390785,76.576 L354.598785,76.576 Z M356.518785,76.576 C357.046785,78.64 358.030785,80.512 359.422785,82.144 C360.454785,80.56 361.198785,78.688 361.654785,76.576 L356.518785,76.576 Z M375.84922,65.32 L377.16922,65.512 C376.88122,66.208 376.52122,66.88 376.13722,67.504 L386.76922,67.504 L386.76922,68.56 C385.16122,70.432 383.19322,71.992 380.86522,73.264 C383.64922,74.512 386.79322,75.328 390.27322,75.712 L389.69722,76.936 C385.85722,76.48 382.44922,75.496 379.44922,73.984 C376.47322,75.352 373.01722,76.336 369.03322,76.96 L368.43322,75.76 C372.10522,75.256 375.32122,74.416 378.08122,73.24 C376.59322,72.352 375.20122,71.344 373.90522,70.192 C372.96922,71.056 371.88922,71.872 370.66522,72.592 L369.87322,71.56 C372.82522,69.88 374.81722,67.792 375.84922,65.32 Z M379.47322,72.592 C381.58522,71.512 383.40922,70.216 384.92122,68.728 L375.24922,68.728 C375.08122,68.92 374.91322,69.112 374.76922,69.304 C376.18522,70.6 377.74522,71.68 379.47322,72.592 Z M378.17722,75.904 L379.44922,75.904 C379.44922,76.96 379.35322,77.92 379.18522,78.832 L387.72922,78.832 C387.68122,82.768 387.32122,85.144 386.62522,85.912 C385.92922,86.68 384.70522,87.088 382.97722,87.088 C382.25722,87.088 381.36922,87.064 380.33722,87.016 L380.00122,85.816 C381.08122,85.864 381.96922,85.912 382.68922,85.912 C384.27322,85.888 385.28122,85.576 385.68922,84.952 C386.09722,84.304 386.33722,82.648 386.43322,80.008 L378.89722,80.008 C378.65722,80.728 378.39322,81.376 378.05722,81.976 C376.78522,84.136 373.97722,85.912 369.60922,87.304 L368.74522,86.272 C372.68122,85.096 375.32122,83.584 376.66522,81.76 C377.00122,81.208 377.26522,80.632 377.50522,80.008 L370.08922,80.008 L370.08922,78.832 L377.86522,78.832 C378.05722,77.92 378.17722,76.936 378.17722,75.904 Z" id="为您提供全面的文件管理服务"></path>
            </g>
        </g>
    </g>
</svg>