<?xml version="1.0" encoding="UTF-8"?>
<svg width="11px" height="14px" viewBox="0 0 11 14" version="1.1" xmlns="http://www.w3.org/2000/svg" xmlns:xlink="http://www.w3.org/1999/xlink">
    <!-- Generator: Sketch 53.2 (72643) - https://sketchapp.com -->
    <desc>Created with Sketch.</desc>
    <g id="Page-1" stroke="none" stroke-width="1" fill="none" fill-rule="evenodd">
        <g id="切图" transform="translate(-212.000000, -237.000000)" fill="#5C5C5C" fill-rule="nonzero">
            <g id="file-text" transform="translate(211.767011, 236.079036)">
                <path d="M11.0861143,4.43033853 L7.72361427,1.06783853 C7.62986427,0.97408853 7.50330177,0.92096353 7.37048927,0.92096353 L0.732989274,0.92096353 C0.456426774,0.92096353 0.232989274,1.14440103 0.232989274,1.42096353 L0.232989274,14.4209635 C0.232989274,14.697526 0.456426774,14.9209635 0.732989274,14.9209635 L10.7329893,14.9209635 C11.0095518,14.9209635 11.2329893,14.697526 11.2329893,14.4209635 L11.2329893,4.78502603 C11.2329893,4.65221353 11.1798643,4.52408853 11.0861143,4.43033853 Z M10.0798643,5.01471353 L7.13923927,5.01471353 L7.13923927,2.07408853 L10.0798643,5.01471353 Z M10.1079893,13.7959635 L1.35798927,13.7959635 L1.35798927,2.04596353 L6.07673927,2.04596353 L6.07673927,5.42096353 C6.07673927,5.78346353 6.37048927,6.07721353 6.73298927,6.07721353 L10.1079893,6.07721353 L10.1079893,13.7959635 Z M5.60798927,9.57721353 L2.73298927,9.57721353 C2.66423927,9.57721353 2.60798927,9.63346353 2.60798927,9.70221353 L2.60798927,10.4522135 C2.60798927,10.5209635 2.66423927,10.5772135 2.73298927,10.5772135 L5.60798927,10.5772135 C5.67673927,10.5772135 5.73298927,10.5209635 5.73298927,10.4522135 L5.73298927,9.70221353 C5.73298927,9.63346353 5.67673927,9.57721353 5.60798927,9.57721353 Z M2.60798927,7.57721353 L2.60798927,8.32721353 C2.60798927,8.39596353 2.66423927,8.45221353 2.73298927,8.45221353 L8.73298927,8.45221353 C8.80173927,8.45221353 8.85798927,8.39596353 8.85798927,8.32721353 L8.85798927,7.57721353 C8.85798927,7.50846353 8.80173927,7.45221353 8.73298927,7.45221353 L2.73298927,7.45221353 C2.66423927,7.45221353 2.60798927,7.50846353 2.60798927,7.57721353 Z" id="形状"></path>
            </g>
        </g>
    </g>
</svg>