<?xml version="1.0" standalone="no"?><!DOCTYPE svg PUBLIC "-//W3C//DTD SVG 1.1//EN" "http://www.w3.org/Graphics/SVG/1.1/DTD/svg11.dtd"><svg t="1667806452698" class="icon" viewBox="0 0 1024 1024" version="1.1" xmlns="http://www.w3.org/2000/svg" p-id="21426" width="12" height="12" xmlns:xlink="http://www.w3.org/1999/xlink"><path d="M923.26 901.592H101.003c-8.49 0-15.71-6.235-16.93-14.64L9.448 376.806a17.157 17.157 0 0 1 3.978-13.671 17.146 17.146 0 0 1 12.953-5.916H997.9c4.964 0 9.693 2.155 12.953 5.916a17.157 17.157 0 0 1 3.977 13.67l-74.64 510.145c-1.22 8.406-8.44 14.64-16.93 14.64z m-807.466-34.228H908.47l69.626-475.917H46.185l69.609 475.917z m791.522-547.681c-9.46 0-17.114-7.655-17.114-17.115v-31.571c0-8.707-7.487-15.778-16.696-15.778H316.851a17.09 17.09 0 0 1-16.112-11.365c-14.473-40.529-32.974-79.603-41.849-88.778H153.9c-9.21 0-16.713 7.069-16.713 15.76v131.73c0 9.46-7.655 17.115-17.115 17.115-9.46 0-17.114-7.654-17.114-17.114V170.838c0-27.56 22.846-49.988 50.94-49.988h108.6c8.858 0 29.198 0 66.334 100.144h544.673c28.078 0 50.923 22.43 50.923 50.005v31.571c0.002 9.458-7.653 17.113-17.112 17.113z" fill="" p-id="21427"></path><path d="M660.3 563.959H326.543c-9.46 0-17.115-7.655-17.115-17.115s7.655-17.114 17.115-17.114H660.3c9.46 0 17.115 7.654 17.115 17.114s-7.655 17.115-17.114 17.115z" fill="" p-id="21428"></path></svg>