<?xml version="1.0" encoding="UTF-8"?>
<svg width="16px" height="16px" viewBox="0 0 16 16" version="1.1" xmlns="http://www.w3.org/2000/svg" xmlns:xlink="http://www.w3.org/1999/xlink">
    <!-- Generator: Sketch 53.2 (72643) - https://sketchapp.com -->
    <title>矩形</title>
    <desc>Created with Sketch.</desc>
    <g id="文件交接" stroke="none" stroke-width="1" fill="none" fill-rule="evenodd">
        <g transform="translate(-21.000000, -709.000000)" fill-rule="nonzero" id="分组-9">
            <g transform="translate(21.000000, 709.000000)">
                <rect id="矩形" fill="#000000" opacity="0" x="0" y="0" width="16" height="16"></rect>
                <path d="M5.12,4 C5.054,4 5,4.05625 5,4.125 L5,4.875 C5,4.94375 5.054,5 5.12,5 L10.88,5 C10.946,5 11,4.94375 11,4.875 L11,4.125 C11,4.05625 10.946,4 10.88,4 L5.12,4 Z M8,7.125 L8,6.375 C8,6.30625 7.946,6.25 7.88,6.25 L5.12,6.25 C5.054,6.25 5,6.30625 5,6.375 L5,7.125 C5,7.19375 5.054,7.25 5.12,7.25 L7.88,7.25 C7.946,7.25 8,7.19375 8,7.125 Z M6.75,12.8962264 L3.125,12.8962264 L3.125,2.10377358 L11.875,2.10377358 L11.875,7.37735849 C11.875,7.44481132 11.93125,7.5 12,7.5 L12.875,7.5 C12.94375,7.5 13,7.44481132 13,7.37735849 L13,1.49056604 C13,1.2192217 12.7765625,1 12.5,1 L2.5,1 C2.2234375,1 2,1.2192217 2,1.49056604 L2,13.509434 C2,13.7807783 2.2234375,14 2.5,14 L6.75,14 C6.81875,14 6.875,13.9448113 6.875,13.8773585 L6.875,13.0188679 C6.875,12.9514151 6.81875,12.8962264 6.75,12.8962264 Z M8.97131048,11.8882353 C8.99858267,11.3808824 9.21676022,10.9058824 9.5894802,10.5441176 C9.98644214,10.1588235 10.5288558,9.94117647 11.090966,9.94117647 C11.6576216,9.94117647 12.1909445,10.1558824 12.5924518,10.5441176 C12.6409357,10.5911765 12.6879045,10.6411765 12.731843,10.6926471 L12.3818498,10.9558824 C12.3015484,11.0161765 12.3288206,11.1397059 12.4273035,11.1632353 L13.8409122,11.4941176 C13.9166683,11.5117647 13.9893941,11.4558824 13.9909093,11.3808824 L14,9.97794118 C14,9.87941176 13.8848507,9.82352941 13.8045493,9.88382353 L13.4969795,10.1161765 C12.930324,9.43529412 12.0621591,9 11.090966,9 C9.42584704,9 8.06678271,10.2779412 8.00011735,11.8779412 C7.99708711,11.9441176 8.05314662,12 8.1213271,12 L8.85010073,12 C8.91525097,12 8.96828023,11.9514706 8.97131048,11.8882353 Z M13.8786729,12 L13.1498993,12 C13.084749,12 13.0317198,12.0485294 13.0286895,12.1117647 C13.0014173,12.6191176 12.7832398,13.0941176 12.4105198,13.4558824 C12.0135579,13.8411765 11.4711442,14.0588235 10.909034,14.0588235 C10.3423784,14.0588235 9.80905553,13.8441176 9.40754823,13.4558824 C9.35906433,13.4088235 9.31209555,13.3588235 9.26815701,13.3073529 L9.61815017,13.0441176 C9.69845163,12.9838235 9.67117943,12.8602941 9.57269651,12.8367647 L8.1590878,12.5058824 C8.0833317,12.4882353 8.01060585,12.5441176 8.00909073,12.6191176 L8,14.0220588 C8,14.1205882 8.11514926,14.1764706 8.19545072,14.1161765 L8.50302046,13.8838235 C9.06967605,14.5647059 9.93784089,15 10.909034,15 C12.574153,15 13.9332173,13.7220588 13.9998826,12.1220588 C14.0029129,12.0558824 13.9468534,12 13.8786729,12 Z" id="形状" stroke="#5C5C5C" stroke-width="0.1" fill="#5C5C5C"></path>
            </g>
        </g>
    </g>
</svg>