<?xml version="1.0" encoding="UTF-8"?>
<svg width="11px" height="12px" viewBox="0 0 11 12" version="1.1" xmlns="http://www.w3.org/2000/svg" xmlns:xlink="http://www.w3.org/1999/xlink">
    <!-- Generator: Sketch 53.2 (72643) - https://sketchapp.com -->
    <desc>Created with Sketch.</desc>
    <g id="蓝色" stroke="none" stroke-width="1" fill="none" fill-rule="evenodd">
        <g id="切图" transform="translate(-470.000000, -40.000000)" fill="#2980FF" fill-rule="nonzero">
            <g id="分组-7" transform="translate(469.000000, 38.240000)">
                <g id="share" transform="translate(0.291053, 1.000000)">
                    <path d="M9.87561356,9.08653061 C9.44019689,9.08653061 9.03839133,9.23959184 8.72366911,9.49520408 L5.55811356,7.20081633 C5.58408578,7.05846939 5.59783578,6.91 5.59783578,6.76 C5.59783578,6.61 5.58408578,6.46306122 5.55811356,6.31918367 L8.72366911,4.02479592 C9.03839133,4.28040816 9.44019689,4.43346939 9.87561356,4.43346939 C10.8870024,4.43346939 11.7089469,3.61 11.7089469,2.59673469 C11.7089469,1.58346939 10.8870024,0.76 9.87561356,0.76 C8.86422467,0.76 8.04228022,1.58346939 8.04228022,2.59673469 C8.04228022,2.77428571 8.06672467,2.94418367 8.11408578,3.10642857 L5.10741911,5.28755102 C4.661308,4.69520408 3.95241911,4.31102041 3.15339133,4.31102041 C1.80283578,4.31102041 0.708946888,5.40693878 0.708946888,6.76 C0.708946888,8.11306122 1.80283578,9.20897959 3.15339133,9.20897959 C3.95241911,9.20897959 4.661308,8.82479592 5.10741911,8.23244898 L8.11408578,10.4135714 C8.06672467,10.5758163 8.04228022,10.7472449 8.04228022,10.9232653 C8.04228022,11.9365306 8.86422467,12.76 9.87561356,12.76 C10.8870024,12.76 11.7089469,11.9365306 11.7089469,10.9232653 C11.7089469,9.91 10.8870024,9.08653061 9.87561356,9.08653061 Z M9.87561356,1.80081633 C10.3140858,1.80081633 10.670058,2.15744898 10.670058,2.59673469 C10.670058,3.03602041 10.3140858,3.39265306 9.87561356,3.39265306 C9.43714133,3.39265306 9.08116911,3.03602041 9.08116911,2.59673469 C9.08116911,2.15744898 9.43714133,1.80081633 9.87561356,1.80081633 Z M3.15339133,8.10693878 C2.41241911,8.10693878 1.80894689,7.50234694 1.80894689,6.76 C1.80894689,6.01765306 2.41241911,5.41306122 3.15339133,5.41306122 C3.89436356,5.41306122 4.49783578,6.01765306 4.49783578,6.76 C4.49783578,7.50234694 3.89436356,8.10693878 3.15339133,8.10693878 Z M9.87561356,11.7191837 C9.43714133,11.7191837 9.08116911,11.362551 9.08116911,10.9232653 C9.08116911,10.4839796 9.43714133,10.1273469 9.87561356,10.1273469 C10.3140858,10.1273469 10.670058,10.4839796 10.670058,10.9232653 C10.670058,11.362551 10.3140858,11.7191837 9.87561356,11.7191837 Z" id="形状"></path>
                </g>
            </g>
        </g>
    </g>
</svg>