<?xml version="1.0" standalone="no"?><!DOCTYPE svg PUBLIC "-//W3C//DTD SVG 1.1//EN" "http://www.w3.org/Graphics/SVG/1.1/DTD/svg11.dtd"><svg t="1603434107829" class="icon" viewBox="0 0 1024 1024" version="1.1" xmlns="http://www.w3.org/2000/svg" p-id="866" xmlns:xlink="http://www.w3.org/1999/xlink" width="200" height="200"><defs><style type="text/css"></style></defs><path d="M759.8 668.8c29.7-19.1 49.5-52.4 49.5-90.3 0-59.2-48.1-107.3-107.3-107.3s-107.3 48.1-107.3 107.3c0 37.9 19.8 71.2 49.5 90.3C587.3 705 548 793.5 548 899.7c0 15.5 12.6 28 28 28s28-12.5 28-28c0-60.6 14.8-111.2 35.6-145.3l45.1 31.7c4.1 2.9 8.8 4.2 13.4 4.2 0.7 0 1.3-0.2 2-0.2 0.7 0.1 1.3 0.2 2 0.2 4.6 0 9.3-1.4 13.4-4.2l47.7-33.5c21.4 34.1 36.7 85.5 36.7 147.1 0 15.5 12.6 28 28 28s28-12.5 28-28c0.1-106.2-39.2-194.7-96.1-230.9z m-59.6 70.9L670.6 719c10.3-7.5 21-11.7 31.4-11.7 9.8 0 19.8 3.7 29.6 10.4l-31.4 22z m1.8-221.8c33.4 0 60.6 27.2 60.6 60.6 0 33.4-27.2 60.6-60.6 60.6-33.4 0-60.6-27.2-60.6-60.6 0-33.4 27.2-60.6 60.6-60.6zM372 880.1h-0.6l-149-3C226.4 734 272.1 607.5 337 539l92.6 65.1c4.9 3.4 10.5 5.1 16.1 5.1 0.5 0 1.1-0.2 1.6-0.2s1.1 0.2 1.6 0.2c5.6 0 11.2-1.7 16.1-5.1l106-74.4a27.89 27.89 0 0 0 10.1-32.5c-0.4-7.5-3.8-14.9-10.1-20.1-11.8-9.7-24.1-17.8-36.7-24.7 50-29.8 83.7-84.3 83.7-146.7 0-94.2-76.6-170.8-170.8-170.8-94.2 0-170.8 76.6-170.8 170.8 0 61.7 32.9 115.6 82.1 145.6C245.7 511.4 166 686 166 897.6c0 8.6 3.9 16.2 10 21.3 4.8 8.1 13.4 13.6 23.5 13.8l170.7 3.4H371.9c22 0 42.8-8.4 58.8-23.7 16.4-15.7 25.7-36.9 26.1-59.5 0.5-22.6-8-44.1-23.7-60.5s-36.9-25.7-59.5-26.1l-87.6-1.8c-15.4-0.4-28.3 12-28.6 27.5-0.3 15.5 12 28.3 27.5 28.6l87.6 1.8c7.7 0.2 14.8 3.3 20.2 8.9 5.4 5.6 8.2 12.9 8.1 20.5-0.3 15.8-13.2 28.3-28.8 28.3zM447.3 548l-64.8-45.5c20.2-11.4 41.5-17.7 63.4-17.7 22.2 0 43.9 6.3 65 18.5L447.3 548z m0-357.1c63.2 0 114.7 51.5 114.7 114.7s-51.5 114.7-114.7 114.7-114.7-51.5-114.7-114.7S384 190.9 447.3 190.9z" p-id="867" fill="#5C5C5C"></path></svg>