<?xml version="1.0" encoding="UTF-8"?>
<svg width="247px" height="152px" viewBox="0 0 247 152" version="1.1" xmlns="http://www.w3.org/2000/svg" xmlns:xlink="http://www.w3.org/1999/xlink">
    <!-- Generator: Sketch 53.2 (72643) - https://sketchapp.com -->
    <title>noPreview</title>
    <desc>Created with Sketch.</desc>
    <defs>
        <linearGradient x1="52.348%" y1="74.611%" x2="52.348%" y2="-17.635%" id="linearGradient-1">
            <stop stop-color="#DEDEDE" stop-opacity="0" offset="0%"></stop>
            <stop stop-color="#A9A9A9" stop-opacity="0.3" offset="100%"></stop>
        </linearGradient>
        <linearGradient x1="44.79%" y1="100%" x2="44.79%" y2="0%" id="linearGradient-2">
            <stop stop-color="#FFFFFF" stop-opacity="0" offset="0%"></stop>
            <stop stop-color="#96A1C5" stop-opacity="0.373" offset="100%"></stop>
        </linearGradient>
        <linearGradient x1="50%" y1="100%" x2="50%" y2="-19.675%" id="linearGradient-3">
            <stop stop-color="#FFFFFF" stop-opacity="0" offset="0%"></stop>
            <stop stop-color="#919191" stop-opacity="0.15" offset="100%"></stop>
        </linearGradient>
        <linearGradient x1="50%" y1="0%" x2="50%" y2="44.95%" id="linearGradient-4">
            <stop stop-color="#5389F5" offset="0%"></stop>
            <stop stop-color="#416FDC" offset="100%"></stop>
        </linearGradient>
        <linearGradient x1="50%" y1="0%" x2="50%" y2="100%" id="linearGradient-5">
            <stop stop-color="#BFD5FF" offset="0%"></stop>
            <stop stop-color="#B1C9FB" offset="100%"></stop>
        </linearGradient>
        <path d="M41.0996547,0.992569963 L32.1454004,0.992569963 C31.6157184,0.992569963 31.1505195,1.38075956 30.8833755,1.96622583 L23.458616,13.573731 C22.9151163,14.4264754 22.93354,15.7374107 23.5046753,16.5583363 L29.3496008,24.8948669 L23.4033449,35.2550744 C23.0901416,35.802358 22.9842052,36.5341909 23.1177772,37.2151136 L24.8127595,45.6725557 L16.0891277,35.4332597 L21.9570828,27.478555 C22.5973071,26.6130831 22.5834893,25.1557812 21.9294472,24.3094006 L14.2559675,14.4264754 L16.8951655,4.80446449 C17.0057078,4.40991113 17.0241315,3.98990272 16.9688604,3.60171313 C16.99189,3.45534656 17.0011019,3.30261623 17.0011019,3.1498859 C17.0011019,1.95986206 16.3240301,0.992569963 15.4857508,0.992569963 L2.79112153,0.992569963 C0.28549549,0.992569963 0.553325072,3.89444626 0.553325072,7.47724529 L0.553325072,47.3398618 C0.553325072,50.9353884 0.28088956,53.8245372 2.79112153,53.8245372 L41.0996547,53.8245372 C43.6006748,53.8245372 43.5727133,50.9162971 43.5727133,47.3398618 L43.5727133,7.47724529 C43.5727133,3.88171874 43.6144926,0.992569963 41.0996547,0.992569963 Z" id="path-6"></path>
        <filter x="-12.8%" y="-6.6%" width="125.6%" height="120.8%" filterUnits="objectBoundingBox" id="filter-7">
            <feOffset dx="0" dy="2" in="SourceAlpha" result="shadowOffsetOuter1"></feOffset>
            <feGaussianBlur stdDeviation="1.5" in="shadowOffsetOuter1" result="shadowBlurOuter1"></feGaussianBlur>
            <feColorMatrix values="0 0 0 0 0.184527216   0 0 0 0 0.356267046   0 0 0 0 0.754557292  0 0 0 0 0" type="matrix" in="shadowBlurOuter1"></feColorMatrix>
        </filter>
        <linearGradient x1="50%" y1="0%" x2="50%" y2="100%" id="linearGradient-8">
            <stop stop-color="#7CA5F7" offset="0%"></stop>
            <stop stop-color="#C4D6FC" offset="100%"></stop>
        </linearGradient>
    </defs>
    <g id="确定" stroke="none" stroke-width="1" fill="none" fill-rule="evenodd">
        <g id="noPreview" fill-rule="nonzero">
            <path d="M49.5576609,28.5702773 C52.0895885,20.5658726 54.4458469,15.5822142 56.6226173,13.6173925 C62.6507436,8.17928552 70.9854828,11.1389294 72.7574502,11.5628268 C78.9822497,13.0560149 76.9582351,3.22999713 82.2989603,1.23271486 C85.8581708,-0.0981701778 88.7853541,1.52867925 91.0824196,6.11326313 C93.1159814,1.83610032 96.215015,-0.122992998 100.37952,0.226435928 C106.627233,0.755352936 108.813551,21.8566593 117.398428,17.2377053 C125.985214,12.6168419 136.511999,11.5609174 141.008748,18.4272912 C141.980657,19.9128415 142.352999,17.6081382 148.963507,9.73930428 C155.574015,1.86856093 162.165428,-1.59899606 175.688137,2.98367838 C181.836559,5.06497636 186.892776,10.7073943 190.862518,19.9090226 C190.862518,33.0422038 200.524323,40.8174748 219.844115,43.2291072 C248.827621,46.8475105 226.330508,78.0077873 190.862518,87.1330377 C155.392618,96.2601977 73.7312685,101.186573 29.4168067,78.1280825 C-0.126167825,62.7589381 6.58745023,46.2383967 49.5557514,28.5702773 L49.5576609,28.5702773 Z" id="路径" fill="url(#linearGradient-1)" opacity="0.8"></path>
            <ellipse id="椭圆形" fill="url(#linearGradient-2)" cx="122.23124" cy="132.257105" rx="53.4397123" ry="12.3694021"></ellipse>
            <path d="M212.452643,147.691171 C172.272135,157.769236 35.1222364,146.2419 20.5245089,140.977553 C13.419454,138.413165 7.01516651,133.591809 1.31355573,126.511577 C0.011193394,124.89587 -0.247584107,122.675843 0.648240578,120.803903 C1.54406526,118.931964 3.43527271,117.740821 5.51052173,117.741484 L245.172938,117.741484 C250.147049,130.989232 239.240284,140.971825 212.452643,147.691171 L212.452643,147.691171 Z" id="路径" fill="url(#linearGradient-3)" opacity="0.675"></path>
            <g id="分组" transform="translate(80.223391, 54.088816)">
                <path d="M83.0151474,45.0183678 L64.7398237,23.6478293 C63.8652416,22.6161457 62.5846275,22.0166203 61.2321683,22.0057043 L21.935735,22.0057043 C20.5876649,22.0057043 19.3064255,22.6243653 18.4280796,23.6478293 L0.152755815,45.0183678 L0.152755815,56.7500143 L83.0151474,56.7500143 L83.0151474,45.0183678 Z" id="路径" fill="url(#linearGradient-4)"></path>
                <g id="地裂" transform="translate(19.583952, 0.911184)">
                    <g id="路径">
                        <use fill="black" fill-opacity="1" filter="url(#filter-7)" xlink:href="#path-6"></use>
                        <use fill="url(#linearGradient-5)" xlink:href="#path-6"></use>
                    </g>
                </g>
                <path d="M83.0151474,70.1944355 C83.0151474,71.8231943 82.2819195,73.2877407 81.1247942,74.2691968 L80.8899322,74.4601416 C79.9724549,75.1555323 78.8523843,75.5311248 77.7011545,75.5294323 L5.46865816,75.5294323 C4.81562705,75.5294323 4.19123766,75.4110465 3.61458446,75.1933695 L3.32816731,75.0788026 C1.39772932,74.2199273 0.153551621,72.3054049 0.152755815,70.192526 L0.152755815,45.1463008 L20.2573305,45.1463008 C22.4780181,45.1463008 24.2671706,46.9736422 24.2671706,49.1905109 L24.2671706,49.2191527 C24.2671706,51.4379309 26.077327,53.2270833 28.2980147,53.2270833 L54.8698886,53.2270833 C57.0922143,53.2249888 58.8944232,51.4261948 58.9007327,49.2038771 C58.9007327,46.9774611 60.6917946,45.1463008 62.9105728,45.1463008 L83.0170569,45.1463008 L83.0151474,70.1944355 Z" id="路径" fill="url(#linearGradient-8)"></path>
            </g>
        </g>
    </g>
</svg>