<?xml version="1.0" encoding="UTF-8"?>
<svg width="247px" height="152px" viewBox="0 0 247 152" version="1.1" xmlns="http://www.w3.org/2000/svg" xmlns:xlink="http://www.w3.org/1999/xlink">
    <!-- Generator: Sketch 53.2 (72643) - https://sketchapp.com -->
    <title>empty</title>
    <desc>Created with Sketch.</desc>
    <defs>
        <linearGradient x1="52.348%" y1="74.611%" x2="52.348%" y2="-17.635%" id="linearGradient-1">
            <stop stop-color="#DEDEDE" stop-opacity="0" offset="0%"></stop>
            <stop stop-color="#A9A9A9" stop-opacity="0.3" offset="100%"></stop>
        </linearGradient>
        <linearGradient x1="44.79%" y1="100%" x2="44.79%" y2="0%" id="linearGradient-2">
            <stop stop-color="#FFFFFF" stop-opacity="0" offset="0%"></stop>
            <stop stop-color="#96A1C5" stop-opacity="0.373" offset="100%"></stop>
        </linearGradient>
        <linearGradient x1="50%" y1="100%" x2="50%" y2="-19.675%" id="linearGradient-3">
            <stop stop-color="#FFFFFF" stop-opacity="0" offset="0%"></stop>
            <stop stop-color="#919191" stop-opacity="0.15" offset="100%"></stop>
        </linearGradient>
        <linearGradient x1="50%" y1="0%" x2="50%" y2="44.95%" id="linearGradient-4">
            <stop stop-color="#5389F5" offset="0%"></stop>
            <stop stop-color="#416FDC" offset="100%"></stop>
        </linearGradient>
        <linearGradient x1="63.345%" y1="100%" x2="63.345%" y2="-5.316%" id="linearGradient-5">
            <stop stop-color="#DCE9FF" offset="0%"></stop>
            <stop stop-color="#B6CFFF" offset="100%"></stop>
        </linearGradient>
        <linearGradient x1="50%" y1="0%" x2="50%" y2="100%" id="linearGradient-6">
            <stop stop-color="#7CA5F7" offset="0%"></stop>
            <stop stop-color="#C4D6FC" offset="100%"></stop>
        </linearGradient>
    </defs>
    <g id="页面-1" stroke="none" stroke-width="1" fill="none" fill-rule="evenodd">
        <g id="empty" transform="translate(-0.229278, 0.000000)" fill-rule="nonzero">
            <path d="M49.7869389,28.5702773 C52.3188665,20.5658726 54.6751249,15.5822142 56.8518953,13.6173925 C62.8800216,8.17928552 71.2147608,11.1389294 72.9867282,11.5628268 C79.2115277,13.0560149 77.1875131,3.22999713 82.5282383,1.23271486 C86.0874488,-0.0981701778 89.0146321,1.52867925 91.3116976,6.11326313 C93.3452594,1.83610032 96.444293,-0.122992998 100.608798,0.226435928 C106.856511,0.755352936 109.042829,21.8566593 117.627706,17.2377053 C126.214492,12.6168419 136.741277,11.5609174 141.238026,18.4272912 C142.209935,19.9128415 142.582277,17.6081382 149.192785,9.73930428 C155.803293,1.86856093 162.394706,-1.59899606 175.917415,2.98367838 C182.065837,5.06497636 187.122054,10.7073943 191.091796,19.9090226 C191.091796,33.0422038 200.753601,40.8174748 220.073393,43.2291072 C249.056899,46.8475105 226.559786,78.0077873 191.091796,87.1330377 C155.621896,96.2601977 73.9605465,101.186573 29.6460847,78.1280825 C0.103110175,62.7589381 6.81672823,46.2383967 49.7850294,28.5702773 L49.7869389,28.5702773 Z" id="路径" fill="url(#linearGradient-1)" opacity="0.8"></path>
            <ellipse id="椭圆形" fill="url(#linearGradient-2)" cx="122.460518" cy="132.257105" rx="53.4397123" ry="12.3694021"></ellipse>
            <path d="M212.681921,147.691171 C172.501413,157.769236 35.3515144,146.2419 20.7537869,140.977553 C13.648732,138.413165 7.24444451,133.591809 1.54283373,126.511577 C0.240471394,124.89587 -0.0183061066,122.675843 0.877518578,120.803903 C1.77334326,118.931964 3.66455071,117.740821 5.73979973,117.741484 L245.402216,117.741484 C250.376327,130.989232 239.469562,140.971825 212.681921,147.691171 L212.681921,147.691171 Z" id="路径" fill="url(#linearGradient-3)" opacity="0.675"></path>
            <g id="分组" transform="translate(80.452669, 76.088816)">
                <path d="M83.0151474,23.0183678 L64.7398237,1.6478293 C63.8652416,0.616145662 62.5846275,0.0166202848 61.2321683,0.00570429211 L21.935735,0.00570429211 C20.5876649,0.00570429211 19.3064255,0.624365341 18.4280796,1.6478293 L0.152755815,23.0183678 L0.152755815,34.7500143 L83.0151474,34.7500143 L83.0151474,23.0183678 Z" id="路径" fill="url(#linearGradient-4)"></path>
                <path d="M77.8367253,35.1815495 L61.8412821,16.5682535 C61.0588968,15.6789783 59.9285708,15.1737463 58.7441579,15.1839039 L24.4237453,15.1839039 C23.2456161,15.1839039 22.0942191,15.6727225 21.3266212,16.5682535 L5.33117793,35.1815495 L5.33117793,45.4047324 L77.8367253,45.4047324 L77.8367253,35.1815495 Z" id="路径" fill="url(#linearGradient-5)"></path>
                <path d="M83.0151474,48.1944355 C83.0151474,49.8231943 82.2819195,51.2877407 81.1247942,52.2691968 L80.8899322,52.4601416 C79.9724549,53.1555323 78.8523843,53.5311248 77.7011545,53.5294323 L5.46865816,53.5294323 C4.81562705,53.5294323 4.19123766,53.4110465 3.61458446,53.1933695 L3.32816731,53.0788026 C1.39772932,52.2199273 0.153551621,50.3054049 0.152755815,48.192526 L0.152755815,23.1463008 L20.2573305,23.1463008 C22.4780181,23.1463008 24.2671706,24.9736422 24.2671706,27.1905109 L24.2671706,27.2191527 C24.2671706,29.4379309 26.077327,31.2270833 28.2980147,31.2270833 L54.8698886,31.2270833 C57.0922143,31.2249888 58.8944232,29.4261948 58.9007327,27.2038771 C58.9007327,24.9774611 60.6917946,23.1463008 62.9105728,23.1463008 L83.0170569,23.1463008 L83.0151474,48.1944355 Z" id="路径" fill="url(#linearGradient-6)"></path>
            </g>
        </g>
    </g>
</svg>