<?xml version="1.0" encoding="UTF-8"?>
<svg width="41px" height="41px" viewBox="0 0 41 41" version="1.1" xmlns="http://www.w3.org/2000/svg" xmlns:xlink="http://www.w3.org/1999/xlink">
    <!-- Generator: Sketch 53.2 (72643) - https://sketchapp.com -->
    <title>形状</title>
    <desc>Created with Sketch.</desc>
    <g id="页面2" stroke="none" stroke-width="1" fill="none" fill-rule="evenodd">
        <g id="画板" transform="translate(-325.000000, -125.000000)" fill="#909090" fill-rule="nonzero">
            <g id="zoom-out" transform="translate(325.000000, 124.769398)">
                <path d="M40.8952778,38.4330219 L33.6145894,31.1523335 C39.703439,23.7270287 39.2795634,12.7262077 32.3180284,5.76965953 C24.9376045,-1.61575112 12.9494025,-1.61575112 5.53905799,5.76965953 C-1.84635266,13.180004 -1.84635266,25.1682061 5.53905799,32.5486299 C12.4956062,39.5101649 23.4964272,39.9340406 30.921732,33.8451909 L38.2024204,41.1258793 C38.3619971,41.2655089 38.6163226,41.2655089 38.7509654,41.1258793 L40.8952778,38.981567 C41.0349074,38.8469241 41.0349074,38.5925987 40.8952778,38.4330219 Z M29.6750388,29.9056403 C23.7507526,35.8249397 14.1562015,35.8249397 8.23191535,29.9056403 C2.31261593,23.9813541 2.31261593,14.3868031 8.23191535,8.46251689 C14.1562015,2.54321747 23.7507526,2.54321747 29.6750388,8.46251689 C35.5943382,14.3868031 35.5943382,23.9813541 29.6750388,29.9056403 Z" id="形状"></path>
            </g>
        </g>
    </g>
</svg>